<svg viewBox="0 0 751 751" xmlns="http://www.w3.org/2000/svg"><path d="m530.83.5 219.67 219.67.00125 310.66-219.67 219.67h-310.66l-219.67-219.67v-310.66l219.67-219.67 310.66-.00061z" fill="#fff" fill-rule="evenodd" stroke="#000"/><path d="m731.75 227.94.00126 295.13-208.69 208.69h-295.13l-208.69-208.69v-295.13l208.69-208.69 295.13-.0006 208.69 208.69z" fill="#af1e2d" fill-rule="evenodd"/><g fill="#fff"><path d="m206.31 432.51c-.00015 10.222-1.8064 19.755-5.4188 28.6-3.6127 8.845-8.596 16.507-14.95 22.987s-13.707 11.651-22.057 15.515-17.386 5.7952-27.105 5.7952c-10.967-.00001-20.81-2.1181-29.529-6.3542s-16.07-9.9667-22.052-17.192-10.592-15.574-13.832-25.046-4.8598-19.316-4.8598-29.529h35.136c-.00005 5.2325.68443 10.402 2.0534 15.509s3.487 9.7177 6.3542 13.832 6.4816 7.4171 10.843 9.9078 9.6568 3.7361 15.886 3.7361c4.738.00003 9.2879-.99627 13.65-2.9889s8.0995-4.7343 11.214-8.2251 5.605-7.5406 7.4722-12.149 2.8005-9.4077 2.8007-14.397c-.00012-7.225-1.4946-13.64-4.4833-19.245s-8.2214-11.275-15.697-17.009c-1.2474-1.2472-9.1588-7.7858-14.768-11.402s-14.768-9.7822-27.476-18.498c-10.214-6.9815-17.876-15.146-22.987-24.493s-7.6662-19.625-7.6661-30.836c-.00003-8.9741 1.6199-17.386 4.8598-25.234s7.7878-14.764 13.644-20.745 12.648-10.655 20.375-14.02 16.074-5.0478 25.04-5.048 17.262 1.6202 24.864 4.8598 14.205 7.7272 19.81 13.461c5.605 5.7346 10.09 12.589 13.456 20.563s5.1734 16.696 5.4245 26.164h-34.395c-.49447-8.7231-3.4834-15.701-8.9666-20.934s-12.214-7.8484-20.192-7.8487c-8.2214.00022-15.197 2.7419-20.928 8.2251s-8.596 12.336-8.5959 20.557c-.00007 6.2289 1.6199 11.461 4.8598 15.697s9.4685 8.9706 18.686 14.203c24.177 13.956 41.81 28.161 52.899 42.614s16.633 30.777 16.633 48.969z" transform="matrix(1.0018 0 0 .99816 .5 .5)"/><path d="m301.72 283.58v217.06h-36.234v-217.06h-45.583v-33.258h127.4v33.258z" transform="matrix(1.0013 0 0 .99873 .5 .5)"/><path d="m511.71 375.81c-.00017 19.213-1.0606 35.557-3.1812 49.032s-5.8048 26.202-11.051 38.18c-6.2369 14.971-14.033 25.888-23.388 32.749s-21.145 10.292-35.37 10.292c-14.971 0-27.136-3.4306-36.495-10.292s-17.157-17.777-23.394-32.749c-5.2392-12.23-8.9192-25.019-11.04-38.369s-3.1812-29.63-3.1812-48.843c-.00003-18.961 1.0604-35.243 3.1812-48.843s5.8008-26.39 11.04-38.369c6.488-14.971 14.412-25.764 23.771-32.378s21.398-9.9203 36.118-9.9206c14.469.00026 26.32 3.3071 35.553 9.9206s16.968 17.658 23.205 33.131c2.4976 6.237 4.6831 12.474 6.5566 18.71s3.3714 12.786 4.4948 19.647 1.9341 14.223 2.433 22.086.74801 16.534.74818 26.015zm-34.439 0c-.00014-6.9905-.18671-13.355-.55971-19.093s-.87207-11.04-1.4964-15.906-1.4356-9.5435-2.433-14.033-2.1209-8.9799-3.3697-13.473c-3.2442-11.232-7.2992-19.344-12.165-24.336s-11.042-7.4873-18.528-7.4876c-15.474.00022-26.078 10.357-31.812 31.07-3.0004 9.481-5.0603 19.025-6.1797 28.631s-1.6792 21.397-1.6791 35.37c-.00005 6.7395.18651 12.917.55971 18.533s.87187 10.857 1.4964 15.723 1.4354 9.6694 2.433 14.41 2.1207 9.6046 3.3697 14.592c5.7341 20.713 16.338 31.07 31.812 31.07 7.4855.00003 13.661-2.4958 18.528-7.4876s8.921-12.852 12.165-23.582c1.4924-4.9878 2.7394-9.7892 3.7409-14.404s1.8123-9.4179 2.433-14.41 1.0565-10.296 1.3079-15.912.37681-12.041.37695-19.276z" transform="matrix(1.0031 0 0 .99687 .5 .5)"/><path d="m683.95 319.89c-.00017 22.861-5.6547 40.257-16.964 52.188s-27.526 17.897-48.65 17.897h-38.774v109.61h-35.793v-249.79h74.567c9.6934.00025 18.579 1.6784 26.657 5.0345s15.037 8.08 20.877 14.17 10.313 13.486 13.42 22.186 4.6588 18.268 4.659 28.705zm-35.042 0c-.00013-10.437-2.9829-18.886-8.9483-25.349s-13.795-9.6933-23.489-9.6935h-36.908v70.835h36.908c10.437.00014 18.452-3.1078 24.046-9.3237s8.3907-15.039 8.3908-26.469z" transform="matrix(.99916 0 0 1.0008 .5 .5)"/></g></svg>