<svg height="468.144012" viewBox="0 0 679.2800293 468.14401245" width="679.280029" xmlns="http://www.w3.org/2000/svg"><path d="m50.68 440.41h628.6" fill="none" stroke="#444" stroke-miterlimit="10"/><path d="m140.48 440.41v-10" fill="none" stroke="#cbcbcb" stroke-miterlimit="10"/><path d="m230.28 440.41v-10" fill="none" stroke="#cbcbcb" stroke-miterlimit="10"/><path d="m320.08 440.41v-10" fill="none" stroke="#cbcbcb" stroke-miterlimit="10"/><path d="m409.88 440.41v-10" fill="none" stroke="#cbcbcb" stroke-miterlimit="10"/><path d="m499.68 440.41v-10" fill="none" stroke="#cbcbcb" stroke-miterlimit="10"/><path d="m589.48 440.41v-10" fill="none" stroke="#cbcbcb" stroke-miterlimit="10"/><path d="m22.53 443.94a10.91 10.91 0 0 1 -1.23 5.8 4.54 4.54 0 0 1 -6.3 1.12 4.58 4.58 0 0 1 -1.12-1.12 10.7 10.7 0 0 1 -1.27-5.74 11.05 11.05 0 0 1 1.22-5.81 4.53 4.53 0 0 1 6.32-1.06 4.63 4.63 0 0 1 1.11 1.14 10.54 10.54 0 0 1 1.27 5.67zm-8.2 0a10.92 10.92 0 0 0 .77 4.76 2.77 2.77 0 0 0 4.92 0 15.18 15.18 0 0 0 0-9.47 2.78 2.78 0 0 0 -4.92 0 11 11 0 0 0 -.77 4.71z"/><path d="m30.75 440.94a6.47 6.47 0 0 1 -.78 3.53 2.6 2.6 0 0 1 -2.31 1.19 2.51 2.51 0 0 1 -2.23-1.22 6.38 6.38 0 0 1 -.79-3.5 6.5 6.5 0 0 1 .76-3.51 2.53 2.53 0 0 1 2.26-1.18 2.57 2.57 0 0 1 2.34 1.22 6.37 6.37 0 0 1 .75 3.47zm-4.7 0a7 7 0 0 0 .38 2.61 1.31 1.31 0 0 0 1.23.87c1.13 0 1.69-1.16 1.69-3.48s-.56-3.47-1.69-3.47a1.28 1.28 0 0 0 -1.23.86 7 7 0 0 0 -.38 2.61zm11.09-4.48-8.32 15h-1.5l8.31-15zm2.64 10.48a6.47 6.47 0 0 1 -.78 3.53 2.6 2.6 0 0 1 -2.3 1.19 2.53 2.53 0 0 1 -2.24-1.22 8.24 8.24 0 0 1 0-7 2.49 2.49 0 0 1 2.26-1.18 2.59 2.59 0 0 1 2.27 1.2 6.23 6.23 0 0 1 .79 3.48zm-4.7 0a6.67 6.67 0 0 0 .38 2.62 1.27 1.27 0 0 0 1.24.87 1.33 1.33 0 0 0 1.27-.86 6.37 6.37 0 0 0 .41-2.63 6.23 6.23 0 0 0 -.41-2.6 1.34 1.34 0 0 0 -1.27-.84 1.27 1.27 0 0 0 -1.24.84 6.58 6.58 0 0 0 -.38 2.6z"/><path d="m6.89 351.71h-1.66v-10.71c0-.89 0-1.73.08-2.52l-.48.45c-.18.16-1 .82-2.44 2l-.86-1.17 4-3.07h1.47z"/><path d="m22.53 344.19a10.91 10.91 0 0 1 -1.23 5.81 4.54 4.54 0 0 1 -6.3 1.11 4.58 4.58 0 0 1 -1.13-1.11 10.7 10.7 0 0 1 -1.26-5.76 11.05 11.05 0 0 1 1.22-5.81 4.53 4.53 0 0 1 6.32-1.06 4.63 4.63 0 0 1 1.11 1.14 10.54 10.54 0 0 1 1.27 5.69zm-8.2 0a10.92 10.92 0 0 0 .77 4.81 2.77 2.77 0 0 0 4.9 0 15.18 15.18 0 0 0 0-9.47 2.78 2.78 0 0 0 -4.92 0 11 11 0 0 0 -.75 4.66z"/><path d="m30.75 341.19a6.47 6.47 0 0 1 -.78 3.53 2.6 2.6 0 0 1 -2.31 1.19 2.51 2.51 0 0 1 -2.23-1.22 6.38 6.38 0 0 1 -.79-3.5 6.5 6.5 0 0 1 .76-3.51 2.53 2.53 0 0 1 2.26-1.18 2.57 2.57 0 0 1 2.34 1.22 6.37 6.37 0 0 1 .75 3.47zm-4.7 0a7 7 0 0 0 .38 2.61 1.31 1.31 0 0 0 1.23.87c1.13 0 1.69-1.16 1.69-3.48s-.56-3.47-1.69-3.47a1.28 1.28 0 0 0 -1.23.86 7 7 0 0 0 -.38 2.61zm11.09-4.48-8.32 15h-1.5l8.31-15zm2.64 10.48a6.47 6.47 0 0 1 -.78 3.53 2.6 2.6 0 0 1 -2.3 1.19 2.53 2.53 0 0 1 -2.24-1.22 8.24 8.24 0 0 1 0-7 2.49 2.49 0 0 1 2.26-1.18 2.59 2.59 0 0 1 2.27 1.2 6.23 6.23 0 0 1 .79 3.48zm-4.7 0a6.67 6.67 0 0 0 .38 2.62 1.27 1.27 0 0 0 1.24.87 1.33 1.33 0 0 0 1.27-.86 6.37 6.37 0 0 0 .41-2.63 6.23 6.23 0 0 0 -.41-2.6 1.34 1.34 0 0 0 -1.27-.84 1.27 1.27 0 0 0 -1.24.84 6.58 6.58 0 0 0 -.38 2.6z"/><path d="m10.44 252h-9.86v-1.47l4-4a27.89 27.89 0 0 0 2.42-2.64 6.91 6.91 0 0 0 .86-1.52 4.56 4.56 0 0 0 .29-1.59 2.49 2.49 0 0 0 -.73-1.9 2.78 2.78 0 0 0 -2-.7 5.35 5.35 0 0 0 -1.77.3 7.49 7.49 0 0 0 -1.86 1.12l-.9-1.16a6.89 6.89 0 0 1 4.51-1.72 4.75 4.75 0 0 1 3.31 1.08 3.72 3.72 0 0 1 1.2 2.91 5.61 5.61 0 0 1 -.8 2.82 17.7 17.7 0 0 1 -3 3.52l-3.28 3.21v.09h7.67z"/><path d="m22.53 244.44a10.91 10.91 0 0 1 -1.23 5.8 4.54 4.54 0 0 1 -6.3 1.12 4.58 4.58 0 0 1 -1.12-1.12 10.7 10.7 0 0 1 -1.26-5.76 11.05 11.05 0 0 1 1.22-5.81 4.53 4.53 0 0 1 6.32-1.06 4.63 4.63 0 0 1 1.11 1.14 10.54 10.54 0 0 1 1.27 5.69zm-8.2 0a10.92 10.92 0 0 0 .77 4.76 2.77 2.77 0 0 0 4.92 0 15.18 15.18 0 0 0 0-9.47 2.78 2.78 0 0 0 -4.92 0 11 11 0 0 0 -.77 4.71z"/><path d="m30.75 241.44a6.47 6.47 0 0 1 -.75 3.56 2.6 2.6 0 0 1 -2.31 1.19 2.51 2.51 0 0 1 -2.23-1.22 6.38 6.38 0 0 1 -.79-3.5 6.5 6.5 0 0 1 .76-3.51 2.53 2.53 0 0 1 2.26-1.18 2.57 2.57 0 0 1 2.31 1.22 6.37 6.37 0 0 1 .75 3.44zm-4.7 0a7 7 0 0 0 .38 2.61 1.31 1.31 0 0 0 1.23.87c1.13 0 1.69-1.16 1.69-3.48s-.56-3.44-1.69-3.44a1.28 1.28 0 0 0 -1.23.86 7 7 0 0 0 -.38 2.61zm11.09-4.44-8.32 15h-1.5l8.31-15zm2.64 10.48a6.47 6.47 0 0 1 -.78 3.52 2.6 2.6 0 0 1 -2.3 1.19 2.53 2.53 0 0 1 -2.24-1.22 8.24 8.24 0 0 1 0-7 2.49 2.49 0 0 1 2.26-1.18 2.59 2.59 0 0 1 2.28 1.21 6.23 6.23 0 0 1 .79 3.48zm-4.7 0a6.67 6.67 0 0 0 .38 2.62 1.27 1.27 0 0 0 1.24.87 1.33 1.33 0 0 0 1.27-.86 6.37 6.37 0 0 0 .41-2.63 6.23 6.23 0 0 0 -.41-2.6 1.34 1.34 0 0 0 -1.27-.88 1.27 1.27 0 0 0 -1.24.84 6.58 6.58 0 0 0 -.38 2.6z"/><path d="m9.87 140.74a3.4 3.4 0 0 1 -.8 2.35 4 4 0 0 1 -2.28 1.22v.08a4.26 4.26 0 0 1 2.67 1.19 3.38 3.38 0 0 1 .88 2.42 3.93 3.93 0 0 1 -1.49 3.3 6.75 6.75 0 0 1 -4.23 1.15 11.29 11.29 0 0 1 -2.17-.18 7.35 7.35 0 0 1 -1.92-.69v-1.58a9 9 0 0 0 2.08.73 9.2 9.2 0 0 0 2.09.27c2.59 0 3.89-1 3.88-3.05q0-2.73-4.28-2.73h-1.49v-1.46h1.5a4.51 4.51 0 0 0 2.78-.76 2.54 2.54 0 0 0 1-2.15 2.14 2.14 0 0 0 -.75-1.72 3.13 3.13 0 0 0 -2-.62 6.08 6.08 0 0 0 -1.85.26 8.32 8.32 0 0 0 -2 1l-.89-1.19a7.21 7.21 0 0 1 2.13-1.15 8.14 8.14 0 0 1 2.54-.43 5.16 5.16 0 0 1 3.39 1 3.38 3.38 0 0 1 1.21 2.72z"/><path d="m22.53 144.69a10.91 10.91 0 0 1 -1.23 5.8 4.54 4.54 0 0 1 -6.3 1.12 4.58 4.58 0 0 1 -1.12-1.12 10.7 10.7 0 0 1 -1.26-5.76 11.05 11.05 0 0 1 1.22-5.81 4.53 4.53 0 0 1 6.32-1.06 4.63 4.63 0 0 1 1.1 1.14 10.54 10.54 0 0 1 1.27 5.69zm-8.2 0a10.92 10.92 0 0 0 .77 4.76 2.77 2.77 0 0 0 4.92 0 15.18 15.18 0 0 0 -.02-9.45 2.78 2.78 0 0 0 -4.92 0 11 11 0 0 0 -.75 4.69z"/><path d="m30.75 141.69a6.47 6.47 0 0 1 -.78 3.53 2.6 2.6 0 0 1 -2.31 1.19 2.51 2.51 0 0 1 -2.23-1.22 6.38 6.38 0 0 1 -.79-3.5 6.5 6.5 0 0 1 .76-3.51 2.53 2.53 0 0 1 2.26-1.18 2.57 2.57 0 0 1 2.34 1.22 6.37 6.37 0 0 1 .75 3.47zm-4.7 0a7 7 0 0 0 .38 2.61 1.31 1.31 0 0 0 1.23.87c1.13 0 1.69-1.16 1.69-3.48s-.56-3.47-1.69-3.47a1.28 1.28 0 0 0 -1.23.86 7 7 0 0 0 -.38 2.61zm11.09-4.48-8.32 15h-1.5l8.31-15zm2.64 10.48a6.47 6.47 0 0 1 -.78 3.53 2.6 2.6 0 0 1 -2.3 1.19 2.53 2.53 0 0 1 -2.24-1.22 8.24 8.24 0 0 1 0-7 2.49 2.49 0 0 1 2.26-1.19 2.59 2.59 0 0 1 2.27 1.2 6.23 6.23 0 0 1 .79 3.48zm-4.7 0a6.67 6.67 0 0 0 .38 2.62 1.27 1.27 0 0 0 1.24.87 1.33 1.33 0 0 0 1.27-.86 6.37 6.37 0 0 0 .41-2.63 6.23 6.23 0 0 0 -.41-2.6 1.34 1.34 0 0 0 -1.27-.84 1.27 1.27 0 0 0 -1.24.84 6.58 6.58 0 0 0 -.38 2.6z"/><path d="m11.15 49h-2.23v3.45h-1.63v-3.45h-7.29v-1.48l7.12-10.14h1.8v10.08h2.23zm-3.86-1.54v-5c0-1 0-2.08.1-3.31h-.08a14.5 14.5 0 0 1 -.92 1.63l-4.69 6.66z"/><path d="m22.53 44.94a10.91 10.91 0 0 1 -1.23 5.8 4.54 4.54 0 0 1 -6.3 1.12 4.58 4.58 0 0 1 -1.12-1.12 10.7 10.7 0 0 1 -1.27-5.74 11.05 11.05 0 0 1 1.22-5.81 4.53 4.53 0 0 1 6.32-1.06 4.63 4.63 0 0 1 1.11 1.14 10.54 10.54 0 0 1 1.27 5.69zm-8.2 0a10.92 10.92 0 0 0 .77 4.76 2.77 2.77 0 0 0 4.92 0 15.18 15.18 0 0 0 0-9.47 2.78 2.78 0 0 0 -4.92 0 11 11 0 0 0 -.77 4.71z"/><path d="m30.75 41.94a6.47 6.47 0 0 1 -.75 3.53 2.6 2.6 0 0 1 -2.31 1.19 2.51 2.51 0 0 1 -2.23-1.22 6.38 6.38 0 0 1 -.79-3.5 6.5 6.5 0 0 1 .76-3.51 2.53 2.53 0 0 1 2.26-1.18 2.57 2.57 0 0 1 2.31 1.22 6.37 6.37 0 0 1 .8 3.47zm-4.7 0a7 7 0 0 0 .38 2.61 1.31 1.31 0 0 0 1.23.87c1.13 0 1.69-1.16 1.69-3.48s-.56-3.47-1.69-3.47a1.28 1.28 0 0 0 -1.23.86 7 7 0 0 0 -.38 2.61zm11.09-4.48-8.32 15h-1.5l8.31-15zm2.64 10.48a6.47 6.47 0 0 1 -.78 3.53 2.6 2.6 0 0 1 -2.3 1.19 2.53 2.53 0 0 1 -2.24-1.22 8.24 8.24 0 0 1 0-7 2.49 2.49 0 0 1 2.26-1.18 2.59 2.59 0 0 1 2.28 1.2 6.23 6.23 0 0 1 .78 3.48zm-4.7 0a6.67 6.67 0 0 0 .38 2.62 1.27 1.27 0 0 0 1.24.87 1.33 1.33 0 0 0 1.3-.86 6.37 6.37 0 0 0 .41-2.63 6.23 6.23 0 0 0 -.41-2.6 1.34 1.34 0 0 0 -1.27-.84 1.27 1.27 0 0 0 -1.24.84 6.58 6.58 0 0 0 -.38 2.6z"/><path d="m50.68 440.41h628.6" fill="none" stroke="#cbcbcb" stroke-miterlimit="10"/><path d="m50.68 340.66h628.6" fill="none" stroke="#cbcbcb" stroke-miterlimit="10"/><path d="m50.68 240.91h628.6" fill="none" stroke="#cbcbcb" stroke-miterlimit="10"/><path d="m50.68 141.16h628.6" fill="none" stroke="#cbcbcb" stroke-miterlimit="10"/><path d="m50.68 41.41h628.6" fill="none" stroke="#cbcbcb" stroke-miterlimit="10"/><path d="m50.68 0h39.32v37.41h-39.32z" fill="#444"/><path d="m151.26 400.51h32.33v39.9h-32.33z" fill="#444"/><path d="m241.06 400.51h32.33v39.9h-32.33z" fill="#444"/><path d="m330.86 350.63h32.33v89.77h-32.33z" fill="#444"/><path d="m420.65 280.81h32.35v159.6h-32.35z" fill="#444"/><path d="m510.45 61.36h32.33v379.05h-32.33z" fill="#444"/><path d="m600.25 151.13h32.33v289.27h-32.33z" fill="#444"/><g fill="#fad978"><path d="m207.83 0h39.29v37.41h-39.29z"/><path d="m97.38 430.43h32.33v10h-32.33z"/><path d="m187.18 380.56h32.33v59.85h-32.33z"/><path d="m277 310.73h32.33v129.67h-32.33z"/><path d="m366.78 290.78h32.33v149.63h-32.33z"/><path d="m456.57 111.23h32.33v329.18h-32.33z"/><path d="m546.37 240.91h32.33v199.5h-32.33z"/><path d="m636.17 330.68h32.33v109.73h-32.33z"/></g><path d="m265.8 29.75h-2l-8.19-12.58h-.08c.11 1.48.16 2.83.16 4.06v8.52h-1.61v-15h2l8.17 12.53h.08c0-.18 0-.78-.09-1.78a17.07 17.07 0 0 1 -.05-2.15v-8.6h1.63z"/><path d="m279.37 24.12a6.18 6.18 0 0 1 -1.37 4.29 4.87 4.87 0 0 1 -3.84 1.59 5.06 5.06 0 0 1 -2.68-.71 4.65 4.65 0 0 1 -1.8-2 6.9 6.9 0 0 1 -.64-3.1 6.26 6.26 0 0 1 1.37-4.28 4.87 4.87 0 0 1 3.82-1.53 4.73 4.73 0 0 1 3.77 1.53 6.18 6.18 0 0 1 1.37 4.21zm-8.57 0a5.29 5.29 0 0 0 .87 3.28 3.42 3.42 0 0 0 5.07 0 5.32 5.32 0 0 0 .86-3.29 5.2 5.2 0 0 0 -.86-3.25 3.07 3.07 0 0 0 -2.56-1.11 3 3 0 0 0 -2.53 1.09 5.33 5.33 0 0 0 -.85 3.27z"/><path d="m290 29.75v-7.27a2.92 2.92 0 0 0 -.63-2.05 2.54 2.54 0 0 0 -2-.67 3.22 3.22 0 0 0 -2.59.95 4.82 4.82 0 0 0 -.82 3.15v5.89h-1.7v-11.24h1.38l.28 1.54h.08a3.5 3.5 0 0 1 1.47-1.28 4.73 4.73 0 0 1 2.1-.46 4.31 4.31 0 0 1 3.06 1 4.15 4.15 0 0 1 1 3.13v7.33z"/><path d="m294.3 24.9v-1.56h5v1.56z"/><path d="m307.06 19.84h-2.86v9.91h-1.67v-9.91h-2v-.77l2-.62v-.62c0-2.76 1.21-4.15 3.62-4.15a7.45 7.45 0 0 1 2.09.36l-.44 1.37a5.68 5.68 0 0 0 -1.68-.32 1.66 1.66 0 0 0 -1.43.64 3.52 3.52 0 0 0 -.46 2.06v.72h2.86z"/><path d="m313.86 30a5.18 5.18 0 0 1 -3.93-1.52 5.89 5.89 0 0 1 -1.44-4.21 6.47 6.47 0 0 1 1.34-4.32 4.43 4.43 0 0 1 3.59-1.6 4.23 4.23 0 0 1 3.34 1.39 5.35 5.35 0 0 1 1.24 3.62v1.08h-7.74a4.46 4.46 0 0 0 1 3 3.45 3.45 0 0 0 2.67 1 8.86 8.86 0 0 0 3.59-.76v1.52a8.56 8.56 0 0 1 -1.71.56 9.75 9.75 0 0 1 -1.94.2zm-.46-10.23a2.8 2.8 0 0 0 -2.16.89 4 4 0 0 0 -.95 2.44h5.88a3.71 3.71 0 0 0 -.72-2.47 2.53 2.53 0 0 0 -2.05-.9z"/><path d="m328.53 28.25h-.09a4 4 0 0 1 -3.53 1.75 4.15 4.15 0 0 1 -3.43-1.51 8.17 8.17 0 0 1 0-8.6 4.12 4.12 0 0 1 3.42-1.54 4.06 4.06 0 0 1 3.51 1.65h.12l-.07-.81v-5.39h1.7v16h-1.38zm-3.4.28a3.08 3.08 0 0 0 2.53-1 4.8 4.8 0 0 0 .78-3.06v-.36a5.66 5.66 0 0 0 -.79-3.41 3 3 0 0 0 -2.54-1 2.59 2.59 0 0 0 -2.29 1.17 5.72 5.72 0 0 0 -.8 3.28 5.65 5.65 0 0 0 .79 3.26 2.67 2.67 0 0 0 2.33 1.12z"/><path d="m338.53 30a5.18 5.18 0 0 1 -3.93-1.52 5.89 5.89 0 0 1 -1.44-4.21 6.47 6.47 0 0 1 1.34-4.32 4.43 4.43 0 0 1 3.59-1.6 4.23 4.23 0 0 1 3.34 1.39 5.35 5.35 0 0 1 1.23 3.66v1.08h-7.74a4.53 4.53 0 0 0 1 3 3.45 3.45 0 0 0 2.67 1 8.86 8.86 0 0 0 3.59-.76v1.48a8.56 8.56 0 0 1 -1.71.56 9.75 9.75 0 0 1 -1.94.2zm-.46-10.23a2.8 2.8 0 0 0 -2.16.89 4 4 0 0 0 -1 2.44h5.88a3.71 3.71 0 0 0 -.72-2.47 2.54 2.54 0 0 0 -2.07-.86z"/><path d="m350.67 18.31a7.5 7.5 0 0 1 1.34.12l-.23 1.57a6.36 6.36 0 0 0 -1.23-.15 3 3 0 0 0 -2.33 1.15 4 4 0 0 0 -1 2.75v6h-1.69v-11.24h1.41l.19 2.09h.09a4.81 4.81 0 0 1 1.5-1.7 3.49 3.49 0 0 1 1.95-.59z"/><path d="m361 29.75-.34-1.6h-.08a4.74 4.74 0 0 1 -1.68 1.43 5.14 5.14 0 0 1 -2.09.38 3.77 3.77 0 0 1 -2.62-.86 3.16 3.16 0 0 1 -.94-2.45q0-3.41 5.44-3.57l1.91-.06v-.7a2.83 2.83 0 0 0 -.57-2 2.36 2.36 0 0 0 -1.82-.64 7.38 7.38 0 0 0 -3.18.87l-.52-1.31a8.4 8.4 0 0 1 3.8-1 4.31 4.31 0 0 1 3 .89 3.73 3.73 0 0 1 1 2.86v7.67zm-3.85-1.2a3.47 3.47 0 0 0 2.5-.87 3.26 3.26 0 0 0 .91-2.44v-1l-1.71.07a6.28 6.28 0 0 0 -2.92.63 1.89 1.89 0 0 0 -.9 1.74 1.76 1.76 0 0 0 .56 1.4 2.32 2.32 0 0 0 1.56.5z"/><path d="m369.43 28.58a6.36 6.36 0 0 0 .87-.06 5.18 5.18 0 0 0 .66-.14v1.3a3.24 3.24 0 0 1 -.81.22 5.55 5.55 0 0 1 -1 .09c-2.17 0-3.25-1.15-3.26-3.44v-6.68h-1.61v-.82l1.61-.71.72-2.4h1v2.6h3.26v1.33h-3.26v6.61a2.25 2.25 0 0 0 .48 1.56 1.7 1.7 0 0 0 1.34.54z"/><path d="m378 30a5.18 5.18 0 0 1 -4-1.56 5.85 5.85 0 0 1 -1.45-4.21 6.52 6.52 0 0 1 1.34-4.32 4.42 4.42 0 0 1 3.6-1.6 4.23 4.23 0 0 1 3.34 1.39 5.35 5.35 0 0 1 1.23 3.66v1.08h-7.74a4.46 4.46 0 0 0 1 3 3.45 3.45 0 0 0 2.67 1 8.86 8.86 0 0 0 3.59-.76v1.52a8.56 8.56 0 0 1 -1.71.56 9.75 9.75 0 0 1 -1.87.24zm-.43-10.23a2.75 2.75 0 0 0 -2.16.89 4 4 0 0 0 -.95 2.44h5.87a3.75 3.75 0 0 0 -.76-2.48 2.54 2.54 0 0 0 -2-.85z"/><path d="m392.64 28.25h-.11a4 4 0 0 1 -3.53 1.75 4.15 4.15 0 0 1 -3.43-1.51 6.64 6.64 0 0 1 -1.22-4.29 6.68 6.68 0 0 1 1.23-4.31 4.55 4.55 0 0 1 6.42-.41 4.23 4.23 0 0 1 .51.53h.13l-.07-.81v-5.4h1.7v16h-1.38zm-3.4.28a3.06 3.06 0 0 0 2.52-1 4.74 4.74 0 0 0 .79-3.06v-.36a5.67 5.67 0 0 0 -.8-3.41 3 3 0 0 0 -2.53-1 2.62 2.62 0 0 0 -2.3 1.17 5.79 5.79 0 0 0 -.79 3.28 5.57 5.57 0 0 0 .79 3.26 2.69 2.69 0 0 0 2.32 1.12z"/><path d="m98.69 29.75h-1.75v-15h8.36v1.55h-6.61v5.49h6.21v1.54h-6.21z"/><path d="m112.27 30a5.18 5.18 0 0 1 -3.93-1.52 5.89 5.89 0 0 1 -1.44-4.21 6.47 6.47 0 0 1 1.34-4.32 4.43 4.43 0 0 1 3.59-1.6 4.23 4.23 0 0 1 3.34 1.39 5.35 5.35 0 0 1 1.23 3.66v1.08h-7.74a4.53 4.53 0 0 0 1 3 3.45 3.45 0 0 0 2.67 1 8.86 8.86 0 0 0 3.59-.76v1.48a8.56 8.56 0 0 1 -1.71.56 9.75 9.75 0 0 1 -1.94.2zm-.46-10.23a2.8 2.8 0 0 0 -2.16.89 4 4 0 0 0 -1 2.44h5.88a3.71 3.71 0 0 0 -.72-2.47 2.54 2.54 0 0 0 -2-.9z"/><path d="m127 28.25h-.1a4 4 0 0 1 -3.56 1.75 4.15 4.15 0 0 1 -3.43-1.51 6.63 6.63 0 0 1 -1.23-4.29 6.68 6.68 0 0 1 1.23-4.31 4.14 4.14 0 0 1 3.43-1.54 4.07 4.07 0 0 1 3.5 1.66h.16l-.08-.81v-5.4h1.63v16h-1.39zm-3.43.33a3.08 3.08 0 0 0 2.53-.95 4.8 4.8 0 0 0 .78-3.06v-.36a5.66 5.66 0 0 0 -.79-3.41 3 3 0 0 0 -2.54-1 2.59 2.59 0 0 0 -2.33 1.2 5.72 5.72 0 0 0 -.8 3.28 5.65 5.65 0 0 0 .79 3.26 2.67 2.67 0 0 0 2.32 1.07z"/><path d="m136.92 30a5.18 5.18 0 0 1 -3.92-1.56 5.89 5.89 0 0 1 -1.44-4.21 6.47 6.47 0 0 1 1.34-4.32 4.43 4.43 0 0 1 3.59-1.6 4.23 4.23 0 0 1 3.34 1.39 5.35 5.35 0 0 1 1.23 3.66v1.08h-7.74a4.53 4.53 0 0 0 1 3 3.5 3.5 0 0 0 2.67 1 8.86 8.86 0 0 0 3.59-.76v1.52a8.56 8.56 0 0 1 -1.71.56 9.75 9.75 0 0 1 -1.94.2zm-.46-10.23a2.8 2.8 0 0 0 -2.16.89 4.15 4.15 0 0 0 -1 2.44h5.88a3.75 3.75 0 0 0 -.65-2.48 2.55 2.55 0 0 0 -2.07-.89z"/><path d="m149.08 18.31a7.61 7.61 0 0 1 1.35.12l-.24 1.57a6.36 6.36 0 0 0 -1.23-.15 3 3 0 0 0 -2.33 1.15 4 4 0 0 0 -1 2.75v6h-1.7v-11.24h1.4l.2 2.07h.08a4.84 4.84 0 0 1 1.51-1.7 3.33 3.33 0 0 1 1.96-.57z"/><path d="m159.44 29.75-.34-1.6h-.1a4.74 4.74 0 0 1 -1.68 1.43 5.12 5.12 0 0 1 -2.08.38 3.73 3.73 0 0 1 -2.62-.86 3.12 3.12 0 0 1 -1-2.45q0-3.41 5.44-3.57l1.94-.08v-.7a2.83 2.83 0 0 0 -.57-2 2.36 2.36 0 0 0 -1.82-.64 7.38 7.38 0 0 0 -3.18.87l-.52-1.31a8.4 8.4 0 0 1 3.8-1 4.31 4.31 0 0 1 3 .89 3.73 3.73 0 0 1 1 2.86v7.67zm-3.85-1.2a3.47 3.47 0 0 0 2.5-.87 3.17 3.17 0 0 0 .91-2.44v-1l-1.7.07a6.32 6.32 0 0 0 -2.93.63 1.89 1.89 0 0 0 -.9 1.74 1.76 1.76 0 0 0 .56 1.4 2.32 2.32 0 0 0 1.56.5z"/><path d="m167.84 28.58a6.36 6.36 0 0 0 .87-.06 2.17 2.17 0 0 0 .67-.14v1.3a3.31 3.31 0 0 1 -.82.22 5.55 5.55 0 0 1 -1 .09q-3.26 0-3.26-3.44v-6.68h-1.61v-.82l1.61-.71.72-2.4h1v2.6h3.26v1.33h-3.28v6.61a2.25 2.25 0 0 0 .48 1.56 1.71 1.71 0 0 0 1.36.54z"/><path d="m176.37 30a5.18 5.18 0 0 1 -3.93-1.52 5.89 5.89 0 0 1 -1.44-4.25 6.53 6.53 0 0 1 1.33-4.32 4.46 4.46 0 0 1 3.6-1.6 4.23 4.23 0 0 1 3.34 1.39 5.35 5.35 0 0 1 1.23 3.66v1.08h-7.74a4.46 4.46 0 0 0 1 3 3.45 3.45 0 0 0 2.67 1 8.86 8.86 0 0 0 3.59-.76v1.52a8.56 8.56 0 0 1 -1.71.56 9.75 9.75 0 0 1 -1.94.2zm-.46-10.23a2.8 2.8 0 0 0 -2.16.89 4 4 0 0 0 -1 2.44h5.88a3.71 3.71 0 0 0 -.72-2.47 2.54 2.54 0 0 0 -2-.9z"/><path d="m191.05 28.25h-.05a4 4 0 0 1 -3.57 1.75 4.15 4.15 0 0 1 -3.43-1.55 8.17 8.17 0 0 1 0-8.6 4.12 4.12 0 0 1 3.42-1.54 4.06 4.06 0 0 1 3.51 1.69h.13l-.07-.81v-5.39h1.7v16h-1.38zm-3.4.28a3.08 3.08 0 0 0 2.53-1 4.8 4.8 0 0 0 .78-3.06v-.36a5.66 5.66 0 0 0 -.79-3.41 3 3 0 0 0 -2.54-1 2.59 2.59 0 0 0 -2.29 1.17 5.72 5.72 0 0 0 -.8 3.28 5.57 5.57 0 0 0 .79 3.26 2.69 2.69 0 0 0 2.32 1.12z"/><path d="m95.29 467.93h-1.66v-10.69c0-.89 0-1.73.08-2.52l-.48.45c-.18.16-1 .83-2.44 2l-.9-1.17 4-3.06h1.44z"/><path d="m187.22 467.93h-9.86v-1.47l3.95-4a27.89 27.89 0 0 0 2.38-2.6 6.91 6.91 0 0 0 .86-1.52 4.56 4.56 0 0 0 .29-1.59 2.53 2.53 0 0 0 -.73-1.9 2.78 2.78 0 0 0 -2-.7 5.35 5.35 0 0 0 -1.77.3 7.2 7.2 0 0 0 -1.86 1.12l-.9-1.16a6.89 6.89 0 0 1 4.51-1.72 4.75 4.75 0 0 1 3.31 1.08 3.72 3.72 0 0 1 1.2 2.91 5.61 5.61 0 0 1 -.8 2.82 17.76 17.76 0 0 1 -3 3.53l-3.27 3.24v.08h7.71z"/><path d="m280.53 456.46a3.36 3.36 0 0 1 -.81 2.35 4 4 0 0 1 -2.28 1.22v.08a4.32 4.32 0 0 1 2.68 1.15 3.37 3.37 0 0 1 .87 2.42 3.93 3.93 0 0 1 -1.49 3.3 6.72 6.72 0 0 1 -4.22 1.15 11.39 11.39 0 0 1 -2.18-.18 7.66 7.66 0 0 1 -1.93-.63v-1.62a9 9 0 0 0 2.08.73 9.2 9.2 0 0 0 2.09.26c2.59 0 3.89-1 3.88-3.05 0-1.82-1.42-2.73-4.28-2.73h-1.48v-1.46h1.54a4.51 4.51 0 0 0 2.78-.78 2.54 2.54 0 0 0 1-2.15 2.14 2.14 0 0 0 -.75-1.72 3.13 3.13 0 0 0 -2.05-.62 6.78 6.78 0 0 0 -1.85.26 8.32 8.32 0 0 0 -2 1l-.86-1.15a6.8 6.8 0 0 1 2.12-1.14 7.87 7.87 0 0 1 2.54-.42 5.17 5.17 0 0 1 3.4 1 3.39 3.39 0 0 1 1.24 2.73z"/><path d="m370.14 464.48h-2.23v3.45h-1.63v-3.45h-7.28v-1.48l7.12-10.15h1.8v10.08h2.23zm-3.86-1.55v-5c0-1 0-2.08.1-3.31h-.08a14.5 14.5 0 0 1 -.92 1.63l-4.69 6.66z"/><path d="m458.09 458.77a5.53 5.53 0 0 1 3.73 1.17 4 4 0 0 1 1.36 3.22 4.65 4.65 0 0 1 -1.48 3.65 5.9 5.9 0 0 1 -4.09 1.32 7.48 7.48 0 0 1 -3.86-.81v-1.64a5.75 5.75 0 0 0 1.78.72 8.75 8.75 0 0 0 2.1.26 4.22 4.22 0 0 0 2.81-.85 3 3 0 0 0 1-2.46c0-2.09-1.29-3.13-3.85-3.13a16.29 16.29 0 0 0 -2.6.29l-.88-.56.56-7h7.45v1.56h-6l-.38 4.51a11.58 11.58 0 0 1 2.35-.25z"/><path d="m542 461.52c0-2.95.57-5.16 1.72-6.61a6 6 0 0 1 5.08-2.19 7.46 7.46 0 0 1 1.82.19v1.47a5.77 5.77 0 0 0 -1.8-.26 4.55 4.55 0 0 0 -3.68 1.51 7.73 7.73 0 0 0 -1.4 4.72h.13a3.92 3.92 0 0 1 3.57-1.77 4.19 4.19 0 0 1 3.18 1.23 4.58 4.58 0 0 1 1.16 3.31 5.1 5.1 0 0 1 -1.27 3.67 4.54 4.54 0 0 1 -3.45 1.34 4.41 4.41 0 0 1 -3.7-1.75 7.64 7.64 0 0 1 -1.36-4.86zm5 5.17a2.86 2.86 0 0 0 2.27-.92 4 4 0 0 0 .8-2.65 3.41 3.41 0 0 0 -.75-2.34 2.82 2.82 0 0 0 -2.23-.85 3.67 3.67 0 0 0 -1.69.38 3.07 3.07 0 0 0 -1.23 1 2.48 2.48 0 0 0 -.46 1.39 4.75 4.75 0 0 0 .41 2 3.5 3.5 0 0 0 1.17 1.44 2.86 2.86 0 0 0 1.74.55z"/><path d="m632.06 467.93 6.22-13.43h-8.18v-1.56h10v1.36l-6.1 13.63z"/><g fill="#333"><path d="m107.4 411.64v12.85h-1.4v-9.16c0-.76 0-1.48.07-2.16l-.41.39c-.15.14-.85.71-2.09 1.71l-.78-1 3.4-2.63zm6.14 3.83a6 6 0 0 0 .32 2.24 1.1 1.1 0 0 0 1.06.75c1 0 1.44-1 1.44-3s-.48-3-1.44-3a1.1 1.1 0 0 0 -1.06.74 6 6 0 0 0 -.32 2.27zm4 0a5.53 5.53 0 0 1 -.67 3 2.21 2.21 0 0 1 -2 1 2.14 2.14 0 0 1 -1.91-1 5.47 5.47 0 0 1 -.69-3 5.56 5.56 0 0 1 .66-3 2.16 2.16 0 0 1 1.94-1 2.22 2.22 0 0 1 2 1 5.48 5.48 0 0 1 .69 3zm3.71 5.15a5.79 5.79 0 0 0 .33 2.25 1.08 1.08 0 0 0 1.06.74 1.14 1.14 0 0 0 1.09-.73 5.57 5.57 0 0 0 .35-2.26 5.47 5.47 0 0 0 -.35-2.23 1.15 1.15 0 0 0 -1.09-.72 1.09 1.09 0 0 0 -1.06.72 5.71 5.71 0 0 0 -.31 2.23zm4 0a5.49 5.49 0 0 1 -.68 3 2.19 2.19 0 0 1 -2 1 2.15 2.15 0 0 1 -1.92-1.05 5.56 5.56 0 0 1 -.67-3 5.66 5.66 0 0 1 .65-3 2.18 2.18 0 0 1 1.94-1 2.25 2.25 0 0 1 2 1 5.27 5.27 0 0 1 .74 3.05zm-3.56-9h1.31l-7.13 12.85h-1.29z"/><path d="m190.54 367.8a9.15 9.15 0 0 1 1.47-5.67 5.24 5.24 0 0 1 4.36-1.87 6.32 6.32 0 0 1 1.56.16v1.26a5.22 5.22 0 0 0 -1.55-.22 3.88 3.88 0 0 0 -3.15 1.3 6.69 6.69 0 0 0 -1.2 4h.11a3.35 3.35 0 0 1 3.06-1.51 3.6 3.6 0 0 1 2.73 1 4 4 0 0 1 1 2.84 4.36 4.36 0 0 1 -1.09 3.15 3.89 3.89 0 0 1 -3 1.15 3.81 3.81 0 0 1 -3.16-1.5 6.63 6.63 0 0 1 -1.17-4.17zm4.31 4.43a2.42 2.42 0 0 0 1.94-.79 3.33 3.33 0 0 0 .69-2.27 2.94 2.94 0 0 0 -.64-2 2.42 2.42 0 0 0 -1.92-.73 3.22 3.22 0 0 0 -1.45.33 2.72 2.72 0 0 0 -1.05.9 2.08 2.08 0 0 0 -.39 1.18 4.12 4.12 0 0 0 .35 1.69 3.09 3.09 0 0 0 1 1.24 2.49 2.49 0 0 0 1.47.46zm7.08-8a6 6 0 0 0 .32 2.24 1.11 1.11 0 0 0 1.06.75c1 0 1.44-1 1.44-3s-.48-3-1.44-3a1.11 1.11 0 0 0 -1.06.74 6 6 0 0 0 -.32 2.31zm4 0a5.53 5.53 0 0 1 -.67 3 2.2 2.2 0 0 1 -2 1 2.15 2.15 0 0 1 -1.91-1 5.47 5.47 0 0 1 -.69-3 5.56 5.56 0 0 1 .66-3 2.17 2.17 0 0 1 1.94-1 2.22 2.22 0 0 1 2 1 5.4 5.4 0 0 1 .68 3zm3.71 5.15a5.79 5.79 0 0 0 .33 2.25 1.09 1.09 0 0 0 1.06.74 1.13 1.13 0 0 0 1.09-.73 5.4 5.4 0 0 0 .35-2.26 5.3 5.3 0 0 0 -.35-2.23 1.14 1.14 0 0 0 -1.09-.72 1.1 1.1 0 0 0 -1.06.72 5.71 5.71 0 0 0 -.33 2.23zm4 0a5.4 5.4 0 0 1 -.68 3 2.18 2.18 0 0 1 -2 1 2.15 2.15 0 0 1 -1.92-1.05 7.15 7.15 0 0 1 0-6 2.18 2.18 0 0 1 1.94-1 2.23 2.23 0 0 1 1.95 1 5.27 5.27 0 0 1 .77 3.09zm-3.56-9h1.29l-7.13 12.85h-1.24z"/><path d="m284.73 288.5v12.85h-1.42v-9.16c0-.76 0-1.48.07-2.16l-.41.39c-.15.14-.85.71-2.09 1.71l-.78-1 3.4-2.63zm12.85 3a3 3 0 0 1 -.69 2 3.42 3.42 0 0 1 -1.95 1v.07a3.78 3.78 0 0 1 2.29 1 2.89 2.89 0 0 1 .75 2.07 3.37 3.37 0 0 1 -1.28 2.83 5.78 5.78 0 0 1 -3.62 1 9.88 9.88 0 0 1 -1.87-.16 6.31 6.31 0 0 1 -1.64-.54v-1.39a7.52 7.52 0 0 0 1.78.63 7.66 7.66 0 0 0 1.78.22c2.23 0 3.34-.87 3.34-2.61q0-2.34-3.68-2.34h-1.26v-1.26h1.28a3.89 3.89 0 0 0 2.38-.66 2.17 2.17 0 0 0 .88-1.84 1.84 1.84 0 0 0 -.65-1.48 2.63 2.63 0 0 0 -1.75-.54 5.51 5.51 0 0 0 -1.59.23 7.49 7.49 0 0 0 -1.71.85l-.73-1a6.35 6.35 0 0 1 1.82-1 6.87 6.87 0 0 1 2.18-.35 4.47 4.47 0 0 1 2.9.85 2.91 2.91 0 0 1 1 2.35zm3.58.81a6 6 0 0 0 .32 2.24 1.1 1.1 0 0 0 1.06.75c1 0 1.44-1 1.44-3s-.48-3-1.44-3a1.1 1.1 0 0 0 -1.06.74 6 6 0 0 0 -.32 2.29zm4 0a5.53 5.53 0 0 1 -.67 3 2.21 2.21 0 0 1 -2 1 2.14 2.14 0 0 1 -1.91-1 5.47 5.47 0 0 1 -.69-3 5.56 5.56 0 0 1 .66-3 2.16 2.16 0 0 1 1.94-1 2.22 2.22 0 0 1 2 1 5.48 5.48 0 0 1 .68 3zm3.71 5.15a5.79 5.79 0 0 0 .33 2.25 1.08 1.08 0 0 0 1.06.74 1.14 1.14 0 0 0 1.09-.73 5.57 5.57 0 0 0 .35-2.26 5.47 5.47 0 0 0 -.35-2.23 1.15 1.15 0 0 0 -1.09-.72 1.09 1.09 0 0 0 -1.06.72 5.71 5.71 0 0 0 -.33 2.23zm4 0a5.49 5.49 0 0 1 -.68 3 2.19 2.19 0 0 1 -2 1 2.15 2.15 0 0 1 -1.92-1 5.56 5.56 0 0 1 -.67-3 5.66 5.66 0 0 1 .65-3 2.18 2.18 0 0 1 1.94-1 2.25 2.25 0 0 1 2 1 5.27 5.27 0 0 1 .74 3.02zm-3.56-9h1.29l-7.13 12.85h-1.29z"/><path d="m373.67 269.52v12.85h-1.42v-9.16c0-.76 0-1.48.07-2.16l-.41.39-2.09 1.71-.78-1 3.4-2.63zm8.91 5a4.66 4.66 0 0 1 3.19 1 3.44 3.44 0 0 1 1.16 2.75 4 4 0 0 1 -1.27 3.13 5.05 5.05 0 0 1 -3.5 1.14 6.44 6.44 0 0 1 -3.31-.7v-1.4a5.14 5.14 0 0 0 1.53.61 7.53 7.53 0 0 0 1.8.23 3.62 3.62 0 0 0 2.4-.73 2.63 2.63 0 0 0 .86-2.11c0-1.8-1.1-2.69-3.3-2.69a12.27 12.27 0 0 0 -2.23.26l-.75-.49.48-6h6.36v1.35h-5.14l-.33 3.85a9.88 9.88 0 0 1 2-.2zm7.52-1.17a5.83 5.83 0 0 0 .32 2.24 1.1 1.1 0 0 0 1.06.75c1 0 1.44-1 1.44-3s-.48-3-1.44-3a1.09 1.09 0 0 0 -1.06.74 5.94 5.94 0 0 0 -.32 2.27zm4 0a5.62 5.62 0 0 1 -.67 3 2.22 2.22 0 0 1 -2 1 2.16 2.16 0 0 1 -1.91-1 7 7 0 0 1 0-6 2.14 2.14 0 0 1 1.94-1 2.21 2.21 0 0 1 2 1 5.48 5.48 0 0 1 .68 3zm3.71 5.15a5.86 5.86 0 0 0 .33 2.25 1.09 1.09 0 0 0 1.06.74 1.17 1.17 0 0 0 1.09-.73 5.63 5.63 0 0 0 .35-2.26 5.44 5.44 0 0 0 -.35-2.23 1.16 1.16 0 0 0 -1.09-.72 1.08 1.08 0 0 0 -1.06.72 5.68 5.68 0 0 0 -.33 2.23zm4 0a5.51 5.51 0 0 1 -.68 3 2.23 2.23 0 0 1 -2 1 2.13 2.13 0 0 1 -1.92-1.05 7.15 7.15 0 0 1 0-6 2.15 2.15 0 0 1 1.94-1 2.23 2.23 0 0 1 1.95 1 5.33 5.33 0 0 1 .77 3.05zm-3.56-9h1.29l-7.13 12.85h-1.29z"/><path d="m464.17 93.66a3 3 0 0 1 -.69 2 3.42 3.42 0 0 1 -2 1v.07a3.75 3.75 0 0 1 2.3 1 2.89 2.89 0 0 1 .75 2.07 3.37 3.37 0 0 1 -1.28 2.83 5.8 5.8 0 0 1 -3.62 1 9.8 9.8 0 0 1 -1.87-.16 6.38 6.38 0 0 1 -1.65-.54v-1.39a8.49 8.49 0 0 0 3.56.85c2.23 0 3.34-.87 3.34-2.61q0-2.34-3.67-2.34h-1.27v-1.22h1.28a3.87 3.87 0 0 0 2.38-.66 2.18 2.18 0 0 0 .88-1.84 1.82 1.82 0 0 0 -.64-1.48 2.65 2.65 0 0 0 -1.75-.54 5.51 5.51 0 0 0 -1.59.23 7.1 7.1 0 0 0 -1.71.85l-.73-1a6.22 6.22 0 0 1 1.82-1 6.78 6.78 0 0 1 2.18-.35 4.39 4.39 0 0 1 2.89.85 2.87 2.87 0 0 1 1.05 2.35zm10.28 0a3 3 0 0 1 -.69 2 3.42 3.42 0 0 1 -1.95 1v.07a3.72 3.72 0 0 1 2.29 1 2.89 2.89 0 0 1 .75 2.07 3.34 3.34 0 0 1 -1.28 2.83 5.76 5.76 0 0 1 -3.62 1 9.88 9.88 0 0 1 -1.87-.16 6.31 6.31 0 0 1 -1.64-.54v-1.39a8.49 8.49 0 0 0 3.56.85c2.23 0 3.34-.87 3.34-2.61 0-1.56-1.22-2.34-3.68-2.34h-1.26v-1.22h1.28a3.87 3.87 0 0 0 2.38-.66 2.18 2.18 0 0 0 .88-1.84 1.8 1.8 0 0 0 -.65-1.48 2.62 2.62 0 0 0 -1.75-.54 5.51 5.51 0 0 0 -1.59.23 7.1 7.1 0 0 0 -1.71.85l-.73-1a6.49 6.49 0 0 1 1.82-1 6.87 6.87 0 0 1 2.18-.35 4.4 4.4 0 0 1 2.9.85 2.87 2.87 0 0 1 1 2.35zm3.58.81a6 6 0 0 0 .32 2.24 1.11 1.11 0 0 0 1.06.75c1 0 1.44-1 1.44-3s-.48-3-1.44-3a1.11 1.11 0 0 0 -1.06.74 6 6 0 0 0 -.35 2.27zm4 0a5.53 5.53 0 0 1 -.67 3 2.2 2.2 0 0 1 -2 1 2.17 2.17 0 0 1 -1.91-1 7 7 0 0 1 0-6 2.17 2.17 0 0 1 1.94-1 2.22 2.22 0 0 1 2 1 5.4 5.4 0 0 1 .68 3zm3.71 5.15a5.79 5.79 0 0 0 .33 2.25 1.1 1.1 0 0 0 1.06.74 1.13 1.13 0 0 0 1.09-.73 5.43 5.43 0 0 0 .35-2.26 5.3 5.3 0 0 0 -.35-2.23 1.14 1.14 0 0 0 -1.09-.72 1.1 1.1 0 0 0 -1.06.72 5.71 5.71 0 0 0 -.31 2.23zm4 0a5.4 5.4 0 0 1 -.68 3 2.18 2.18 0 0 1 -2 1 2.15 2.15 0 0 1 -1.92-1 7.15 7.15 0 0 1 0-6 2.18 2.18 0 0 1 1.94-1 2.21 2.21 0 0 1 2 1 5.27 5.27 0 0 1 .72 3zm-3.56-9h1.29l-7.13 12.85h-1.29z"/><path d="m555.59 230.05v1.35h-8.45v-1.26l3.38-3.4a24.47 24.47 0 0 0 2-2.23 5.79 5.79 0 0 0 .74-1.3 3.58 3.58 0 0 0 .25-1.36 2.15 2.15 0 0 0 -.63-1.63 2.38 2.38 0 0 0 -1.73-.61 4.31 4.31 0 0 0 -1.52.27 6.44 6.44 0 0 0 -1.59 1l-.77-1a5.92 5.92 0 0 1 3.86-1.47 4.13 4.13 0 0 1 2.84.92 3.18 3.18 0 0 1 1 2.49 4.77 4.77 0 0 1 -.69 2.42 15.11 15.11 0 0 1 -2.56 3l-2.72 2.76v.07zm10.41-5.05a9.36 9.36 0 0 1 -1.05 5 3.57 3.57 0 0 1 -3.22 1.65 3.5 3.5 0 0 1 -3.15-1.69 9.18 9.18 0 0 1 -1.08-4.93 9.49 9.49 0 0 1 1-5 3.89 3.89 0 0 1 6.37.07 9.16 9.16 0 0 1 1.13 4.9zm-7 0a9.38 9.38 0 0 0 .66 4.08 2.37 2.37 0 0 0 4.22 0 13 13 0 0 0 0-8.12 2.38 2.38 0 0 0 -4.22 0 9.38 9.38 0 0 0 -.66 4.08zm10-2.62a6 6 0 0 0 .32 2.24 1.1 1.1 0 0 0 1.06.75c1 0 1.44-1 1.44-3s-.48-3-1.44-3a1.1 1.1 0 0 0 -1.06.74 6 6 0 0 0 -.32 2.27zm4 0a5.53 5.53 0 0 1 -.67 3 2.21 2.21 0 0 1 -2 1 2.14 2.14 0 0 1 -1.91-1 5.47 5.47 0 0 1 -.69-3 5.56 5.56 0 0 1 .66-3 2.16 2.16 0 0 1 1.94-1 2.22 2.22 0 0 1 2 1 5.48 5.48 0 0 1 .68 3zm3.71 5.15a5.79 5.79 0 0 0 .33 2.25 1.08 1.08 0 0 0 1.06.74 1.14 1.14 0 0 0 1.09-.73 5.57 5.57 0 0 0 .35-2.26 5.47 5.47 0 0 0 -.35-2.23 1.15 1.15 0 0 0 -1.09-.72 1.09 1.09 0 0 0 -1.06.72 5.71 5.71 0 0 0 -.33 2.23zm4 0a5.49 5.49 0 0 1 -.68 3 2.19 2.19 0 0 1 -2 1 2.15 2.15 0 0 1 -1.92-1.05 5.56 5.56 0 0 1 -.67-3 5.66 5.66 0 0 1 .65-3 2.18 2.18 0 0 1 1.94-1 2.25 2.25 0 0 1 1.95 1 5.27 5.27 0 0 1 .7 3zm-3.56-9h1.29l-7.13 12.85h-1.29z"/><path d="m641.48 311.49v12.85h-1.42v-9.16c0-.76 0-1.48.07-2.16l-.41.39-2.09 1.71-.78-1 3.4-2.63zm10.29 0v12.85h-1.42v-9.16c0-.76 0-1.48.07-2.16l-.41.39-2.09 1.71-.78-1 3.4-2.63zm6.14 3.83a5.83 5.83 0 0 0 .32 2.24 1.1 1.1 0 0 0 1.06.75c1 0 1.44-1 1.44-3s-.48-3-1.44-3a1.09 1.09 0 0 0 -1.06.74 5.74 5.74 0 0 0 -.32 2.27zm4 0a5.62 5.62 0 0 1 -.67 3 2.22 2.22 0 0 1 -2 1 2.16 2.16 0 0 1 -1.91-1 7 7 0 0 1 0-6 2.14 2.14 0 0 1 1.94-1 2.21 2.21 0 0 1 2 1 5.48 5.48 0 0 1 .68 3zm3.71 5.15a5.86 5.86 0 0 0 .33 2.25 1.09 1.09 0 0 0 1.06.74 1.17 1.17 0 0 0 1.09-.73 5.63 5.63 0 0 0 .35-2.26 5.44 5.44 0 0 0 -.35-2.23 1.16 1.16 0 0 0 -1.09-.72 1.08 1.08 0 0 0 -1.06.72 5.68 5.68 0 0 0 -.33 2.23zm4 0a5.51 5.51 0 0 1 -.68 3 2.23 2.23 0 0 1 -2 1 2.13 2.13 0 0 1 -1.92-1 7.15 7.15 0 0 1 0-6 2.15 2.15 0 0 1 1.94-1 2.23 2.23 0 0 1 2 1 5.33 5.33 0 0 1 .7 3zm-3.56-9h1.29l-7.13 12.85h-1.22z"/><path d="m163.47 391.42v1.33h-1.91v2.95h-1.39v-2.95h-6.25v-1.28l6.1-8.69h1.54v8.64zm-8.09 0h4.79v-4.27c0-.84 0-1.79.08-2.84h-.07a12.73 12.73 0 0 1 -.79 1.4zm10.62-4.74a6 6 0 0 0 .32 2.24 1.11 1.11 0 0 0 1.06.75c1 0 1.44-1 1.44-3s-.48-3-1.44-3a1.11 1.11 0 0 0 -1.06.74 6 6 0 0 0 -.32 2.27zm4 0a5.53 5.53 0 0 1 -.67 3 2.2 2.2 0 0 1 -2 1 2.17 2.17 0 0 1 -1.91-1 7 7 0 0 1 0-6 2.17 2.17 0 0 1 1.94-1 2.22 2.22 0 0 1 2 1 5.4 5.4 0 0 1 .68 3zm3.71 5.15a5.79 5.79 0 0 0 .33 2.25 1.1 1.1 0 0 0 1.06.74 1.13 1.13 0 0 0 1.09-.73 5.43 5.43 0 0 0 .35-2.26 5.3 5.3 0 0 0 -.35-2.23 1.14 1.14 0 0 0 -1.09-.72 1.1 1.1 0 0 0 -1.06.72 5.71 5.71 0 0 0 -.33 2.23zm4 0a5.42 5.42 0 0 1 -.68 3 2.18 2.18 0 0 1 -2 1 2.15 2.15 0 0 1 -1.92-1.05 7.15 7.15 0 0 1 0-6 2.18 2.18 0 0 1 1.94-1 2.21 2.21 0 0 1 1.95 1 5.27 5.27 0 0 1 .73 3.05zm-3.56-9h1.29l-7.13 12.85h-1.31z"/><path d="m253.41 391.42v1.33h-1.91v2.95h-1.39v-2.95h-6.25v-1.28l6.1-8.69h1.54v8.64zm-8.09 0h4.79v-4.27c0-.84 0-1.79.08-2.84h-.07a12.73 12.73 0 0 1 -.79 1.4zm10.58-4.74a6 6 0 0 0 .32 2.24 1.1 1.1 0 0 0 1.06.75c1 0 1.44-1 1.44-3s-.48-3-1.44-3a1.1 1.1 0 0 0 -1.06.74 6 6 0 0 0 -.32 2.27zm4 0a5.53 5.53 0 0 1 -.67 3 2.21 2.21 0 0 1 -2 1 2.16 2.16 0 0 1 -1.91-1 7 7 0 0 1 0-6 2.16 2.16 0 0 1 1.94-1 2.22 2.22 0 0 1 2 1 5.48 5.48 0 0 1 .68 3zm3.71 5.15a5.79 5.79 0 0 0 .33 2.25 1.1 1.1 0 0 0 1.06.74 1.14 1.14 0 0 0 1.09-.73 5.6 5.6 0 0 0 .35-2.26 5.47 5.47 0 0 0 -.35-2.23 1.15 1.15 0 0 0 -1.09-.72 1.09 1.09 0 0 0 -1.06.72 5.71 5.71 0 0 0 -.33 2.23zm4 0a5.51 5.51 0 0 1 -.68 3 2.19 2.19 0 0 1 -2 1 2.15 2.15 0 0 1 -1.92-1.05 5.56 5.56 0 0 1 -.67-3 5.61 5.61 0 0 1 .65-3 2.18 2.18 0 0 1 1.94-1 2.23 2.23 0 0 1 2 1 5.27 5.27 0 0 1 .74 3.05zm-3.56-9h1.29l-7.13 12.85h-1.21z"/><path d="m342.74 337q0 7.55-5.84 7.55a5.76 5.76 0 0 1 -1.61-.18v-1.26a5.23 5.23 0 0 0 1.6.23 3.91 3.91 0 0 0 3.19-1.3 6.71 6.71 0 0 0 1.17-4h-.1a3.15 3.15 0 0 1 -1.29 1.11 4.1 4.1 0 0 1 -1.8.39 3.63 3.63 0 0 1 -2.71-1 3.88 3.88 0 0 1 -1-2.85 4.34 4.34 0 0 1 1.12-3.16 3.92 3.92 0 0 1 2.95-1.16 4 4 0 0 1 2.29.67 4.33 4.33 0 0 1 1.51 2 8 8 0 0 1 .53 3zm-4.32-4.42a2.39 2.39 0 0 0 -1.94.81 3.36 3.36 0 0 0 -.69 2.25 2.87 2.87 0 0 0 .64 2 2.39 2.39 0 0 0 1.92.73 3.3 3.3 0 0 0 1.47-.33 2.63 2.63 0 0 0 1.06-.88 2.05 2.05 0 0 0 .39-1.18 4 4 0 0 0 -.36-1.71 3 3 0 0 0 -1-1.23 2.52 2.52 0 0 0 -1.48-.45zm7.41 2.77a6 6 0 0 0 .32 2.24 1.11 1.11 0 0 0 1.06.75c1 0 1.44-1 1.44-3s-.48-3-1.44-3a1.11 1.11 0 0 0 -1.06.74 6 6 0 0 0 -.32 2.22zm4 0a5.53 5.53 0 0 1 -.67 3 2.2 2.2 0 0 1 -2 1 2.17 2.17 0 0 1 -1.91-1 7 7 0 0 1 0-6 2.17 2.17 0 0 1 1.94-1 2.22 2.22 0 0 1 2 1 5.4 5.4 0 0 1 .68 3zm3.71 5.15a5.79 5.79 0 0 0 .33 2.25 1.1 1.1 0 0 0 1.06.74 1.13 1.13 0 0 0 1.09-.73 5.43 5.43 0 0 0 .35-2.26 5.3 5.3 0 0 0 -.35-2.23 1.14 1.14 0 0 0 -1.09-.72 1.1 1.1 0 0 0 -1.06.72 5.71 5.71 0 0 0 -.33 2.23zm4 0a5.42 5.42 0 0 1 -.68 3 2.18 2.18 0 0 1 -2 1 2.15 2.15 0 0 1 -1.92-1.05 7.15 7.15 0 0 1 0-6 2.18 2.18 0 0 1 1.94-1 2.21 2.21 0 0 1 1.95 1 5.27 5.27 0 0 1 .77 3zm-3.56-9h1.29l-7.13 12.85h-1.29z"/><path d="m424.63 260.52v12.85h-1.42v-9.16c0-.76 0-1.48.07-2.16l-.41.39c-.15.14-.85.71-2.09 1.71l-.78-1 3.4-2.63zm5 7.36a9.15 9.15 0 0 1 1.47-5.67 5.22 5.22 0 0 1 4.36-1.87 6.32 6.32 0 0 1 1.56.16v1.26a5.22 5.22 0 0 0 -1.55-.22 3.9 3.9 0 0 0 -3.15 1.29 6.58 6.58 0 0 0 -1.2 4h.11a3.37 3.37 0 0 1 3.06-1.51 3.6 3.6 0 0 1 2.73 1.05 4 4 0 0 1 1 2.84 4.36 4.36 0 0 1 -1.02 3.19 3.89 3.89 0 0 1 -3 1.15 3.79 3.79 0 0 1 -3.16-1.5 6.63 6.63 0 0 1 -1.17-4.17zm4.31 4.43a2.43 2.43 0 0 0 1.94-.79 3.33 3.33 0 0 0 .69-2.27 2.94 2.94 0 0 0 -.64-2 2.45 2.45 0 0 0 -1.92-.73 3.19 3.19 0 0 0 -1.45.33 2.72 2.72 0 0 0 -1.05.9 2.08 2.08 0 0 0 -.39 1.18 4.12 4.12 0 0 0 .35 1.69 3 3 0 0 0 1 1.24 2.45 2.45 0 0 0 1.47.46zm7.08-8a6 6 0 0 0 .32 2.24 1.1 1.1 0 0 0 1.06.75c1 0 1.44-1 1.44-3s-.48-3-1.44-3a1.1 1.1 0 0 0 -1.06.74 6 6 0 0 0 -.28 2.31zm4 0a5.53 5.53 0 0 1 -.67 3 2.21 2.21 0 0 1 -2 1 2.14 2.14 0 0 1 -1.91-1 5.47 5.47 0 0 1 -.69-3 5.56 5.56 0 0 1 .66-3 2.16 2.16 0 0 1 1.94-1 2.22 2.22 0 0 1 2 1 5.48 5.48 0 0 1 .68 3zm3.71 5.15a5.79 5.79 0 0 0 .33 2.25 1.08 1.08 0 0 0 1.06.74 1.14 1.14 0 0 0 1.09-.73 5.57 5.57 0 0 0 .35-2.26 5.47 5.47 0 0 0 -.35-2.23 1.15 1.15 0 0 0 -1.09-.72 1.09 1.09 0 0 0 -1.06.72 5.71 5.71 0 0 0 -.33 2.23zm4 0a5.49 5.49 0 0 1 -.68 3 2.19 2.19 0 0 1 -2 1 2.15 2.15 0 0 1 -1.92-1.05 5.56 5.56 0 0 1 -.67-3 5.66 5.66 0 0 1 .65-3 2.18 2.18 0 0 1 1.94-1 2.25 2.25 0 0 1 1.95 1 5.27 5.27 0 0 1 .83 3.09zm-3.56-9h1.29l-7.13 12.85h-1.29z"/><path d="m519.13 46.69a3 3 0 0 1 -.69 2 3.42 3.42 0 0 1 -2 1v.07a3.78 3.78 0 0 1 2.29 1 2.89 2.89 0 0 1 .75 2.07 3.37 3.37 0 0 1 -1.28 2.83 5.78 5.78 0 0 1 -3.62 1 9.88 9.88 0 0 1 -1.87-.16 6.19 6.19 0 0 1 -1.64-.54v-1.35a7.52 7.52 0 0 0 1.78.63 7.66 7.66 0 0 0 1.78.22c2.23 0 3.34-.87 3.34-2.61q0-2.34-3.68-2.34h-1.26v-1.26h1.28a3.89 3.89 0 0 0 2.38-.66 2.17 2.17 0 0 0 .88-1.84 1.84 1.84 0 0 0 -.65-1.48 2.63 2.63 0 0 0 -1.75-.54 5.51 5.51 0 0 0 -1.59.23 7.49 7.49 0 0 0 -1.71.85l-.73-1a6.35 6.35 0 0 1 1.82-1 6.82 6.82 0 0 1 2.18-.35 4.47 4.47 0 0 1 2.9.85 2.91 2.91 0 0 1 1.09 2.38zm6.58-3.2a4.41 4.41 0 0 1 2.79.81 2.73 2.73 0 0 1 1 2.26 2.81 2.81 0 0 1 -.59 1.73 5 5 0 0 1 -1.88 1.43 6.34 6.34 0 0 1 2.22 1.57 3 3 0 0 1 .66 1.9 3.15 3.15 0 0 1 -1.12 2.55 4.51 4.51 0 0 1 -3.05 1 4.87 4.87 0 0 1 -3.17-.91 3.1 3.1 0 0 1 -1.11-2.55c0-1.46.9-2.61 2.69-3.43a4.88 4.88 0 0 1 -1.74-1.49 3.12 3.12 0 0 1 -.52-1.78 2.71 2.71 0 0 1 1-2.22 4.3 4.3 0 0 1 2.82-.87zm-2.77 9.79a2 2 0 0 0 .73 1.64 3.16 3.16 0 0 0 2.06.59 3 3 0 0 0 2-.62 2.16 2.16 0 0 0 0-3.2 7 7 0 0 0 -2.39-1.29 5.34 5.34 0 0 0 -1.9 1.25 2.43 2.43 0 0 0 -.58 1.63zm2.76-8.61a2.63 2.63 0 0 0 -1.73.53 1.79 1.79 0 0 0 -.62 1.41 2 2 0 0 0 .52 1.38 5.29 5.29 0 0 0 1.91 1.16 4.59 4.59 0 0 0 1.78-1.15 2.08 2.08 0 0 0 .53-1.41 1.72 1.72 0 0 0 -.64-1.41 2.69 2.69 0 0 0 -1.75-.53zm7.3 2.83a5.8 5.8 0 0 0 .32 2.24 1.1 1.1 0 0 0 1.06.75c1 0 1.44-1 1.44-3s-.48-3-1.44-3a1.1 1.1 0 0 0 -1.06.74 5.81 5.81 0 0 0 -.32 2.27zm4 0a5.62 5.62 0 0 1 -.67 3 2.22 2.22 0 0 1 -2 1 2.14 2.14 0 0 1 -1.91-1 5.47 5.47 0 0 1 -.69-3 5.56 5.56 0 0 1 .66-3 2.16 2.16 0 0 1 1.94-1 2.22 2.22 0 0 1 2 1 5.48 5.48 0 0 1 .68 3zm3.71 5.15a5.79 5.79 0 0 0 .33 2.25 1.07 1.07 0 0 0 1.06.74 1.14 1.14 0 0 0 1.09-.73 5.57 5.57 0 0 0 .35-2.26 5.47 5.47 0 0 0 -.35-2.23 1.15 1.15 0 0 0 -1.09-.72 1.08 1.08 0 0 0 -1.06.72 5.71 5.71 0 0 0 -.31 2.23zm4 0a5.49 5.49 0 0 1 -.68 3 2.21 2.21 0 0 1 -2 1 2.15 2.15 0 0 1 -1.92-1.05 5.56 5.56 0 0 1 -.67-3 5.66 5.66 0 0 1 .65-3 2.18 2.18 0 0 1 1.94-1 2.25 2.25 0 0 1 2 1 5.27 5.27 0 0 1 .7 3zm-3.56-9h1.29l-7.13 12.85h-1.29z"/><path d="m610.55 144.12v1.35h-8.45v-1.26l3.38-3.4a22.86 22.86 0 0 0 2-2.23 5.62 5.62 0 0 0 .74-1.3 3.61 3.61 0 0 0 .25-1.36 2.14 2.14 0 0 0 -.63-1.63 2.34 2.34 0 0 0 -1.73-.61 4.31 4.31 0 0 0 -1.52.27 5.88 5.88 0 0 0 -1.59 1l-.77-1a5.92 5.92 0 0 1 3.86-1.47 4.06 4.06 0 0 1 2.84.92 3.18 3.18 0 0 1 1 2.49 4.79 4.79 0 0 1 -.69 2.42 14.77 14.77 0 0 1 -2.56 3l-2.81 2.75v.07zm10.29-6q0 7.54-5.84 7.55a5.84 5.84 0 0 1 -1.62-.18v-1.26a5.33 5.33 0 0 0 1.6.23 3.93 3.93 0 0 0 3.19-1.3 6.6 6.6 0 0 0 1.17-4h-.1a3.17 3.17 0 0 1 -1.29 1.11 4 4 0 0 1 -1.8.39 3.66 3.66 0 0 1 -2.71-1 3.93 3.93 0 0 1 -1-2.85 4.37 4.37 0 0 1 1.12-3.16 3.9 3.9 0 0 1 3-1.17 4 4 0 0 1 2.29.67 4.23 4.23 0 0 1 1.51 2 7.78 7.78 0 0 1 .48 2.95zm-4.33-4.42a2.4 2.4 0 0 0 -1.94.81 3.33 3.33 0 0 0 -.69 2.25 3 3 0 0 0 .64 2 2.42 2.42 0 0 0 1.92.73 3.12 3.12 0 0 0 1.47-.34 2.44 2.44 0 0 0 1.06-.88 2 2 0 0 0 .39-1.17 4.11 4.11 0 0 0 -.36-1.72 3 3 0 0 0 -1-1.23 2.49 2.49 0 0 0 -1.49-.47zm7.42 2.77a6 6 0 0 0 .32 2.24 1.11 1.11 0 0 0 1.06.75c1 0 1.44-1 1.44-3s-.48-3-1.44-3a1.1 1.1 0 0 0 -1.06.74 5.94 5.94 0 0 0 -.32 2.25zm4 0a5.53 5.53 0 0 1 -.67 3 2.22 2.22 0 0 1 -2 1 2.17 2.17 0 0 1 -1.91-1 7 7 0 0 1 0-6 2.15 2.15 0 0 1 1.94-1 2.2 2.2 0 0 1 2 1 5.4 5.4 0 0 1 .68 3zm3.71 5.15a5.86 5.86 0 0 0 .33 2.25 1.1 1.1 0 0 0 1.06.74 1.15 1.15 0 0 0 1.09-.73 5.46 5.46 0 0 0 .35-2.26 5.27 5.27 0 0 0 -.35-2.23 1.14 1.14 0 0 0 -1.09-.72 1.1 1.1 0 0 0 -1.06.72 5.68 5.68 0 0 0 -.33 2.23zm4 0a5.45 5.45 0 0 1 -.68 3 2.2 2.2 0 0 1 -2 1 2.17 2.17 0 0 1 -1.92-1.05 7.15 7.15 0 0 1 0-6 2.16 2.16 0 0 1 1.94-1 2.21 2.21 0 0 1 2 1 5.23 5.23 0 0 1 .7 3zm-3.56-9h1.29l-7.13 12.85h-1.24z"/><path d="m73.38 428.11a9.42 9.42 0 0 1 -1 5 3.55 3.55 0 0 1 -3.21 1.64 3.52 3.52 0 0 1 -3.17-1.7 9.21 9.21 0 0 1 -1.08-4.94 9.35 9.35 0 0 1 1.05-5 3.87 3.87 0 0 1 6.36.07 9.09 9.09 0 0 1 1.05 4.93zm-7 0a9.46 9.46 0 0 0 .62 4.09 2.36 2.36 0 0 0 4.21 0 12.82 12.82 0 0 0 0-8.12 2.37 2.37 0 0 0 -4.21-.08 9.36 9.36 0 0 0 -.64 4.11z"/><path d="m80.43 425.54a5.56 5.56 0 0 1 -.67 3 2.22 2.22 0 0 1 -2 1 2.16 2.16 0 0 1 -1.91-1 5.5 5.5 0 0 1 -.68-3 5.58 5.58 0 0 1 .66-3 2.15 2.15 0 0 1 1.93-1 2.2 2.2 0 0 1 2 1.05 5.39 5.39 0 0 1 .67 2.95zm-4 0a5.8 5.8 0 0 0 .33 2.24 1.1 1.1 0 0 0 1 .75c1 0 1.45-1 1.45-3s-.49-3-1.45-3a1.09 1.09 0 0 0 -1 .74 5.71 5.71 0 0 0 -.36 2.27zm9.5-3.83-7.12 12.85h-1.3l7.13-12.85zm2.27 9a5.52 5.52 0 0 1 -.67 3 2.22 2.22 0 0 1 -2 1 2.14 2.14 0 0 1 -1.92-1 7.07 7.07 0 0 1 0-6 2.17 2.17 0 0 1 1.94-1 2.21 2.21 0 0 1 1.94 1 5.25 5.25 0 0 1 .68 2.98zm-4 0a6.09 6.09 0 0 0 .32 2.25 1.11 1.11 0 0 0 1.07.74 1.16 1.16 0 0 0 1.09-.74 7.34 7.34 0 0 0 0-4.48 1.16 1.16 0 0 0 -1.09-.72 1.1 1.1 0 0 0 -1.07.72 5.94 5.94 0 0 0 -.38 2.21z"/></g></svg>