<svg xmlns="http://www.w3.org/2000/svg" viewBox="0 0 679.28 458.11"><defs><style>.a,.b{fill:none;}.a{stroke:#444;}.a,.b,.d{stroke-miterlimit:10;}.b,.d{stroke:#cbcbcb;}.c,.d{fill:#444;}.d{stroke-width:0.5px;}.e{fill:#fad978;}.f{fill:#333;}</style></defs><path class="a" d="M50.68,440.41h628.6"/><path class="b" d="M176.4,440.41v-10"/><path class="b" d="M302.12,440.41v-10"/><path class="b" d="M427.84,440.41v-10"/><path class="b" d="M553.56,440.41v-10"/><path d="M22.53,443.94a10.91,10.91,0,0,1-1.23,5.8A4.54,4.54,0,0,1,15,450.86a4.58,4.58,0,0,1-1.12-1.12A10.7,10.7,0,0,1,12.61,444a11.05,11.05,0,0,1,1.22-5.81,4.53,4.53,0,0,1,6.32-1.06,4.63,4.63,0,0,1,1.11,1.14A10.54,10.54,0,0,1,22.53,443.94Zm-8.2,0a10.92,10.92,0,0,0,.77,4.76,2.77,2.77,0,0,0,4.92,0,15.18,15.18,0,0,0,0-9.47,2.78,2.78,0,0,0-4.92,0,11,11,0,0,0-.77,4.71Z"/><path d="M30.75,440.94a6.47,6.47,0,0,1-.78,3.53,2.6,2.6,0,0,1-2.31,1.19,2.51,2.51,0,0,1-2.23-1.22,6.38,6.38,0,0,1-.79-3.5,6.5,6.5,0,0,1,.76-3.51,2.53,2.53,0,0,1,2.26-1.18A2.57,2.57,0,0,1,30,437.47,6.37,6.37,0,0,1,30.75,440.94Zm-4.7,0a7,7,0,0,0,.38,2.61,1.31,1.31,0,0,0,1.23.87c1.13,0,1.69-1.16,1.69-3.48s-.56-3.47-1.69-3.47a1.28,1.28,0,0,0-1.23.86A7,7,0,0,0,26.05,440.94Zm11.09-4.48-8.32,15h-1.5l8.31-15Zm2.64,10.48a6.47,6.47,0,0,1-.78,3.53,2.6,2.6,0,0,1-2.3,1.19,2.53,2.53,0,0,1-2.24-1.22,8.24,8.24,0,0,1,0-7,2.49,2.49,0,0,1,2.26-1.18,2.59,2.59,0,0,1,2.27,1.2,6.23,6.23,0,0,1,.79,3.48Zm-4.7,0a6.67,6.67,0,0,0,.38,2.62,1.27,1.27,0,0,0,1.24.87,1.33,1.33,0,0,0,1.27-.86,6.37,6.37,0,0,0,.41-2.63,6.23,6.23,0,0,0-.41-2.6,1.34,1.34,0,0,0-1.27-.84,1.27,1.27,0,0,0-1.24.84A6.58,6.58,0,0,0,35.08,446.94Z"/><path d="M6.89,371.66H5.23V361c0-.89,0-1.73.08-2.52l-.48.45c-.18.16-1,.82-2.44,2l-.9-1.17,4-3.07H6.93Z"/><path d="M22.53,364.14a10.91,10.91,0,0,1-1.23,5.8A4.54,4.54,0,0,1,15,371.06a4.58,4.58,0,0,1-1.12-1.12,10.7,10.7,0,0,1-1.26-5.76,11.05,11.05,0,0,1,1.22-5.81,4.53,4.53,0,0,1,6.32-1.06,4.63,4.63,0,0,1,1.11,1.14,10.54,10.54,0,0,1,1.27,5.69Zm-8.2,0a10.92,10.92,0,0,0,.77,4.76,2.77,2.77,0,0,0,4.92,0,15.18,15.18,0,0,0,0-9.47,2.78,2.78,0,0,0-4.92,0A11,11,0,0,0,14.33,364.14Z"/><path d="M30.75,361.14a6.47,6.47,0,0,1-.78,3.53,2.6,2.6,0,0,1-2.31,1.19,2.51,2.51,0,0,1-2.23-1.22,6.38,6.38,0,0,1-.79-3.5,6.5,6.5,0,0,1,.76-3.51,2.53,2.53,0,0,1,2.26-1.18A2.57,2.57,0,0,1,30,357.67a6.37,6.37,0,0,1,.8,3.47Zm-4.7,0a7,7,0,0,0,.38,2.61,1.31,1.31,0,0,0,1.23.87c1.13,0,1.69-1.16,1.69-3.48s-.56-3.47-1.69-3.47a1.28,1.28,0,0,0-1.23.86A7,7,0,0,0,26.05,361.14Zm11.09-4.48-8.32,15h-1.5l8.31-15Zm2.64,10.48a6.47,6.47,0,0,1-.78,3.53,2.6,2.6,0,0,1-2.3,1.19,2.48,2.48,0,0,1-2.24-1.22,8.24,8.24,0,0,1,0-7,2.49,2.49,0,0,1,2.26-1.18,2.59,2.59,0,0,1,2.27,1.2,6.23,6.23,0,0,1,.79,3.48Zm-4.7,0a6.67,6.67,0,0,0,.38,2.62,1.27,1.27,0,0,0,1.24.87,1.33,1.33,0,0,0,1.27-.86,6.37,6.37,0,0,0,.41-2.63,6.23,6.23,0,0,0-.41-2.6,1.34,1.34,0,0,0-1.27-.84,1.27,1.27,0,0,0-1.24.84A6.58,6.58,0,0,0,35.08,367.14Z"/><path d="M10.44,291.86H.58v-1.47l4-4A27.89,27.89,0,0,0,7,283.79a6.91,6.91,0,0,0,.86-1.52,4.56,4.56,0,0,0,.29-1.59,2.49,2.49,0,0,0-.73-1.9,2.78,2.78,0,0,0-2-.7,5.35,5.35,0,0,0-1.77.3,7.43,7.43,0,0,0-1.93,1.2l-.9-1.16a6.89,6.89,0,0,1,4.51-1.72,4.75,4.75,0,0,1,3.31,1.08,3.72,3.72,0,0,1,1.2,2.91,5.61,5.61,0,0,1-.8,2.82A17.76,17.76,0,0,1,6,287l-3.28,3.21v.08h7.71Z"/><path d="M22.53,284.34a10.91,10.91,0,0,1-1.23,5.8A4.54,4.54,0,0,1,15,291.26a4.58,4.58,0,0,1-1.12-1.12,10.7,10.7,0,0,1-1.26-5.76,11,11,0,0,1,1.22-5.8,4.53,4.53,0,0,1,6.32-1.06,4.63,4.63,0,0,1,1.11,1.14,10.71,10.71,0,0,1,1.27,5.68Zm-8.2,0a10.92,10.92,0,0,0,.77,4.76,2.77,2.77,0,0,0,4.92,0,15.18,15.18,0,0,0,0-9.47,2.78,2.78,0,0,0-4.92,0A11,11,0,0,0,14.33,284.34Z"/><path d="M30.75,281.34a6.47,6.47,0,0,1-.78,3.53,2.6,2.6,0,0,1-2.31,1.19,2.51,2.51,0,0,1-2.23-1.22,6.38,6.38,0,0,1-.79-3.5,6.5,6.5,0,0,1,.76-3.51,2.53,2.53,0,0,1,2.26-1.18A2.57,2.57,0,0,1,30,277.87,6.37,6.37,0,0,1,30.75,281.34Zm-4.7,0a7,7,0,0,0,.38,2.61,1.31,1.31,0,0,0,1.23.87c1.13,0,1.69-1.16,1.69-3.48s-.56-3.47-1.69-3.47a1.28,1.28,0,0,0-1.23.86,7,7,0,0,0-.38,2.61Zm11.09-4.47-8.32,15h-1.5l8.31-15Zm2.64,10.47a6.47,6.47,0,0,1-.78,3.53,2.6,2.6,0,0,1-2.3,1.19,2.48,2.48,0,0,1-2.24-1.22,8.24,8.24,0,0,1,0-7,2.49,2.49,0,0,1,2.26-1.18,2.59,2.59,0,0,1,2.27,1.2,6.23,6.23,0,0,1,.79,3.48Zm-4.7,0a6.67,6.67,0,0,0,.38,2.62,1.27,1.27,0,0,0,1.24.87A1.33,1.33,0,0,0,38,290a6.37,6.37,0,0,0,.41-2.63,6.19,6.19,0,0,0-.41-2.59,1.34,1.34,0,0,0-1.27-.85,1.27,1.27,0,0,0-1.24.85A6.53,6.53,0,0,0,35.08,287.34Z"/><path d="M9.87,200.58a3.4,3.4,0,0,1-.8,2.35,4,4,0,0,1-2.28,1.22v.08a4.29,4.29,0,0,1,2.67,1.15,3.38,3.38,0,0,1,.88,2.42,3.93,3.93,0,0,1-1.49,3.3,6.75,6.75,0,0,1-4.23,1.15,11.29,11.29,0,0,1-2.17-.18,7.28,7.28,0,0,1-1.93-.63v-1.62a9,9,0,0,0,2.08.73,9.2,9.2,0,0,0,2.09.26c2.59,0,3.89-1,3.88-3.05q0-2.73-4.28-2.73H2.81v-1.45h1.5a4.51,4.51,0,0,0,2.78-.78,2.54,2.54,0,0,0,1-2.15,2.14,2.14,0,0,0-.75-1.72,3.13,3.13,0,0,0-2-.62,6.08,6.08,0,0,0-1.85.26,8.32,8.32,0,0,0-2,1l-.87-1.15a7,7,0,0,1,2.13-1.14,7.87,7.87,0,0,1,2.54-.42,5.16,5.16,0,0,1,3.39,1,3.34,3.34,0,0,1,1.19,2.72Z"/><path d="M22.53,204.58a10.91,10.91,0,0,1-1.23,5.8A4.54,4.54,0,0,1,15,211.5a4.58,4.58,0,0,1-1.12-1.12,10.7,10.7,0,0,1-1.26-5.76,11.05,11.05,0,0,1,1.22-5.81,4.53,4.53,0,0,1,6.32-1.06,4.63,4.63,0,0,1,1.11,1.14,10.54,10.54,0,0,1,1.27,5.69Zm-8.2,0a10.92,10.92,0,0,0,.77,4.76,2.77,2.77,0,0,0,4.92,0,15.18,15.18,0,0,0,0-9.47,2.78,2.78,0,0,0-4.92,0A11,11,0,0,0,14.33,204.58Z"/><path d="M30.75,201.58a6.47,6.47,0,0,1-.78,3.53,2.6,2.6,0,0,1-2.31,1.19,2.51,2.51,0,0,1-2.23-1.22,6.38,6.38,0,0,1-.79-3.5,6.5,6.5,0,0,1,.76-3.51,2.53,2.53,0,0,1,2.26-1.18A2.57,2.57,0,0,1,30,198.11,6.37,6.37,0,0,1,30.75,201.58Zm-4.7,0a7,7,0,0,0,.38,2.61,1.31,1.31,0,0,0,1.23.87c1.13,0,1.69-1.16,1.69-3.48s-.56-3.47-1.69-3.47a1.28,1.28,0,0,0-1.23.86,7,7,0,0,0-.38,2.61Zm11.09-4.48-8.32,15h-1.5l8.31-15Zm2.64,10.48a6.47,6.47,0,0,1-.78,3.53,2.6,2.6,0,0,1-2.3,1.19,2.53,2.53,0,0,1-2.24-1.22,8.24,8.24,0,0,1,0-7,2.49,2.49,0,0,1,2.26-1.18A2.59,2.59,0,0,1,39,204.1a6.23,6.23,0,0,1,.79,3.48Zm-4.7,0a6.67,6.67,0,0,0,.38,2.62,1.27,1.27,0,0,0,1.24.87,1.33,1.33,0,0,0,1.27-.86,6.37,6.37,0,0,0,.41-2.63A6.23,6.23,0,0,0,38,205a1.34,1.34,0,0,0-1.27-.84,1.27,1.27,0,0,0-1.24.84A6.58,6.58,0,0,0,35.08,207.58Z"/><path d="M11.15,128.81H8.92v3.45H7.29v-3.45H0v-1.49l7.12-10.14h1.8v10.08h2.23Zm-3.86-1.55v-5c0-1,0-2.08.1-3.31H7.31a14.5,14.5,0,0,1-.92,1.63L1.7,127.24Z"/><path d="M22.53,124.74a10.91,10.91,0,0,1-1.23,5.8A4.54,4.54,0,0,1,15,131.66a4.58,4.58,0,0,1-1.12-1.12,10.7,10.7,0,0,1-1.26-5.76A11.05,11.05,0,0,1,13.83,119a4.53,4.53,0,0,1,6.32-1.06,4.63,4.63,0,0,1,1.11,1.14,10.54,10.54,0,0,1,1.27,5.69Zm-8.2,0a10.92,10.92,0,0,0,.77,4.76,2.77,2.77,0,0,0,4.92,0A15.18,15.18,0,0,0,20,120a2.78,2.78,0,0,0-4.92,0A11,11,0,0,0,14.33,124.74Z"/><path d="M30.75,121.74a6.47,6.47,0,0,1-.78,3.53,2.6,2.6,0,0,1-2.31,1.19,2.51,2.51,0,0,1-2.23-1.22,6.38,6.38,0,0,1-.79-3.5,6.5,6.5,0,0,1,.76-3.51,2.53,2.53,0,0,1,2.26-1.18A2.57,2.57,0,0,1,30,118.27,6.37,6.37,0,0,1,30.75,121.74Zm-4.7,0a7,7,0,0,0,.38,2.61,1.31,1.31,0,0,0,1.23.87c1.13,0,1.69-1.16,1.69-3.48s-.56-3.47-1.69-3.47a1.28,1.28,0,0,0-1.23.86,7,7,0,0,0-.38,2.61Zm11.09-4.48-8.32,15h-1.5l8.31-15Zm2.64,10.48a6.47,6.47,0,0,1-.78,3.53,2.6,2.6,0,0,1-2.3,1.19,2.53,2.53,0,0,1-2.24-1.22,8.24,8.24,0,0,1,0-7,2.49,2.49,0,0,1,2.26-1.18,2.59,2.59,0,0,1,2.27,1.2,6.23,6.23,0,0,1,.79,3.48Zm-4.7,0a6.67,6.67,0,0,0,.38,2.62,1.27,1.27,0,0,0,1.24.87,1.33,1.33,0,0,0,1.27-.86,6.37,6.37,0,0,0,.41-2.63,6.23,6.23,0,0,0-.41-2.6,1.34,1.34,0,0,0-1.27-.84,1.27,1.27,0,0,0-1.24.84A6.58,6.58,0,0,0,35.08,127.74Z"/><path d="M5.27,43.3A5.53,5.53,0,0,1,9,44.47a4.1,4.1,0,0,1,1.36,3.22,4.65,4.65,0,0,1-1.49,3.65,5.87,5.87,0,0,1-4.08,1.32,7.51,7.51,0,0,1-3.87-.81V50.21a5.8,5.8,0,0,0,1.79.72,8.75,8.75,0,0,0,2.1.26,4.14,4.14,0,0,0,2.8-.85,3,3,0,0,0,1-2.46q0-3.14-3.84-3.13A15.22,15.22,0,0,0,2.16,45l-.88-.56.57-7H9.3v1.57h-6l-.38,4.53a11.61,11.61,0,0,1,2.35-.28Z"/><path d="M22.53,44.94a10.91,10.91,0,0,1-1.23,5.8A4.54,4.54,0,0,1,15,51.86a4.58,4.58,0,0,1-1.12-1.12A10.7,10.7,0,0,1,12.61,45a11.05,11.05,0,0,1,1.22-5.81,4.53,4.53,0,0,1,6.32-1.06,4.63,4.63,0,0,1,1.11,1.14,10.54,10.54,0,0,1,1.27,5.69Zm-8.2,0a10.92,10.92,0,0,0,.77,4.76,2.77,2.77,0,0,0,4.92,0,15.18,15.18,0,0,0,0-9.47,2.78,2.78,0,0,0-4.92,0A11,11,0,0,0,14.33,44.94Z"/><path d="M30.75,41.94A6.47,6.47,0,0,1,30,45.47a2.6,2.6,0,0,1-2.31,1.19,2.51,2.51,0,0,1-2.23-1.22,6.38,6.38,0,0,1-.79-3.5,6.5,6.5,0,0,1,.76-3.51,2.53,2.53,0,0,1,2.26-1.18A2.57,2.57,0,0,1,30,38.47a6.37,6.37,0,0,1,.8,3.47Zm-4.7,0a7,7,0,0,0,.38,2.61,1.31,1.31,0,0,0,1.23.87c1.13,0,1.69-1.16,1.69-3.48s-.56-3.47-1.69-3.47a1.28,1.28,0,0,0-1.23.86A7,7,0,0,0,26.05,41.94Zm11.09-4.48-8.32,15h-1.5l8.31-15Zm2.64,10.48A6.47,6.47,0,0,1,39,51.47a2.6,2.6,0,0,1-2.3,1.19,2.53,2.53,0,0,1-2.24-1.22,8.24,8.24,0,0,1,0-7,2.49,2.49,0,0,1,2.26-1.18A2.59,2.59,0,0,1,39,44.46,6.23,6.23,0,0,1,39.78,47.94Zm-4.7,0a6.67,6.67,0,0,0,.38,2.62,1.27,1.27,0,0,0,1.24.87A1.33,1.33,0,0,0,38,50.57a6.37,6.37,0,0,0,.41-2.63,6.23,6.23,0,0,0-.41-2.6,1.34,1.34,0,0,0-1.27-.84,1.27,1.27,0,0,0-1.24.84,6.58,6.58,0,0,0-.38,2.6Z"/><path class="b" d="M50.68,440.41h628.6"/><path class="b" d="M50.68,360.61h628.6"/><path class="b" d="M50.68,280.81h628.6"/><path class="b" d="M50.68,201h628.6"/><path class="b" d="M50.68,121.21h628.6"/><path class="b" d="M50.68,41.41h628.6"/><path class="c" d="M50.68,0H90V37.41H50.68Z"/><path class="d" d="M65.77,440.41h0Z"/><path class="c" d="M191.49,408.49h45.26v31.92H191.49Z"/><path class="c" d="M317.21,312.73h45.26V440.41H317.21Z"/><path class="c" d="M442.92,57.37h45.26v383H442.92Z"/><path class="c" d="M568.64,185.05H613.9V440.41H568.64Z"/><path class="e" d="M207.83,0h39.29V37.41H207.83Z"/><path class="e" d="M116.06,368.59h45.26v71.82H116.06Z"/><path class="e" d="M241.78,256.87H287V440.41H241.78Z"/><path class="e" d="M367.49,177.07h45.26V440.41H367.49Z"/><path class="e" d="M493.21,217h45.26V440.41H493.21Z"/><path class="e" d="M618.93,384.55h45.26v55.86H618.93Z"/><path d="M265.8,29.75h-2l-8.19-12.58h-.08c.11,1.48.16,2.83.16,4.06v8.52h-1.61v-15h2l8.17,12.53h.08c0-.18,0-.78-.09-1.78a17.07,17.07,0,0,1-.05-2.15v-8.6h1.63Z"/><path d="M279.37,24.12A6.18,6.18,0,0,1,278,28.41,4.87,4.87,0,0,1,274.16,30a5.06,5.06,0,0,1-2.68-.71,4.65,4.65,0,0,1-1.8-2,6.9,6.9,0,0,1-.64-3.1,6.26,6.26,0,0,1,1.37-4.28,4.87,4.87,0,0,1,3.82-1.53A4.73,4.73,0,0,1,278,19.91,6.18,6.18,0,0,1,279.37,24.12Zm-8.57,0a5.29,5.29,0,0,0,.87,3.28,3.42,3.42,0,0,0,5.07,0,5.32,5.32,0,0,0,.86-3.29,5.2,5.2,0,0,0-.86-3.25,3.07,3.07,0,0,0-2.56-1.11,3,3,0,0,0-2.53,1.09,5.33,5.33,0,0,0-.85,3.27Z"/><path d="M290,29.75V22.48a2.92,2.92,0,0,0-.63-2.05,2.54,2.54,0,0,0-2-.67,3.22,3.22,0,0,0-2.59.95,4.82,4.82,0,0,0-.82,3.15v5.89h-1.7V18.51h1.38l.28,1.54h.08a3.5,3.5,0,0,1,1.47-1.28,4.73,4.73,0,0,1,2.1-.46,4.31,4.31,0,0,1,3.06,1,4.15,4.15,0,0,1,1,3.13v7.33Z"/><path d="M294.3,24.9V23.34h5V24.9Z"/><path d="M307.06,19.84H304.2v9.91h-1.67V19.84h-2v-.77l2-.62v-.62c0-2.76,1.21-4.15,3.62-4.15a7.45,7.45,0,0,1,2.09.36l-.44,1.37a5.68,5.68,0,0,0-1.68-.32,1.66,1.66,0,0,0-1.43.64,3.52,3.52,0,0,0-.46,2.06v.72h2.86Z"/><path d="M313.86,30a5.18,5.18,0,0,1-3.93-1.52,5.89,5.89,0,0,1-1.44-4.21,6.47,6.47,0,0,1,1.34-4.32,4.43,4.43,0,0,1,3.59-1.6,4.23,4.23,0,0,1,3.34,1.39A5.35,5.35,0,0,1,318,23.36v1.08h-7.74a4.46,4.46,0,0,0,1,3,3.45,3.45,0,0,0,2.67,1,8.86,8.86,0,0,0,3.59-.76V29.2a8.56,8.56,0,0,1-1.71.56,9.75,9.75,0,0,1-1.94.2Zm-.46-10.23a2.8,2.8,0,0,0-2.16.89,4,4,0,0,0-.95,2.44h5.88a3.71,3.71,0,0,0-.72-2.47A2.53,2.53,0,0,0,313.4,19.73Z"/><path d="M328.53,28.25h-.09A4,4,0,0,1,324.91,30a4.15,4.15,0,0,1-3.43-1.51,8.17,8.17,0,0,1,0-8.6,4.12,4.12,0,0,1,3.42-1.54A4.06,4.06,0,0,1,328.41,20h.12l-.07-.81V13.8h1.7v16h-1.38Zm-3.4.28a3.08,3.08,0,0,0,2.53-1,4.8,4.8,0,0,0,.78-3.06v-.36a5.66,5.66,0,0,0-.79-3.41,3,3,0,0,0-2.54-1,2.59,2.59,0,0,0-2.29,1.17,5.72,5.72,0,0,0-.8,3.28,5.65,5.65,0,0,0,.79,3.26,2.67,2.67,0,0,0,2.33,1.12Z"/><path d="M338.53,30a5.18,5.18,0,0,1-3.93-1.52,5.89,5.89,0,0,1-1.44-4.21,6.47,6.47,0,0,1,1.34-4.32,4.43,4.43,0,0,1,3.59-1.6,4.23,4.23,0,0,1,3.34,1.39,5.35,5.35,0,0,1,1.23,3.66v1.08h-7.74a4.53,4.53,0,0,0,1,3,3.45,3.45,0,0,0,2.67,1,8.86,8.86,0,0,0,3.59-.76V29.2a8.56,8.56,0,0,1-1.71.56,9.75,9.75,0,0,1-1.94.2Zm-.46-10.23a2.8,2.8,0,0,0-2.16.89,4,4,0,0,0-1,2.44h5.88a3.71,3.71,0,0,0-.72-2.47,2.54,2.54,0,0,0-2.07-.86Z"/><path d="M350.67,18.31a7.5,7.5,0,0,1,1.34.12L351.78,20a6.36,6.36,0,0,0-1.23-.15A3,3,0,0,0,348.22,21a4,4,0,0,0-1,2.75v6h-1.69V18.51h1.41l.19,2.09h.09a4.81,4.81,0,0,1,1.5-1.7A3.49,3.49,0,0,1,350.67,18.31Z"/><path d="M361,29.75l-.34-1.6h-.08a4.74,4.74,0,0,1-1.68,1.43,5.14,5.14,0,0,1-2.09.38,3.77,3.77,0,0,1-2.62-.86,3.16,3.16,0,0,1-.94-2.45q0-3.41,5.44-3.57l1.91-.06v-.7a2.83,2.83,0,0,0-.57-2,2.36,2.36,0,0,0-1.82-.64,7.38,7.38,0,0,0-3.18.87l-.52-1.31a8.4,8.4,0,0,1,3.8-1,4.31,4.31,0,0,1,3,.89,3.73,3.73,0,0,1,1,2.86v7.67Zm-3.85-1.2a3.47,3.47,0,0,0,2.5-.87,3.26,3.26,0,0,0,.91-2.44v-1l-1.71.07a6.28,6.28,0,0,0-2.92.63,1.89,1.89,0,0,0-.9,1.74,1.76,1.76,0,0,0,.56,1.4,2.32,2.32,0,0,0,1.56.5Z"/><path d="M369.43,28.58a6.36,6.36,0,0,0,.87-.06,5.18,5.18,0,0,0,.66-.14v1.3a3.24,3.24,0,0,1-.81.22,5.55,5.55,0,0,1-1,.09c-2.17,0-3.25-1.15-3.26-3.44V19.87h-1.61v-.82l1.61-.71.72-2.4h1v2.6h3.26v1.33h-3.26v6.61a2.25,2.25,0,0,0,.48,1.56A1.7,1.7,0,0,0,369.43,28.58Z"/><path d="M378,30A5.18,5.18,0,0,1,374,28.44a5.85,5.85,0,0,1-1.45-4.21,6.52,6.52,0,0,1,1.34-4.32,4.42,4.42,0,0,1,3.6-1.6,4.23,4.23,0,0,1,3.34,1.39,5.35,5.35,0,0,1,1.23,3.66v1.08h-7.74a4.46,4.46,0,0,0,1,3,3.45,3.45,0,0,0,2.67,1,8.86,8.86,0,0,0,3.59-.76V29.2a8.56,8.56,0,0,1-1.71.56A9.75,9.75,0,0,1,378,30Zm-.43-10.23a2.75,2.75,0,0,0-2.16.89,4,4,0,0,0-.95,2.44h5.87a3.75,3.75,0,0,0-.76-2.48,2.54,2.54,0,0,0-2-.85Z"/><path d="M392.64,28.25h-.11A4,4,0,0,1,389,30a4.15,4.15,0,0,1-3.43-1.51,6.64,6.64,0,0,1-1.22-4.29,6.68,6.68,0,0,1,1.23-4.31,4.55,4.55,0,0,1,6.42-.41,4.23,4.23,0,0,1,.51.53h.13l-.07-.81V13.8h1.7v16h-1.38Zm-3.4.28a3.06,3.06,0,0,0,2.52-1,4.74,4.74,0,0,0,.79-3.06v-.36a5.67,5.67,0,0,0-.8-3.41,3,3,0,0,0-2.53-1,2.62,2.62,0,0,0-2.3,1.17,5.79,5.79,0,0,0-.79,3.28,5.57,5.57,0,0,0,.79,3.26,2.69,2.69,0,0,0,2.32,1.12Z"/><path d="M98.69,29.75H96.94v-15h8.36V16.3H98.69v5.49h6.21v1.54H98.69Z"/><path d="M112.27,30a5.18,5.18,0,0,1-3.93-1.52,5.89,5.89,0,0,1-1.44-4.21,6.47,6.47,0,0,1,1.34-4.32,4.43,4.43,0,0,1,3.59-1.6,4.23,4.23,0,0,1,3.34,1.39,5.35,5.35,0,0,1,1.23,3.66v1.08h-7.74a4.53,4.53,0,0,0,1,3,3.45,3.45,0,0,0,2.67,1,8.86,8.86,0,0,0,3.59-.76V29.2a8.56,8.56,0,0,1-1.71.56,9.75,9.75,0,0,1-1.94.2Zm-.46-10.23a2.8,2.8,0,0,0-2.16.89,4,4,0,0,0-1,2.44h5.88a3.71,3.71,0,0,0-.72-2.47A2.54,2.54,0,0,0,111.81,19.73Z"/><path d="M127,28.25h-.1A4,4,0,0,1,123.34,30a4.15,4.15,0,0,1-3.43-1.51,6.63,6.63,0,0,1-1.23-4.29,6.68,6.68,0,0,1,1.23-4.31,4.14,4.14,0,0,1,3.43-1.54,4.07,4.07,0,0,1,3.5,1.66H127l-.08-.81V13.8h1.63v16h-1.39Zm-3.43.33a3.08,3.08,0,0,0,2.53-.95,4.8,4.8,0,0,0,.78-3.06v-.36a5.66,5.66,0,0,0-.79-3.41,3,3,0,0,0-2.54-1A2.59,2.59,0,0,0,121.22,21a5.72,5.72,0,0,0-.8,3.28,5.65,5.65,0,0,0,.79,3.26,2.67,2.67,0,0,0,2.32,1.07Z"/><path d="M136.92,30A5.18,5.18,0,0,1,133,28.44a5.89,5.89,0,0,1-1.44-4.21,6.47,6.47,0,0,1,1.34-4.32,4.43,4.43,0,0,1,3.59-1.6,4.23,4.23,0,0,1,3.34,1.39,5.35,5.35,0,0,1,1.23,3.66v1.08h-7.74a4.53,4.53,0,0,0,1,3,3.5,3.5,0,0,0,2.67,1,8.86,8.86,0,0,0,3.59-.76V29.2a8.56,8.56,0,0,1-1.71.56,9.75,9.75,0,0,1-1.94.2Zm-.46-10.23a2.8,2.8,0,0,0-2.16.89,4.15,4.15,0,0,0-1,2.44h5.88a3.75,3.75,0,0,0-.65-2.48A2.55,2.55,0,0,0,136.46,19.73Z"/><path d="M149.08,18.31a7.61,7.61,0,0,1,1.35.12L150.19,20a6.36,6.36,0,0,0-1.23-.15A3,3,0,0,0,146.63,21a4,4,0,0,0-1,2.75v6h-1.7V18.51h1.4l.2,2.07h.08a4.84,4.84,0,0,1,1.51-1.7A3.33,3.33,0,0,1,149.08,18.31Z"/><path d="M159.44,29.75l-.34-1.6H159a4.74,4.74,0,0,1-1.68,1.43,5.12,5.12,0,0,1-2.08.38,3.73,3.73,0,0,1-2.62-.86,3.12,3.12,0,0,1-1-2.45q0-3.41,5.44-3.57L159,23v-.7a2.83,2.83,0,0,0-.57-2,2.36,2.36,0,0,0-1.82-.64,7.38,7.38,0,0,0-3.18.87l-.52-1.31a8.4,8.4,0,0,1,3.8-1,4.31,4.31,0,0,1,3,.89,3.73,3.73,0,0,1,1,2.86v7.67Zm-3.85-1.2a3.47,3.47,0,0,0,2.5-.87,3.17,3.17,0,0,0,.91-2.44v-1l-1.7.07a6.32,6.32,0,0,0-2.93.63,1.89,1.89,0,0,0-.9,1.74,1.76,1.76,0,0,0,.56,1.4,2.32,2.32,0,0,0,1.56.5Z"/><path d="M167.84,28.58a6.36,6.36,0,0,0,.87-.06,2.17,2.17,0,0,0,.67-.14v1.3a3.31,3.31,0,0,1-.82.22,5.55,5.55,0,0,1-1,.09q-3.26,0-3.26-3.44V19.87h-1.61v-.82l1.61-.71.72-2.4h1v2.6h3.26v1.33H166v6.61a2.25,2.25,0,0,0,.48,1.56A1.71,1.71,0,0,0,167.84,28.58Z"/><path d="M176.37,30a5.18,5.18,0,0,1-3.93-1.52A5.89,5.89,0,0,1,171,24.23a6.53,6.53,0,0,1,1.33-4.32,4.46,4.46,0,0,1,3.6-1.6,4.23,4.23,0,0,1,3.34,1.39,5.35,5.35,0,0,1,1.23,3.66v1.08h-7.74a4.46,4.46,0,0,0,1,3,3.45,3.45,0,0,0,2.67,1,8.86,8.86,0,0,0,3.59-.76V29.2a8.56,8.56,0,0,1-1.71.56,9.75,9.75,0,0,1-1.94.2Zm-.46-10.23a2.8,2.8,0,0,0-2.16.89,4,4,0,0,0-1,2.44h5.88a3.71,3.71,0,0,0-.72-2.47A2.54,2.54,0,0,0,175.91,19.73Z"/><path d="M191.05,28.25H191A4,4,0,0,1,187.43,30,4.15,4.15,0,0,1,184,28.45a8.17,8.17,0,0,1,0-8.6,4.12,4.12,0,0,1,3.42-1.54A4.06,4.06,0,0,1,190.93,20h.13l-.07-.81V13.8h1.7v16h-1.38Zm-3.4.28a3.08,3.08,0,0,0,2.53-1,4.8,4.8,0,0,0,.78-3.06v-.36a5.66,5.66,0,0,0-.79-3.41,3,3,0,0,0-2.54-1,2.59,2.59,0,0,0-2.29,1.17,5.72,5.72,0,0,0-.8,3.28,5.57,5.57,0,0,0,.79,3.26,2.69,2.69,0,0,0,2.32,1.12Z"/><path d="M107.53,456.27,101,453.39v-.67l6.57-3.28v1L102.19,453l5.34,2.24Z"/><path d="M115.11,450.28a2.26,2.26,0,0,1-.53,1.57,2.7,2.7,0,0,1-1.52.81v.06a2.9,2.9,0,0,1,1.78.76,2.24,2.24,0,0,1,.58,1.62,2.59,2.59,0,0,1-1,2.19,4.43,4.43,0,0,1-2.82.77,8.78,8.78,0,0,1-1.45-.12,4.93,4.93,0,0,1-1.28-.42v-1.08a5.68,5.68,0,0,0,1.38.49,6.52,6.52,0,0,0,1.39.17c1.73,0,2.6-.68,2.6-2s-1-1.82-2.86-1.82h-1v-1h1a3,3,0,0,0,1.85-.51,1.7,1.7,0,0,0,.69-1.43,1.45,1.45,0,0,0-.5-1.15,2,2,0,0,0-1.37-.42,4.33,4.33,0,0,0-1.24.18,6.09,6.09,0,0,0-1.28.63l-.58-.76a4.87,4.87,0,0,1,1.42-.76,5.08,5.08,0,0,1,1.69-.28,3.42,3.42,0,0,1,2.27.67,2.25,2.25,0,0,1,.78,1.83Z"/><path d="M186.71,447.93h2.82a5.21,5.21,0,0,1,2.87.6,2.08,2.08,0,0,1,.89,1.88,2.15,2.15,0,0,1-.49,1.46,2.33,2.33,0,0,1-1.45.75v.07c1.52.26,2.28,1.06,2.28,2.39a2.54,2.54,0,0,1-.91,2.09,3.78,3.78,0,0,1-2.53.76H186.7Zm1.17,4.28h1.91a3.13,3.13,0,0,0,1.77-.38,1.5,1.5,0,0,0,.54-1.31,1.31,1.31,0,0,0-.6-1.21,3.76,3.76,0,0,0-1.92-.37h-1.7Zm0,1V457H190a3,3,0,0,0,1.82-.47,1.72,1.72,0,0,0,.61-1.47,1.56,1.56,0,0,0-.62-1.37,3.35,3.35,0,0,0-1.91-.43Z"/><path d="M198.78,458.06a3.41,3.41,0,0,1-2.62-1,3.93,3.93,0,0,1-1-2.81,4.32,4.32,0,0,1,.89-2.88,3,3,0,0,1,2.4-1.06,2.83,2.83,0,0,1,2.22.92,3.59,3.59,0,0,1,.82,2.45v.72h-5.16a3,3,0,0,0,.67,2,2.33,2.33,0,0,0,1.78.68,6.35,6.35,0,0,0,2.39-.5v1a5.44,5.44,0,0,1-2.39.48Zm-.31-6.81a1.83,1.83,0,0,0-1.44.59,2.6,2.6,0,0,0-.63,1.62h3.92a2.46,2.46,0,0,0-.48-1.64A1.7,1.7,0,0,0,198.47,451.25Z"/><path d="M205.89,457.13a2.81,2.81,0,0,0,.58,0l.44-.09v.87a1.66,1.66,0,0,1-.54.14,3.49,3.49,0,0,1-.65.06c-1.44,0-2.17-.76-2.17-2.29v-4.45h-1v-.55l1.07-.47.48-1.6h.66v1.73h2.17v.89h-2.17v4.41a1.45,1.45,0,0,0,.32,1A1.09,1.09,0,0,0,205.89,457.13Z"/><path d="M214.53,457.93l-1.38-4.4q-.12-.4-.48-1.83h-.06c-.18.8-.34,1.41-.47,1.84l-1.42,4.39h-1.31l-2-7.5h1.17c.49,1.89.86,3.32,1.11,4.3a17.38,17.38,0,0,1,.43,2h.06c.05-.26.13-.59.24-1s.21-.74.29-1l1.37-4.3h1.23l1.34,4.3a13.66,13.66,0,0,1,.52,2h.06a4.43,4.43,0,0,1,.15-.76q.12-.51,1.42-5.52h1.18l-2.07,7.5Z"/><path d="M222.47,458.06a3.43,3.43,0,0,1-2.63-1,3.93,3.93,0,0,1-1-2.81,4.38,4.38,0,0,1,.9-2.88,3,3,0,0,1,2.39-1.06,2.85,2.85,0,0,1,2.23.92,3.59,3.59,0,0,1,.82,2.45v.72H220a2.91,2.91,0,0,0,.67,2,2.33,2.33,0,0,0,1.78.68,6.35,6.35,0,0,0,2.39-.5v1a5.44,5.44,0,0,1-2.39.48Zm-.31-6.81a1.83,1.83,0,0,0-1.44.59,2.6,2.6,0,0,0-.63,1.62H224a2.54,2.54,0,0,0-.47-1.64A1.7,1.7,0,0,0,222.16,451.25Z"/><path d="M230.32,458.06a3.41,3.41,0,0,1-2.62-1,3.93,3.93,0,0,1-1-2.81,4.39,4.39,0,0,1,.89-2.88,3,3,0,0,1,2.4-1.06,2.83,2.83,0,0,1,2.22.92,3.59,3.59,0,0,1,.82,2.45v.72h-5.16a3,3,0,0,0,.67,2,2.33,2.33,0,0,0,1.78.68,6,6,0,0,0,2.39-.5v1a6.23,6.23,0,0,1-1.13.37,6,6,0,0,1-1.26.11Zm-.31-6.81a1.83,1.83,0,0,0-1.44.59,2.77,2.77,0,0,0-.63,1.62h3.92a2.46,2.46,0,0,0-.48-1.64A1.7,1.7,0,0,0,230,451.25Z"/><path d="M240.14,457.93v-4.85a2,2,0,0,0-.42-1.37,1.7,1.7,0,0,0-1.31-.45,2.13,2.13,0,0,0-1.72.64,3.21,3.21,0,0,0-.55,2.1v3.93H235v-7.5h.92l.19,1h0a2.26,2.26,0,0,1,1-.86,3.24,3.24,0,0,1,1.4-.3,2.91,2.91,0,0,1,2,.65,2.81,2.81,0,0,1,.68,2.09v4.89Z"/><path d="M252.91,450.28a2.35,2.35,0,0,1-.53,1.57,2.7,2.7,0,0,1-1.52.81v.06a2.9,2.9,0,0,1,1.78.76,2.24,2.24,0,0,1,.58,1.62,2.59,2.59,0,0,1-1,2.19,4.43,4.43,0,0,1-2.82.77,8.78,8.78,0,0,1-1.45-.12,4.93,4.93,0,0,1-1.28-.42v-1.08a5.68,5.68,0,0,0,1.38.49,6.52,6.52,0,0,0,1.39.17c1.73,0,2.59-.68,2.59-2s-.95-1.82-2.85-1.82h-1v-1h1a3,3,0,0,0,1.85-.51,1.7,1.7,0,0,0,.69-1.43,1.41,1.41,0,0,0-.51-1.15,2,2,0,0,0-1.36-.42,4.33,4.33,0,0,0-1.24.18,5.79,5.79,0,0,0-1.32.65l-.58-.76a4.87,4.87,0,0,1,1.42-.76,5.08,5.08,0,0,1,1.69-.28,3.48,3.48,0,0,1,2.27.67,2.25,2.25,0,0,1,.82,1.81Z"/><path d="M263.53,457.93l-.23-1.07h-.05a3.17,3.17,0,0,1-1.12,1,3.3,3.3,0,0,1-1.39.25,2.53,2.53,0,0,1-1.75-.57,2.08,2.08,0,0,1-.63-1.63q0-2.28,3.63-2.38h1.27v-.47a1.89,1.89,0,0,0-.38-1.3,1.55,1.55,0,0,0-1.21-.42,5.08,5.08,0,0,0-2.12.57l-.35-.87a5.73,5.73,0,0,1,1.21-.47,5.39,5.39,0,0,1,1.33-.17,2.83,2.83,0,0,1,2,.6,2.46,2.46,0,0,1,.65,1.9V458Zm-2.57-.8a2.37,2.37,0,0,0,1.67-.58,2.16,2.16,0,0,0,.6-1.63v-.68l-1.13.05a4.14,4.14,0,0,0-2,.42,1.26,1.26,0,0,0-.6,1.16,1.19,1.19,0,0,0,.37.94,1.57,1.57,0,0,0,1,.32Z"/><path d="M271.79,457.93v-4.85a2,2,0,0,0-.41-1.37,1.7,1.7,0,0,0-1.31-.45,2.13,2.13,0,0,0-1.72.64,3.19,3.19,0,0,0-.55,2.1v3.93h-1.13v-7.5h.92l.18,1h.06a2.26,2.26,0,0,1,1-.86,3.24,3.24,0,0,1,1.4-.3,2.84,2.84,0,0,1,2,.65,2.76,2.76,0,0,1,.69,2.09v4.89Z"/><path d="M280.36,456.92h-.06a2.69,2.69,0,0,1-2.35,1.14,2.76,2.76,0,0,1-2.29-1,4.37,4.37,0,0,1-.82-2.86,4.56,4.56,0,0,1,.82-2.88,2.76,2.76,0,0,1,2.29-1,2.71,2.71,0,0,1,2.33,1.11h.09v-4.07h1.13V458h-1Zm-2.27.19a2,2,0,0,0,1.68-.63,3.21,3.21,0,0,0,.53-2v-.24a3.77,3.77,0,0,0-.53-2.27,2,2,0,0,0-1.69-.68,1.73,1.73,0,0,0-1.53.77,3.9,3.9,0,0,0-.53,2.19,3.74,3.74,0,0,0,.52,2.17,1.77,1.77,0,0,0,1.55.69Z"/><path d="M294,455.63h-1.47v2.3h-1.1v-2.3h-4.9v-1l4.74-6.76h1.26v6.71H294Zm-2.57-1v-3.35c0-.66,0-1.39.06-2.21a9.7,9.7,0,0,1-.62,1.08l-3.17,4.43Z"/><path d="M310.2,447.93H313a5.23,5.23,0,0,1,2.88.6,2.08,2.08,0,0,1,.89,1.88,2.16,2.16,0,0,1-.5,1.46,2.38,2.38,0,0,1-1.44.75v.07c1.51.26,2.27,1.06,2.27,2.39a2.57,2.57,0,0,1-.9,2.09,3.8,3.8,0,0,1-2.54.76H310.2Zm1.16,4.28h1.91a3.13,3.13,0,0,0,1.77-.38,1.5,1.5,0,0,0,.54-1.31,1.31,1.31,0,0,0-.6-1.21,3.7,3.7,0,0,0-1.91-.37h-1.71Zm0,1V457h2.09a3,3,0,0,0,1.82-.47,1.75,1.75,0,0,0,.61-1.47,1.57,1.57,0,0,0-.63-1.37,3.33,3.33,0,0,0-1.9-.43Z"/><path d="M322.26,458.06a3.41,3.41,0,0,1-2.62-1,3.93,3.93,0,0,1-1-2.81,4.39,4.39,0,0,1,.89-2.88,3,3,0,0,1,2.4-1.06,2.85,2.85,0,0,1,2.23.92,3.59,3.59,0,0,1,.82,2.45v.72h-5.16a3,3,0,0,0,.66,2,2.33,2.33,0,0,0,1.78.68,6,6,0,0,0,2.4-.5v1a5.84,5.84,0,0,1-1.14.37,6,6,0,0,1-1.26.11Zm-.3-6.81a1.83,1.83,0,0,0-1.44.59,2.69,2.69,0,0,0-.64,1.62h3.92a2.46,2.46,0,0,0-.48-1.64A1.67,1.67,0,0,0,322,451.25Z"/><path d="M329.37,457.13a2.81,2.81,0,0,0,.58,0l.45-.09v.87a1.71,1.71,0,0,1-.55.14,3.47,3.47,0,0,1-.64.06c-1.45,0-2.18-.76-2.18-2.29v-4.45H326v-.55l1.07-.47.48-1.6h.66v1.73h2.17v.89h-2.17v4.41a1.5,1.5,0,0,0,.32,1,1.13,1.13,0,0,0,.88.35Z"/><path d="M338,457.93l-1.37-4.4c-.09-.27-.25-.88-.49-1.83h0c-.18.8-.34,1.41-.48,1.84l-1.41,4.39h-1.32l-2-7.5h1.19c.48,1.89.85,3.32,1.1,4.3a17.43,17.43,0,0,1,.44,2h.05a4.84,4.84,0,0,1,.24-1c.11-.41.21-.74.29-1l1.38-4.3h1.23l1.34,4.3a15.06,15.06,0,0,1,.52,2,4.43,4.43,0,0,1,.15-.76c.08-.34.55-2.18,1.43-5.52h1.17l-2.07,7.5Z"/><path d="M346,458.06a3.41,3.41,0,0,1-2.62-1,3.93,3.93,0,0,1-1-2.81,4.39,4.39,0,0,1,.89-2.88,3,3,0,0,1,2.4-1.06,2.83,2.83,0,0,1,2.22.92,3.59,3.59,0,0,1,.82,2.45v.72h-5.13a3,3,0,0,0,.67,2,2.33,2.33,0,0,0,1.78.68,6.35,6.35,0,0,0,2.39-.5v1a5.38,5.38,0,0,1-2.42.48Zm-.31-6.81a1.83,1.83,0,0,0-1.44.59,2.77,2.77,0,0,0-.63,1.62h4a2.46,2.46,0,0,0-.48-1.64,1.71,1.71,0,0,0-1.41-.57Z"/><path d="M353.8,458.06a3.41,3.41,0,0,1-2.62-1,3.93,3.93,0,0,1-1-2.81,4.39,4.39,0,0,1,.89-2.88,3,3,0,0,1,2.4-1.06,2.85,2.85,0,0,1,2.23.92,3.59,3.59,0,0,1,.82,2.45v.72h-5.16a3,3,0,0,0,.66,2,2.33,2.33,0,0,0,1.79.68,6.35,6.35,0,0,0,2.39-.5v1a5.84,5.84,0,0,1-1.14.37,6,6,0,0,1-1.26.11Zm-.3-6.81a1.83,1.83,0,0,0-1.44.59,2.6,2.6,0,0,0-.63,1.62h3.91a2.46,2.46,0,0,0-.48-1.64,1.67,1.67,0,0,0-1.33-.57Z"/><path d="M363.62,457.93v-4.85a2,2,0,0,0-.42-1.37,1.68,1.68,0,0,0-1.3-.45,2.13,2.13,0,0,0-1.72.64,3.19,3.19,0,0,0-.55,2.1v3.93h-1.1v-7.5h.93l.18,1h.06a2.26,2.26,0,0,1,1-.86,3.24,3.24,0,0,1,1.4-.3,2.84,2.84,0,0,1,2,.65,2.76,2.76,0,0,1,.69,2.09v4.89Z"/><path d="M377.24,455.63h-1.48v2.3h-1.09v-2.3h-4.86v-1l4.72-6.75h1.2v6.7h1.48Zm-2.57-1v-3.35c0-.66,0-1.39.07-2.21a11.59,11.59,0,0,1-.62,1.08L371,454.58Z"/><path d="M387,457.93l-.22-1.07h-.06a3,3,0,0,1-1.12,1,3.3,3.3,0,0,1-1.39.25,2.51,2.51,0,0,1-1.74-.57,2.11,2.11,0,0,1-.64-1.63q0-2.28,3.63-2.38h1.28v-.47a1.89,1.89,0,0,0-.38-1.3,1.57,1.57,0,0,0-1.22-.42,5.08,5.08,0,0,0-2.12.57l-.34-.87a5.34,5.34,0,0,1,2.53-.64,2.83,2.83,0,0,1,2,.6,2.45,2.45,0,0,1,.64,1.9V458Zm-2.56-.8a2.35,2.35,0,0,0,1.66-.58,2.1,2.1,0,0,0,.61-1.63v-.68l-1.14.05a4.14,4.14,0,0,0-2,.42,1.26,1.26,0,0,0-.6,1.16,1.2,1.2,0,0,0,.38.94,1.57,1.57,0,0,0,1,.32Z"/><path d="M395.28,457.93v-4.85a2,2,0,0,0-.42-1.37,1.68,1.68,0,0,0-1.3-.45,2.15,2.15,0,0,0-1.73.64,3.2,3.2,0,0,0-.54,2.1v3.93h-1.14v-7.5h.92l.19,1a2.26,2.26,0,0,1,1-.86,3.24,3.24,0,0,1,1.4-.3,2.91,2.91,0,0,1,2,.65,2.81,2.81,0,0,1,.68,2.09v4.89Z"/><path d="M403.84,456.92h-.06a2.66,2.66,0,0,1-2.35,1.14,2.76,2.76,0,0,1-2.29-1,4.42,4.42,0,0,1-.81-2.86,4.54,4.54,0,0,1,.82-2.88,3.06,3.06,0,0,1,4.62.11h.09l-.05-.54v-3.53H405V458H404Zm-2.27.19a2.06,2.06,0,0,0,1.69-.63,3.21,3.21,0,0,0,.52-2v-.24a3.7,3.7,0,0,0-.53-2.27,2,2,0,0,0-1.69-.68,1.73,1.73,0,0,0-1.53.77,3.9,3.9,0,0,0-.53,2.19,3.68,3.68,0,0,0,.53,2.17,1.78,1.78,0,0,0,1.5.69Z"/><path d="M413.53,451.82a3.67,3.67,0,0,1,2.49.78,2.69,2.69,0,0,1,.9,2.15,3.1,3.1,0,0,1-1,2.43,4,4,0,0,1-2.73.88,5,5,0,0,1-2.57-.54v-1.09a3.72,3.72,0,0,0,1.19.48,5.54,5.54,0,0,0,1.4.18,2.79,2.79,0,0,0,1.87-.57,2,2,0,0,0,.66-1.64c0-1.4-.85-2.09-2.56-2.09a10.18,10.18,0,0,0-1.74.19l-.58-.37.37-4.68h5v1h-4l-.25,3a7.31,7.31,0,0,1,1.55-.11Z"/><path d="M437.32,447.93h2.82a5.23,5.23,0,0,1,2.88.6,2.08,2.08,0,0,1,.89,1.88,2.16,2.16,0,0,1-.5,1.46,2.38,2.38,0,0,1-1.44.75v.07c1.52.26,2.27,1.06,2.27,2.39a2.57,2.57,0,0,1-.9,2.09,3.78,3.78,0,0,1-2.53.76h-3.49Zm1.16,4.28h1.92a3.13,3.13,0,0,0,1.77-.38,1.5,1.5,0,0,0,.54-1.31,1.31,1.31,0,0,0-.61-1.21,3.7,3.7,0,0,0-1.91-.37h-1.66Zm0,1V457h2a3,3,0,0,0,1.82-.47A1.72,1.72,0,0,0,443,455a1.57,1.57,0,0,0-.63-1.37,3.33,3.33,0,0,0-1.9-.43Z"/><path d="M449.38,458.06a3.41,3.41,0,0,1-2.62-1,3.93,3.93,0,0,1-1-2.81,4.39,4.39,0,0,1,.89-2.88,3,3,0,0,1,2.4-1.06,2.85,2.85,0,0,1,2.23.92,3.59,3.59,0,0,1,.82,2.45v.72h-5.16a3,3,0,0,0,.66,2,2.33,2.33,0,0,0,1.79.68,6.35,6.35,0,0,0,2.39-.5v1a5.84,5.84,0,0,1-1.14.37,6,6,0,0,1-1.26.11Zm-.3-6.81a1.83,1.83,0,0,0-1.44.59,2.6,2.6,0,0,0-.63,1.62h3.91a2.46,2.46,0,0,0-.48-1.64A1.67,1.67,0,0,0,449.08,451.25Z"/><path d="M456.53,457.13a2.81,2.81,0,0,0,.58,0l.45-.09v.87a1.66,1.66,0,0,1-.54.14,3.49,3.49,0,0,1-.65.06c-1.45,0-2.17-.76-2.17-2.29v-4.45h-1.08v-.55l1.08-.47.47-1.6h.66v1.73h2.17v.89h-2.17v4.41a1.5,1.5,0,0,0,.32,1A1.13,1.13,0,0,0,456.53,457.13Z"/><path d="M465.13,457.93l-1.37-4.4q-.13-.4-.48-1.83h-.06c-.18.8-.34,1.41-.48,1.84l-1.41,4.39H460l-2-7.5h1.19c.48,1.89.85,3.32,1.1,4.3a17.43,17.43,0,0,1,.44,2h.05a4.37,4.37,0,0,1,.25-1c.12-.41.2-.74.29-1l1.37-4.3h1.23l1.34,4.3a13.66,13.66,0,0,1,.52,2,4.43,4.43,0,0,1,.15-.76q.12-.51,1.43-5.52h1.16l-2.07,7.5Z"/><path d="M473.07,458.06a3.41,3.41,0,0,1-2.62-1,3.93,3.93,0,0,1-1-2.81,4.39,4.39,0,0,1,.89-2.88,3,3,0,0,1,2.4-1.06,2.85,2.85,0,0,1,2.23.92,3.59,3.59,0,0,1,.82,2.45v.72h-5.17a3,3,0,0,0,.67,2,2.33,2.33,0,0,0,1.78.68,6,6,0,0,0,2.46-.5v1a6.23,6.23,0,0,1-1.13.37,6.58,6.58,0,0,1-1.33.11Zm-.31-6.81a1.83,1.83,0,0,0-1.44.59,2.77,2.77,0,0,0-.63,1.62h3.92a2.46,2.46,0,0,0-.48-1.64A1.69,1.69,0,0,0,472.76,451.25Z"/><path d="M480.93,458.06a3.43,3.43,0,0,1-2.63-1,3.93,3.93,0,0,1-1-2.81,4.38,4.38,0,0,1,.9-2.88,3,3,0,0,1,2.39-1.06,2.85,2.85,0,0,1,2.23.92,3.59,3.59,0,0,1,.82,2.45v.72h-5.11a2.91,2.91,0,0,0,.67,2,2.33,2.33,0,0,0,1.78.68,6.35,6.35,0,0,0,2.39-.5v1a5.84,5.84,0,0,1-1.14.37,6.28,6.28,0,0,1-1.3.11Zm-.31-6.81a1.83,1.83,0,0,0-1.44.59,2.6,2.6,0,0,0-.63,1.62h3.91a2.54,2.54,0,0,0-.47-1.64A1.7,1.7,0,0,0,480.62,451.25Z"/><path d="M490.74,457.93v-4.85a2,2,0,0,0-.42-1.37,1.68,1.68,0,0,0-1.3-.45,2.13,2.13,0,0,0-1.72.64,3.19,3.19,0,0,0-.55,2.1v3.93h-1.14v-7.5h.92l.18,1h.06a2.26,2.26,0,0,1,1-.86,3.25,3.25,0,0,1,1.41-.3,2.84,2.84,0,0,1,2,.65,2.76,2.76,0,0,1,.69,2.09v4.89Z"/><path d="M500.45,451.82a3.7,3.7,0,0,1,2.48.78,2.7,2.7,0,0,1,.91,2.15,3.1,3.1,0,0,1-1,2.43,4,4,0,0,1-2.72.88,5,5,0,0,1-2.58-.54v-1.09a4,4,0,0,0,1.19.48,5.54,5.54,0,0,0,1.4.18,2.79,2.79,0,0,0,1.87-.57,2,2,0,0,0,.67-1.64c0-1.4-.86-2.09-2.57-2.09a10.07,10.07,0,0,0-1.73.19l-.59-.37.38-4.68h5v1h-4l-.26,3a7.31,7.31,0,0,1,1.55-.11Z"/><path d="M514.09,457.93l-.22-1.07h-.06a3,3,0,0,1-1.11,1,3.34,3.34,0,0,1-1.4.25,2.51,2.51,0,0,1-1.74-.57,2.08,2.08,0,0,1-.63-1.63q0-2.28,3.63-2.38h1.27v-.47a1.89,1.89,0,0,0-.38-1.3,1.57,1.57,0,0,0-1.22-.42,5.08,5.08,0,0,0-2.12.57l-.34-.87a5.73,5.73,0,0,1,1.21-.47,5.31,5.31,0,0,1,1.32-.17,2.83,2.83,0,0,1,2,.6,2.45,2.45,0,0,1,.64,1.9V458Zm-2.56-.8a2.37,2.37,0,0,0,1.67-.58,2.16,2.16,0,0,0,.6-1.63v-.68l-1.14.05a4.08,4.08,0,0,0-2,.42,1.26,1.26,0,0,0-.6,1.16,1.2,1.2,0,0,0,.38.94,1.58,1.58,0,0,0,1.09.32Z"/><path d="M522.4,457.93v-4.85a2,2,0,0,0-.42-1.37,1.68,1.68,0,0,0-1.3-.45,2.15,2.15,0,0,0-1.73.64,3.2,3.2,0,0,0-.54,2.1v3.93h-1.14v-7.5h.93l.18,1a2.26,2.26,0,0,1,1-.86,3.24,3.24,0,0,1,1.4-.3,2.91,2.91,0,0,1,2,.65,2.75,2.75,0,0,1,.68,2.09v4.89Z"/><path d="M531,456.92h-.06a2.64,2.64,0,0,1-2.35,1.14,2.74,2.74,0,0,1-2.28-1,4.37,4.37,0,0,1-.82-2.86,4.54,4.54,0,0,1,.82-2.88,3.06,3.06,0,0,1,4.62.11H531l-.05-.54v-3.53h1.14V458h-.93Zm-2.26.19a2.07,2.07,0,0,0,1.68-.63,3.21,3.21,0,0,0,.52-2v-.24a3.7,3.7,0,0,0-.53-2.27,2,2,0,0,0-1.69-.68,1.78,1.78,0,0,0-1.53.77,3.9,3.9,0,0,0-.53,2.19,3.68,3.68,0,0,0,.53,2.17,1.77,1.77,0,0,0,1.55.69Z"/><path d="M537.68,453.65a7.13,7.13,0,0,1,1.14-4.4,4.08,4.08,0,0,1,3.39-1.46,4.56,4.56,0,0,1,1.22.13v1a3.81,3.81,0,0,0-1.21-.17,3,3,0,0,0-2.45,1,5,5,0,0,0-.93,3.14h.08a2.62,2.62,0,0,1,2.38-1.17,2.79,2.79,0,0,1,2.12.81,3.08,3.08,0,0,1,.78,2.21,3.42,3.42,0,0,1-.85,2.45,3.29,3.29,0,0,1-4.76-.27,5.22,5.22,0,0,1-.91-3.27ZM541,457.1a1.91,1.91,0,0,0,1.51-.61,2.61,2.61,0,0,0,.54-1.77,2.32,2.32,0,0,0-.5-1.56,1.89,1.89,0,0,0-1.49-.57,2.6,2.6,0,0,0-1.13.26,2.2,2.2,0,0,0-.82.69,1.63,1.63,0,0,0-.3.93,3.27,3.27,0,0,0,.27,1.31,2.26,2.26,0,0,0,.78,1,1.94,1.94,0,0,0,1.14.32Z"/><path d="M564.44,447.93h2.82a5.23,5.23,0,0,1,2.88.6,2.08,2.08,0,0,1,.89,1.88,2.16,2.16,0,0,1-.5,1.46,2.38,2.38,0,0,1-1.44.75v.07c1.52.26,2.27,1.06,2.27,2.39a2.57,2.57,0,0,1-.9,2.09,3.78,3.78,0,0,1-2.53.76h-3.49Zm1.16,4.28h1.93a3.13,3.13,0,0,0,1.77-.38,1.5,1.5,0,0,0,.54-1.31,1.31,1.31,0,0,0-.6-1.21,3.76,3.76,0,0,0-1.92-.37h-1.71Zm0,1V457h2.09a3,3,0,0,0,1.82-.47,1.72,1.72,0,0,0,.61-1.47,1.59,1.59,0,0,0-.62-1.37,3.35,3.35,0,0,0-1.91-.43Z"/><path d="M576.53,458.06a3.43,3.43,0,0,1-2.63-1,3.93,3.93,0,0,1-1-2.81,4.38,4.38,0,0,1,.9-2.88,3,3,0,0,1,2.39-1.06,2.85,2.85,0,0,1,2.23.92,3.59,3.59,0,0,1,.82,2.45v.72h-5.16a2.91,2.91,0,0,0,.67,2,2.33,2.33,0,0,0,1.78.68,6.35,6.35,0,0,0,2.39-.5v1a5.44,5.44,0,0,1-2.39.48Zm-.31-6.81a1.83,1.83,0,0,0-1.44.59,2.6,2.6,0,0,0-.63,1.62h3.91a2.54,2.54,0,0,0-.47-1.64,1.67,1.67,0,0,0-1.39-.57Z"/><path d="M583.61,457.13a2.91,2.91,0,0,0,.59,0l.44-.09v.87a1.66,1.66,0,0,1-.54.14,3.49,3.49,0,0,1-.65.06c-1.45,0-2.17-.76-2.17-2.29v-4.45H580.2v-.55l1.08-.47.48-1.6h.65v1.73h2.18v.89h-2.18v4.41a1.5,1.5,0,0,0,.32,1,1.13,1.13,0,0,0,.88.35Z"/><path d="M592.26,457.93l-1.38-4.4q-.14-.4-.48-1.83h-.06c-.18.8-.34,1.41-.48,1.84l-1.41,4.39h-1.31l-2-7.5h1.19c.48,1.89.85,3.32,1.11,4.3a19.79,19.79,0,0,1,.43,2h0a4.37,4.37,0,0,1,.25-1c.12-.41.2-.74.29-1l1.37-4.3H591l1.34,4.3a13.66,13.66,0,0,1,.52,2h.06a4.85,4.85,0,0,1,.14-.76q.12-.51,1.43-5.52h1.17L593.6,458Z"/><path d="M600.19,458.06a3.41,3.41,0,0,1-2.62-1,3.93,3.93,0,0,1-1-2.81,4.39,4.39,0,0,1,.89-2.88,3,3,0,0,1,2.4-1.06,2.85,2.85,0,0,1,2.23.92,3.59,3.59,0,0,1,.82,2.45v.72h-5.16a3,3,0,0,0,.66,2,2.33,2.33,0,0,0,1.78.68,6,6,0,0,0,2.4-.5v1a6.6,6.6,0,0,1-1.14.37,6,6,0,0,1-1.26.11Zm-.31-6.81a1.8,1.8,0,0,0-1.43.59,2.69,2.69,0,0,0-.64,1.62h3.92a2.46,2.46,0,0,0-.48-1.64A1.69,1.69,0,0,0,599.88,451.25Z"/><path d="M608.05,458.06a3.43,3.43,0,0,1-2.63-1,3.93,3.93,0,0,1-1-2.81,4.38,4.38,0,0,1,.9-2.88,3,3,0,0,1,2.39-1.06,2.85,2.85,0,0,1,2.23.92,3.59,3.59,0,0,1,.82,2.45v.72H605.6a3,3,0,0,0,.67,2,2.33,2.33,0,0,0,1.78.68,6,6,0,0,0,2.48-.5v1a5.84,5.84,0,0,1-1.14.37,6,6,0,0,1-1.34.11Zm-.31-6.81a1.83,1.83,0,0,0-1.44.59,2.6,2.6,0,0,0-.63,1.62h3.91a2.53,2.53,0,0,0-.47-1.64A1.7,1.7,0,0,0,607.74,451.25Z"/><path d="M617.86,457.93v-4.85a2,2,0,0,0-.41-1.37,1.7,1.7,0,0,0-1.31-.45,2.13,2.13,0,0,0-1.72.64,3.19,3.19,0,0,0-.55,2.1v3.93h-1.13v-7.5h.92l.18,1h.06a2.26,2.26,0,0,1,1-.86,3.1,3.1,0,0,1,1.4-.3,2.84,2.84,0,0,1,2,.65A2.76,2.76,0,0,1,619,453v4.89Z"/><path d="M624.53,453.65a7,7,0,0,1,1.15-4.4,4,4,0,0,1,3.38-1.46,4.56,4.56,0,0,1,1.22.13v1a3.75,3.75,0,0,0-1.2-.17,3,3,0,0,0-2.46,1,5.18,5.18,0,0,0-.93,3.14h.09a2.62,2.62,0,0,1,2.38-1.17,2.79,2.79,0,0,1,2.12.81,3.09,3.09,0,0,1,.77,2.21,3.38,3.38,0,0,1-.85,2.45,3.29,3.29,0,0,1-4.65-.15l-.11-.12a5.22,5.22,0,0,1-.91-3.27Zm3.36,3.45a1.91,1.91,0,0,0,1.51-.61,2.69,2.69,0,0,0,.53-1.77,2.22,2.22,0,0,0-.5-1.56,1.89,1.89,0,0,0-1.49-.57,2.56,2.56,0,0,0-1.12.26,2,2,0,0,0-.82.69,1.72,1.72,0,0,0-.31.93,3.28,3.28,0,0,0,.28,1.31,2.24,2.24,0,0,0,.77,1,2,2,0,0,0,1.18.32Z"/><path d="M641.21,457.93l-.22-1.07h-.06a3,3,0,0,1-1.11,1,3.3,3.3,0,0,1-1.39.25,2.53,2.53,0,0,1-1.75-.57,2.08,2.08,0,0,1-.63-1.63q0-2.28,3.63-2.38H641v-.47a1.89,1.89,0,0,0-.38-1.3,1.55,1.55,0,0,0-1.21-.42,4.9,4.9,0,0,0-2.12.57l-.35-.87a5.73,5.73,0,0,1,1.21-.47,5.31,5.31,0,0,1,1.32-.17,2.83,2.83,0,0,1,2,.6,2.46,2.46,0,0,1,.65,1.9V458Zm-2.56-.8a2.37,2.37,0,0,0,1.67-.58,2.16,2.16,0,0,0,.6-1.63v-.68l-1.13.05a4.08,4.08,0,0,0-2,.42,1.28,1.28,0,0,0-.59,1.16,1.19,1.19,0,0,0,.37.94,1.55,1.55,0,0,0,1.08.32Z"/><path d="M649.53,457.93v-4.85a2,2,0,0,0-.42-1.37,1.68,1.68,0,0,0-1.3-.45,2.15,2.15,0,0,0-1.73.64,3.2,3.2,0,0,0-.54,2.1v3.93H644.4v-7.5h.93l.18,1h0a2.26,2.26,0,0,1,1-.86,3.24,3.24,0,0,1,1.4-.3,2.84,2.84,0,0,1,2,.65,2.75,2.75,0,0,1,.68,2.09v4.89Z"/><path d="M658.09,456.92H658a2.64,2.64,0,0,1-2.35,1.14,2.74,2.74,0,0,1-2.28-1,4.37,4.37,0,0,1-.82-2.86,4.54,4.54,0,0,1,.82-2.88,3.06,3.06,0,0,1,4.62.11h.09l-.05-.54v-3.53h1.14V458h-.92Zm-2.27.19a2.07,2.07,0,0,0,1.68-.63,3.21,3.21,0,0,0,.52-2v-.24a3.7,3.7,0,0,0-.53-2.27,2,2,0,0,0-1.69-.68,1.74,1.74,0,0,0-1.52.77,3.75,3.75,0,0,0-.54,2.19,3.68,3.68,0,0,0,.53,2.17A1.77,1.77,0,0,0,655.82,457.11Z"/><path d="M666,457.93l4.14-9h-5.45v-1h6.65v.91l-4.09,9.09Z"/><path class="f" d="M84.71,428.2a9.36,9.36,0,0,1-1,5,3.57,3.57,0,0,1-3.22,1.65,3.5,3.5,0,0,1-3.15-1.69,9.18,9.18,0,0,1-1.08-4.93,9.49,9.49,0,0,1,1-5,3.89,3.89,0,0,1,6.37.07A9.11,9.11,0,0,1,84.71,428.2Zm-7,0a9.38,9.38,0,0,0,.66,4.08,2.37,2.37,0,0,0,4.22,0,13,13,0,0,0,0-8.12,2.38,2.38,0,0,0-4.22,0,9.38,9.38,0,0,0-.66,4.08Zm10-2.58a6,6,0,0,0,.32,2.24,1.1,1.1,0,0,0,1.06.75c1,0,1.44-1,1.44-3s-.48-3-1.44-3a1.1,1.1,0,0,0-1.06.74A6,6,0,0,0,87.73,425.62Zm4,0a5.53,5.53,0,0,1-.67,3,2.21,2.21,0,0,1-2,1,2.16,2.16,0,0,1-1.91-1,7,7,0,0,1,0-6,2.16,2.16,0,0,1,1.94-1,2.22,2.22,0,0,1,2,1,5.48,5.48,0,0,1,.68,3Zm3.71,5.15a5.79,5.79,0,0,0,.33,2.25,1.1,1.1,0,0,0,1.06.74,1.14,1.14,0,0,0,1.09-.73,5.6,5.6,0,0,0,.35-2.26,5.47,5.47,0,0,0-.35-2.23,1.15,1.15,0,0,0-1.09-.72,1.09,1.09,0,0,0-1.06.72,5.71,5.71,0,0,0-.33,2.23Zm4,0a5.51,5.51,0,0,1-.68,3,2.19,2.19,0,0,1-2,1,2.15,2.15,0,0,1-1.92-1.05,5.56,5.56,0,0,1-.67-3,5.61,5.61,0,0,1,.65-3,2.18,2.18,0,0,1,1.94-1,2.23,2.23,0,0,1,2,1A5.27,5.27,0,0,1,99.5,430.77Zm-3.56-9h1.29L90.1,434.64H88.81Z"/><path class="f" d="M135.67,356.7q0,7.55-5.84,7.55a5.84,5.84,0,0,1-1.62-.18v-1.26a5.23,5.23,0,0,0,1.6.23,3.91,3.91,0,0,0,3.19-1.3,6.71,6.71,0,0,0,1.17-4h-.1a3.15,3.15,0,0,1-1.29,1.11,4.1,4.1,0,0,1-1.8.39,3.63,3.63,0,0,1-2.71-1,3.88,3.88,0,0,1-1-2.85,4.34,4.34,0,0,1,1.12-3.16,3.92,3.92,0,0,1,3-1.16,4,4,0,0,1,2.29.67,4.33,4.33,0,0,1,1.51,2A8,8,0,0,1,135.67,356.7Zm-4.33-4.42a2.39,2.39,0,0,0-1.94.81,3.36,3.36,0,0,0-.69,2.25,2.87,2.87,0,0,0,.64,2,2.39,2.39,0,0,0,1.92.73,3.3,3.3,0,0,0,1.47-.33,2.63,2.63,0,0,0,1.06-.88,2.05,2.05,0,0,0,.39-1.18,4,4,0,0,0-.36-1.71,3,3,0,0,0-1-1.23,2.52,2.52,0,0,0-1.48-.45Zm7.42,2.77a5.8,5.8,0,0,0,.32,2.24,1.1,1.1,0,0,0,1.06.75c1,0,1.44-1,1.44-3s-.48-3-1.44-3a1.1,1.1,0,0,0-1.06.74A5.78,5.78,0,0,0,138.76,355.05Zm4,0a5.62,5.62,0,0,1-.67,3,2.22,2.22,0,0,1-2,1,2.16,2.16,0,0,1-1.91-1,7,7,0,0,1,0-6,2.16,2.16,0,0,1,1.94-1,2.23,2.23,0,0,1,2,1,5.48,5.48,0,0,1,.68,3Zm3.71,5.15a5.79,5.79,0,0,0,.33,2.25,1.09,1.09,0,0,0,1.06.74,1.15,1.15,0,0,0,1.09-.73,5.6,5.6,0,0,0,.35-2.26A5.47,5.47,0,0,0,149,358a1.16,1.16,0,0,0-1.09-.72,1.08,1.08,0,0,0-1.06.72,5.71,5.71,0,0,0-.33,2.23Zm4,0a5.51,5.51,0,0,1-.68,3,2.21,2.21,0,0,1-2,1A2.13,2.13,0,0,1,146,363.2a7.15,7.15,0,0,1,0-6,2.17,2.17,0,0,1,1.94-1,2.23,2.23,0,0,1,2,1A5.36,5.36,0,0,1,150.53,360.2Zm-3.56-9h1.29l-7.13,12.85h-1.29Z"/><path class="f" d="M212.38,398.79v1.33h-1.91v2.95h-1.39v-2.95h-6.25v-1.28l6.1-8.69h1.54v8.64Zm-8.09,0h4.79v-4.27c0-.84,0-1.78.08-2.84h-.07a12.73,12.73,0,0,1-.79,1.4Zm10.58-4.74a6,6,0,0,0,.32,2.24,1.11,1.11,0,0,0,1.06.75c1,0,1.44-1,1.44-3s-.48-3-1.44-3a1.11,1.11,0,0,0-1.06.74A6,6,0,0,0,214.87,394.05Zm4,0a5.53,5.53,0,0,1-.67,3,2.2,2.2,0,0,1-2,1,2.15,2.15,0,0,1-1.91-1,5.47,5.47,0,0,1-.69-3,5.56,5.56,0,0,1,.66-3,2.17,2.17,0,0,1,1.94-1,2.22,2.22,0,0,1,2,1,5.4,5.4,0,0,1,.68,3Zm3.71,5.15a5.79,5.79,0,0,0,.33,2.25,1.09,1.09,0,0,0,1.06.74,1.13,1.13,0,0,0,1.09-.73,5.4,5.4,0,0,0,.35-2.26,5.3,5.3,0,0,0-.35-2.23,1.14,1.14,0,0,0-1.09-.72,1.1,1.1,0,0,0-1.06.72,5.71,5.71,0,0,0-.33,2.23Zm4,0a5.4,5.4,0,0,1-.68,3,2.18,2.18,0,0,1-2,1,2.15,2.15,0,0,1-1.92-1.05,7.15,7.15,0,0,1,0-6,2.18,2.18,0,0,1,1.94-1,2.23,2.23,0,0,1,1.95,1A5.27,5.27,0,0,1,226.64,399.2Zm-3.56-9h1.29l-7.13,12.85H216Z"/><path class="f" d="M257,248.15v1.35h-8.45v-1.26l3.38-3.4a25.92,25.92,0,0,0,2-2.23,6,6,0,0,0,.74-1.3,3.61,3.61,0,0,0,.25-1.36,2.14,2.14,0,0,0-.63-1.63,2.34,2.34,0,0,0-1.73-.61,4.31,4.31,0,0,0-1.52.27,5.88,5.88,0,0,0-1.59,1l-.77-1a5.92,5.92,0,0,1,3.86-1.47,4.08,4.08,0,0,1,2.84.92,3.18,3.18,0,0,1,1,2.49,4.79,4.79,0,0,1-.69,2.42,15.11,15.11,0,0,1-2.56,3l-2.81,2.75v.07Zm9.8-8.48a3,3,0,0,1-.69,2,3.48,3.48,0,0,1-1.95,1v.07a3.69,3.69,0,0,1,2.29,1,2.86,2.86,0,0,1,.75,2.07,3.38,3.38,0,0,1-1.28,2.83,5.8,5.8,0,0,1-3.62,1,10.69,10.69,0,0,1-1.87-.16,6.19,6.19,0,0,1-1.64-.54v-1.39a7.36,7.36,0,0,0,1.78.63,8.17,8.17,0,0,0,1.78.22c2.22,0,3.34-.87,3.34-2.61q0-2.34-3.68-2.34h-1.26v-1.26H262a3.89,3.89,0,0,0,2.38-.66,2.21,2.21,0,0,0,.88-1.84,1.83,1.83,0,0,0-.65-1.48,2.63,2.63,0,0,0-1.75-.54,5.18,5.18,0,0,0-1.59.23,6.74,6.74,0,0,0-1.71.85l-.73-1a6,6,0,0,1,1.82-1,6.51,6.51,0,0,1,2.18-.35,4.44,4.44,0,0,1,2.9.85,2.88,2.88,0,0,1,1,2.35Zm3.58.81a5.83,5.83,0,0,0,.32,2.24,1.1,1.1,0,0,0,1.06.75c1,0,1.44-1,1.44-3s-.48-3-1.44-3a1.09,1.09,0,0,0-1.06.74A5.74,5.74,0,0,0,270.35,240.48Zm4,0a5.62,5.62,0,0,1-.67,3,2.22,2.22,0,0,1-2,1,2.16,2.16,0,0,1-1.91-1,7,7,0,0,1,0-6,2.14,2.14,0,0,1,1.94-1,2.21,2.21,0,0,1,2,1,5.48,5.48,0,0,1,.68,3Zm3.71,5.15a5.86,5.86,0,0,0,.33,2.25,1.09,1.09,0,0,0,1.06.74,1.17,1.17,0,0,0,1.09-.73,5.63,5.63,0,0,0,.35-2.26,5.44,5.44,0,0,0-.35-2.23,1.16,1.16,0,0,0-1.09-.72,1.08,1.08,0,0,0-1.06.72,5.68,5.68,0,0,0-.33,2.23Zm4,0a5.51,5.51,0,0,1-.68,3,2.23,2.23,0,0,1-2,1,2.13,2.13,0,0,1-1.92-1.05,7.15,7.15,0,0,1,0-6,2.15,2.15,0,0,1,1.94-1,2.23,2.23,0,0,1,1.95,1A5.33,5.33,0,0,1,282.12,245.63Zm-3.56-9h1.29l-7.13,12.85h-1.29Z"/><path class="f" d="M328.22,295.71v12.85H326.8V299.4c0-.76,0-1.48.07-2.16l-.41.39-2.09,1.71-.78-1,3.4-2.63Zm5,7.36q0-3.79,1.47-5.67a5.19,5.19,0,0,1,4.36-1.87,5.87,5.87,0,0,1,1.56.16V297a4.92,4.92,0,0,0-1.55-.22A3.9,3.9,0,0,0,336,298a6.55,6.55,0,0,0-1.2,4h.11a3.35,3.35,0,0,1,3.06-1.51,3.6,3.6,0,0,1,2.73,1.05,3.94,3.94,0,0,1,1,2.84,4.39,4.39,0,0,1-1.09,3.15,3.92,3.92,0,0,1-3,1.15,3.79,3.79,0,0,1-3.16-1.5,6.63,6.63,0,0,1-1.17-4.17Zm4.31,4.43a2.47,2.47,0,0,0,1.94-.79,3.37,3.37,0,0,0,.69-2.27,2.91,2.91,0,0,0-.64-2,2.42,2.42,0,0,0-1.92-.73,3.19,3.19,0,0,0-1.45.33,2.56,2.56,0,0,0-1.05.9,2.05,2.05,0,0,0-.39,1.18,4.16,4.16,0,0,0,.35,1.69,3.08,3.08,0,0,0,1,1.24,2.51,2.51,0,0,0,1.47.46Zm7.08-8a6,6,0,0,0,.32,2.24,1.1,1.1,0,0,0,1.06.75c1,0,1.44-1,1.44-3s-.48-3-1.44-3a1.09,1.09,0,0,0-1.06.74A5.94,5.94,0,0,0,344.65,299.54Zm4,0a5.53,5.53,0,0,1-.67,3,2.21,2.21,0,0,1-2,1,2.16,2.16,0,0,1-1.91-1,7,7,0,0,1,0-6,2.14,2.14,0,0,1,1.94-1,2.2,2.2,0,0,1,2,1,5.48,5.48,0,0,1,.68,3Zm3.71,5.15a5.86,5.86,0,0,0,.33,2.25,1.1,1.1,0,0,0,1.06.74,1.16,1.16,0,0,0,1.09-.73,5.63,5.63,0,0,0,.35-2.26,5.44,5.44,0,0,0-.35-2.23,1.15,1.15,0,0,0-1.09-.72,1.09,1.09,0,0,0-1.06.72,5.68,5.68,0,0,0-.33,2.23Zm4,0a5.51,5.51,0,0,1-.68,3,2.22,2.22,0,0,1-2,1,2.15,2.15,0,0,1-1.92-1.05,5.56,5.56,0,0,1-.67-3,5.61,5.61,0,0,1,.65-3,2.16,2.16,0,0,1,1.94-1,2.23,2.23,0,0,1,2,1A5.25,5.25,0,0,1,356.42,304.69Zm-3.56-9h1.29L347,308.56h-1.29Z"/><path class="f" d="M382.64,160.71a3,3,0,0,1-.69,2,3.42,3.42,0,0,1-1.95,1v.07a3.78,3.78,0,0,1,2.29,1,2.89,2.89,0,0,1,.75,2.07,3.37,3.37,0,0,1-1.28,2.83,5.78,5.78,0,0,1-3.62,1,9.88,9.88,0,0,1-1.87-.16,6.19,6.19,0,0,1-1.64-.54v-1.39a7.52,7.52,0,0,0,1.78.63,7.66,7.66,0,0,0,1.78.22c2.23,0,3.34-.87,3.34-2.61q0-2.34-3.68-2.34h-1.26v-1.26h1.28a3.89,3.89,0,0,0,2.38-.66,2.17,2.17,0,0,0,.88-1.84,1.84,1.84,0,0,0-.65-1.48,2.63,2.63,0,0,0-1.75-.54,5.51,5.51,0,0,0-1.59.23,7.49,7.49,0,0,0-1.71.85l-.73-1a6.35,6.35,0,0,1,1.82-1,6.82,6.82,0,0,1,2.18-.35,4.47,4.47,0,0,1,2.9.85,2.91,2.91,0,0,1,1,2.35Zm10.29,0a3,3,0,0,1-.69,2,3.42,3.42,0,0,1-1.95,1v.07a3.78,3.78,0,0,1,2.29,1,2.89,2.89,0,0,1,.75,2.07,3.37,3.37,0,0,1-1.28,2.83,5.78,5.78,0,0,1-3.62,1,9.88,9.88,0,0,1-1.87-.16,6.19,6.19,0,0,1-1.64-.54v-1.39a7.52,7.52,0,0,0,1.78.63,7.66,7.66,0,0,0,1.78.22c2.23,0,3.34-.87,3.34-2.61q0-2.34-3.68-2.34h-1.26v-1.26h1.28a3.89,3.89,0,0,0,2.38-.66,2.17,2.17,0,0,0,.88-1.84,1.84,1.84,0,0,0-.65-1.48,2.63,2.63,0,0,0-1.75-.54,5.51,5.51,0,0,0-1.59.23,7.49,7.49,0,0,0-1.71.85l-.73-1a6.35,6.35,0,0,1,1.82-1,6.82,6.82,0,0,1,2.18-.35,4.47,4.47,0,0,1,2.9.85,2.91,2.91,0,0,1,1,2.35Zm3.58.81a5.8,5.8,0,0,0,.32,2.24,1.1,1.1,0,0,0,1.06.75c1,0,1.44-1,1.44-3s-.48-3-1.44-3a1.1,1.1,0,0,0-1.06.74A5.81,5.81,0,0,0,396.51,161.52Zm4,0a5.62,5.62,0,0,1-.67,3,2.22,2.22,0,0,1-2,1,2.14,2.14,0,0,1-1.91-1,5.47,5.47,0,0,1-.69-3,5.56,5.56,0,0,1,.66-3,2.16,2.16,0,0,1,1.94-1,2.23,2.23,0,0,1,2,1,5.48,5.48,0,0,1,.68,3Zm3.71,5.15a5.79,5.79,0,0,0,.33,2.25,1.07,1.07,0,0,0,1.06.74,1.15,1.15,0,0,0,1.09-.73,5.57,5.57,0,0,0,.35-2.26,5.47,5.47,0,0,0-.35-2.23,1.16,1.16,0,0,0-1.09-.72,1.08,1.08,0,0,0-1.06.72,5.71,5.71,0,0,0-.33,2.23Zm4,0a5.49,5.49,0,0,1-.68,3,2.21,2.21,0,0,1-2,1,2.13,2.13,0,0,1-1.92-1.05,7.15,7.15,0,0,1,0-6,2.17,2.17,0,0,1,1.94-1,2.25,2.25,0,0,1,1.95,1A5.36,5.36,0,0,1,408.28,166.67Zm-3.56-9H406l-7.13,12.85h-1.29Z"/><path class="f" d="M458.17,45.64V47h-1.91v3h-1.39V47h-6.25V45.69l6.1-8.69h1.54v8.64Zm-8.09,0h4.79V41.37c0-.84,0-1.79.08-2.84h-.07a13.74,13.74,0,0,1-.79,1.4Zm13.58-8.75a4.41,4.41,0,0,1,2.79.81,2.71,2.71,0,0,1,1,2.26,2.83,2.83,0,0,1-.59,1.73A5.24,5.24,0,0,1,465,43.12a6.09,6.09,0,0,1,2.22,1.57,2.93,2.93,0,0,1,.66,1.9,3.18,3.18,0,0,1-1.12,2.55,4.51,4.51,0,0,1-3,1,4.93,4.93,0,0,1-3.17-.91,3.1,3.1,0,0,1-1.11-2.55q0-2.2,2.69-3.43a5,5,0,0,1-1.74-1.49,3.15,3.15,0,0,1-.52-1.78,2.69,2.69,0,0,1,1-2.22,4.25,4.25,0,0,1,2.76-.83Zm-2.77,9.79a2,2,0,0,0,.73,1.64,3.22,3.22,0,0,0,2.06.59,3.09,3.09,0,0,0,2-.62,2.07,2.07,0,0,0,.73-1.68,2,2,0,0,0-.69-1.52,7,7,0,0,0-2.39-1.29,5.21,5.21,0,0,0-1.9,1.25,2.39,2.39,0,0,0-.58,1.63Zm2.76-8.61a2.58,2.58,0,0,0-1.73.53A1.76,1.76,0,0,0,461.3,40a2,2,0,0,0,.52,1.38,5.59,5.59,0,0,0,1.91,1.16,4.83,4.83,0,0,0,1.78-1.13A2.11,2.11,0,0,0,466,40a1.69,1.69,0,0,0-.64-1.41,2.63,2.63,0,0,0-1.75-.53ZM471,40.9a6,6,0,0,0,.32,2.24,1.1,1.1,0,0,0,1.06.75c1,0,1.44-1,1.44-3s-.48-3-1.44-3a1.09,1.09,0,0,0-1.06.74A5.94,5.94,0,0,0,471,40.9Zm4,0a5.53,5.53,0,0,1-.67,3,2.21,2.21,0,0,1-2,1,2.16,2.16,0,0,1-1.91-1,5.5,5.5,0,0,1-.69-3,5.51,5.51,0,0,1,.66-3,2.14,2.14,0,0,1,1.94-1,2.2,2.2,0,0,1,2,1,5.48,5.48,0,0,1,.68,3Zm3.71,5.15A5.86,5.86,0,0,0,479,48.3a1.1,1.1,0,0,0,1.06.74,1.16,1.16,0,0,0,1.09-.73,5.63,5.63,0,0,0,.35-2.26,5.44,5.44,0,0,0-.35-2.23,1.15,1.15,0,0,0-1.09-.72,1.09,1.09,0,0,0-1.06.72,5.68,5.68,0,0,0-.33,2.23Zm4,0a5.51,5.51,0,0,1-.68,3,2.22,2.22,0,0,1-2,1,2.15,2.15,0,0,1-1.92-1.05,5.56,5.56,0,0,1-.67-3,5.61,5.61,0,0,1,.65-3,2.16,2.16,0,0,1,1.94-1,2.23,2.23,0,0,1,1.95,1A5.25,5.25,0,0,1,482.72,46.05Zm-3.56-9h1.29l-7.13,12.85H472Z"/><path class="f" d="M508.59,209.18v1.35h-8.45v-1.26l3.38-3.4a21.72,21.72,0,0,0,2-2.23,5.62,5.62,0,0,0,.74-1.3,3.58,3.58,0,0,0,.25-1.36,2.14,2.14,0,0,0-.63-1.63,2.34,2.34,0,0,0-1.73-.61,4.31,4.31,0,0,0-1.52.27,5.88,5.88,0,0,0-1.59,1l-.77-1a5.92,5.92,0,0,1,3.86-1.47,4.11,4.11,0,0,1,2.84.92,3.18,3.18,0,0,1,1,2.49,4.77,4.77,0,0,1-.69,2.42,14.77,14.77,0,0,1-2.56,3L502,209.11v.07Zm6.09-11.68a4.37,4.37,0,0,1,2.79.81,2.73,2.73,0,0,1,1,2.26,2.77,2.77,0,0,1-.59,1.73,5.13,5.13,0,0,1-1.88,1.43,6.21,6.21,0,0,1,2.22,1.57,3,3,0,0,1,.66,1.9,3.15,3.15,0,0,1-1.12,2.55,4.5,4.5,0,0,1-3,1,4.87,4.87,0,0,1-3.17-.91,3.1,3.1,0,0,1-1.11-2.55q0-2.2,2.69-3.43a5.17,5.17,0,0,1-1.74-1.49,3.23,3.23,0,0,1-.52-1.78,2.72,2.72,0,0,1,1-2.22,4.3,4.3,0,0,1,2.76-.83Zm-2.77,9.79a2,2,0,0,0,.73,1.64,3.24,3.24,0,0,0,2.06.59,3.05,3.05,0,0,0,2-.62,2.16,2.16,0,0,0,0-3.2,7,7,0,0,0-2.39-1.29,5.43,5.43,0,0,0-1.9,1.25,2.46,2.46,0,0,0-.58,1.63Zm2.76-8.61a2.63,2.63,0,0,0-1.73.53,1.76,1.76,0,0,0-.62,1.41,2,2,0,0,0,.52,1.38,5.53,5.53,0,0,0,1.91,1.16,4.62,4.62,0,0,0,1.78-1.13,2.07,2.07,0,0,0,.53-1.41,1.72,1.72,0,0,0-.64-1.41,2.67,2.67,0,0,0-1.75-.53Zm7.3,2.83a6,6,0,0,0,.32,2.24,1.11,1.11,0,0,0,1.06.75c1,0,1.44-1,1.44-3s-.48-3-1.44-3a1.11,1.11,0,0,0-1.06.74A6,6,0,0,0,522,201.51Zm4,0a5.53,5.53,0,0,1-.67,3,2.2,2.2,0,0,1-2,1,2.17,2.17,0,0,1-1.91-1,7,7,0,0,1,0-6,2.17,2.17,0,0,1,1.94-1,2.22,2.22,0,0,1,2,1,5.4,5.4,0,0,1,.68,3Zm3.71,5.15a5.79,5.79,0,0,0,.33,2.25,1.1,1.1,0,0,0,1.06.74,1.13,1.13,0,0,0,1.09-.73,5.43,5.43,0,0,0,.35-2.26,5.3,5.3,0,0,0-.35-2.23,1.14,1.14,0,0,0-1.09-.72,1.1,1.1,0,0,0-1.06.72,5.71,5.71,0,0,0-.33,2.23Zm4,0a5.42,5.42,0,0,1-.68,3,2.18,2.18,0,0,1-2,1,2.15,2.15,0,0,1-1.92-1.05,7.15,7.15,0,0,1,0-6,2.18,2.18,0,0,1,1.94-1,2.21,2.21,0,0,1,1.95,1A5.27,5.27,0,0,1,533.74,206.66Zm-3.56-9h1.29l-7.13,12.85h-1.29Z"/><path class="f" d="M583.38,167.73a3,3,0,0,1-.69,2,3.42,3.42,0,0,1-2,1v.07a3.78,3.78,0,0,1,2.29,1,2.89,2.89,0,0,1,.75,2.07,3.34,3.34,0,0,1-1.28,2.83,5.76,5.76,0,0,1-3.62,1,9.88,9.88,0,0,1-1.87-.16,6.31,6.31,0,0,1-1.64-.54v-1.39a8.49,8.49,0,0,0,3.56.85c2.23,0,3.34-.87,3.34-2.61,0-1.56-1.22-2.34-3.68-2.34h-1.26v-1.26h1.28a3.87,3.87,0,0,0,2.38-.66,2.17,2.17,0,0,0,.88-1.84,1.81,1.81,0,0,0-.65-1.48,2.62,2.62,0,0,0-1.75-.54,5.51,5.51,0,0,0-1.59.23,7.49,7.49,0,0,0-1.71.85l-.73-1a6.49,6.49,0,0,1,1.82-1,6.87,6.87,0,0,1,2.18-.35,4.46,4.46,0,0,1,2.9.85,2.88,2.88,0,0,1,1,2.35Zm10.78,8.48v1.35h-8.45V176.3l3.38-3.4a21.72,21.72,0,0,0,2-2.23,5.42,5.42,0,0,0,.74-1.3,3.58,3.58,0,0,0,.25-1.36,2.15,2.15,0,0,0-.63-1.63,2.38,2.38,0,0,0-1.73-.61,4.31,4.31,0,0,0-1.52.27,6.44,6.44,0,0,0-1.59,1l-.77-1a5.92,5.92,0,0,1,3.86-1.47,4.11,4.11,0,0,1,2.84.92,3.18,3.18,0,0,1,1,2.49,4.77,4.77,0,0,1-.69,2.42,14.77,14.77,0,0,1-2.56,3l-2.81,2.75v.07Zm3.09-7.67a6,6,0,0,0,.32,2.24,1.1,1.1,0,0,0,1.06.75c1,0,1.44-1,1.44-3s-.48-3-1.44-3a1.1,1.1,0,0,0-1.06.74A6,6,0,0,0,597.25,168.54Zm4,0a5.53,5.53,0,0,1-.67,3,2.21,2.21,0,0,1-2,1,2.14,2.14,0,0,1-1.91-1,5.47,5.47,0,0,1-.69-3,5.56,5.56,0,0,1,.66-3,2.16,2.16,0,0,1,1.94-1,2.22,2.22,0,0,1,2,1,5.48,5.48,0,0,1,.68,3Zm3.71,5.15a5.79,5.79,0,0,0,.33,2.25,1.08,1.08,0,0,0,1.06.74,1.14,1.14,0,0,0,1.09-.73,5.57,5.57,0,0,0,.35-2.26,5.47,5.47,0,0,0-.35-2.23,1.15,1.15,0,0,0-1.09-.72,1.09,1.09,0,0,0-1.06.72,5.71,5.71,0,0,0-.33,2.23Zm4,0a5.49,5.49,0,0,1-.68,3,2.19,2.19,0,0,1-2,1,2.15,2.15,0,0,1-1.92-1.05,5.56,5.56,0,0,1-.67-3,5.66,5.66,0,0,1,.65-3,2.18,2.18,0,0,1,1.94-1,2.25,2.25,0,0,1,2,1A5.27,5.27,0,0,1,609,173.69Zm-3.56-9h1.29l-7.13,12.85h-1.29Z"/><path class="f" d="M633.68,378.82h-1.62l5.33-11.5h-7V366h8.55v1.17Zm8.3-9a6,6,0,0,0,.32,2.24,1.11,1.11,0,0,0,1.06.75c1,0,1.44-1,1.44-3s-.48-3-1.44-3a1.1,1.1,0,0,0-1.06.74A5.94,5.94,0,0,0,642,369.8Zm4,0a5.53,5.53,0,0,1-.67,3,2.2,2.2,0,0,1-2,1,2.17,2.17,0,0,1-1.91-1,7,7,0,0,1,0-6,2.15,2.15,0,0,1,1.94-1,2.2,2.2,0,0,1,2,1,5.4,5.4,0,0,1,.68,3Zm3.71,5.15a5.86,5.86,0,0,0,.33,2.25,1.1,1.1,0,0,0,1.06.74,1.15,1.15,0,0,0,1.09-.73,5.46,5.46,0,0,0,.35-2.26,5.27,5.27,0,0,0-.35-2.23,1.14,1.14,0,0,0-1.09-.72,1.1,1.1,0,0,0-1.06.72,5.68,5.68,0,0,0-.33,2.23Zm4,0a5.42,5.42,0,0,1-.68,3,2.2,2.2,0,0,1-2,1,2.15,2.15,0,0,1-1.92-1.05,7.15,7.15,0,0,1,0-6,2.16,2.16,0,0,1,1.94-1,2.21,2.21,0,0,1,1.95,1A5.25,5.25,0,0,1,653.75,375Zm-3.56-9h1.29l-7.13,12.85h-1.29Z"/></svg>