<svg xmlns="http://www.w3.org/2000/svg" viewBox="0 0 31.8 25"><path d="M29.5 22.1V8.5l-1.2 1.2c-3.2 2.4-5.7 4.4-7.5 6-1 .8-1.9 1.5-3 2.1-.6.3-1.2.4-1.8.4-1.9 0-3.5-1.4-4.8-2.5-1.9-1.6-4.4-3.6-7.6-6-.5-.4-.9-.8-1.3-1.2v13.6c0 .3.2.6.6.6H29c.2 0 .5-.3.5-.6zm0-18.6V2.6l-.1-.2-.1-.1H2.8c-.7 0-.6.9-.5 1.4.1.5.2 1.1.4 1.6.5 1 1.3 1.9 2.1 2.6 2.3 1.8 4.7 3.6 7.1 5.6.5.4 1 .9 1.6 1.3.6.5 1.4 1.1 2.3 1.1.9 0 1.8-.7 2.5-1.2.5-.4 1-.8 1.4-1.2 2.5-1.9 4.8-3.8 7.1-5.6.7-.6 1.2-1.2 1.7-2 .6-.7 1-1.5 1-2.4zm2.3-.7v19.3c0 1.5-1.3 2.9-2.9 2.9H2.8c-.8 0-1.5-.3-2-.8-.6-.5-.8-1.2-.8-2V2.8c0-.8.3-1.5.8-2S2 0 2.8 0h26.1c1.6 0 2.9 1.3 2.9 2.8z"/></svg>