<svg viewBox="0 0 21.8 25" xmlns="http://www.w3.org/2000/svg"><path d="m3.6 3.6-3.6 3.6h4.2c.6 0 .4 0 .5.5.1 1.5.9 2.8 2.1 3.8 1.1.9 2.5 1 3.8 1 0 .6-.1 1.3.1 1.9.1.3.4.6.1.8-.2.1-.6.1-.8.1-.4 0-.7.1-1 .2-2 .4-4.4 1.3-5.3 3.3-.3.8-.3 1.8-.2 2.6s.6 1.5 1.2 2c1.4 1.4 3.2 1.6 5.1 1.6s3.5-.1 5.2-1.1c1.9-1.1 3.2-2.9 3-5.2-.1-2.5-2.5-3.7-4-5.3-.5-.5-.4-.9 0-1.4.7-.9 1.7-1.6 2.4-2.5.6-.9.7-2.1.6-3.1 0-.3-.3-.9-.3-1.2 0-.2.3-.4.5-.5l.8-.8 1.6-1.6c0 .6-.2.9-.4 1.5-.2.8-.1 1.7-.1 2.5v4.5c0 .3-.1.8.2 1.1.3.4 1.3.3 1.5-.2.3-.7.2-1.6.2-2.2v-3c0-.9.1-1.9 0-2.8 0-.3-.1-.3-.3-.6-.3-.4-.3-1.3-.1-1.8.2-.6.8-.9 1.3-1.3h-13.4c-.5 0-1.1-.1-1.5.2-1.2 1.1-2.3 2.3-3.4 3.4zm7.7-.4c1.3.6 2 2 2.4 3.3s.6 3.2-.5 4.1c-.8.7-2 .9-2.9.3-1.6-.9-2.3-3-2.4-4.7-.1-1.8 1.4-3.9 3.4-3zm1.3 13.5c1.1.6 2.7 1.9 2.9 3.2.4 2-1.4 3.2-3.1 3.4-1.9.2-4 0-5.4-1.5-1.3-1.4-.8-3.5.7-4.4.8-.5 1.6-.7 2.5-.8.8 0 1.8-.2 2.4.1z"/></svg>