<svg height="202.490005" viewBox="62.64699936 120.50700378 356.64401245 202.49000549" width="356.644012" xmlns="http://www.w3.org/2000/svg" xmlns:xlink="http://www.w3.org/1999/xlink"><symbol id="a" viewBox="0 0 43.449 212.567"><path d="m.000021.000002h43.449v212.567h-43.449z" fill="#36c"/></symbol><use height="212.567001" transform="matrix(.69046545 0 0 .70565975 62.64706 157.486572)" width="43.449001" xlink:href="#a"/><use height="212.567001" transform="matrix(.69046545 0 0 .56452823 144.29068 187.486603)" width="43.449001" xlink:href="#a"/><use height="212.567001" transform="matrix(.69046545 0 0 .47044012 225.934296 207.486603)" width="43.449001" xlink:href="#a"/><use height="212.567001" transform="matrix(.69046438 0 0 .39987415 307.577942 222.486603)" width="43.449001" xlink:href="#a"/><use height="212.567001" transform="matrix(.69046438 0 0 .37635201 389.221558 227.486603)" width="43.449001" xlink:href="#a"/><path d="m62.834 307.155h356.457" fill="none" stroke="#666"/><g transform=""><path d="m69.69 321.971v.9h-5.63v-.84l2.25-2.27c.687-.693 1.14-1.187 1.36-1.48.22-.3.383-.59.49-.87.113-.28.17-.583.17-.91 0-.453-.14-.817-.42-1.09-.273-.267-.657-.4-1.15-.4-.36 0-.697.06-1.01.18-.32.113-.677.327-1.07.64l-.51-.67c.787-.653 1.647-.98 2.58-.98.8 0 1.43.207 1.89.62.453.413.68.967.68 1.66 0 .54-.15 1.077-.45 1.61-.307.533-.877 1.207-1.71 2.02l-1.88 1.83v.05zm6.901-3.39c0 1.48-.234 2.583-.7 3.31-.467.733-1.18 1.1-2.14 1.1-.92 0-1.62-.373-2.1-1.12-.48-.753-.72-1.85-.72-3.29 0-1.493.23-2.603.69-3.33.466-.72 1.176-1.08 2.13-1.08.933 0 1.64.377 2.12 1.13s.72 1.847.72 3.28zm-4.68 0c0 1.24.146 2.147.44 2.72.293.567.76.85 1.4.85.646 0 1.116-.287 1.41-.86.293-.58.44-1.483.44-2.71 0-1.233-.147-2.137-.44-2.71-.294-.573-.764-.86-1.41-.86-.64 0-1.107.283-1.4.85-.294.567-.44 1.473-.44 2.72zm11.541 0c0 1.48-.234 2.583-.7 3.31-.467.733-1.18 1.1-2.14 1.1-.92 0-1.62-.373-2.1-1.12-.48-.753-.72-1.85-.72-3.29 0-1.493.23-2.603.69-3.33.466-.72 1.176-1.08 2.13-1.08.933 0 1.64.377 2.12 1.13s.72 1.847.72 3.28zm-4.68 0c0 1.24.146 2.147.44 2.72.293.567.76.85 1.4.85.646 0 1.116-.287 1.41-.86.293-.58.44-1.483.44-2.71 0-1.233-.147-2.137-.44-2.71-.294-.573-.764-.86-1.41-.86-.64 0-1.107.283-1.4.85-.294.567-.44 1.473-.44 2.72zm11.17-2.26c0 .547-.153.993-.46 1.34-.306.347-.74.58-1.3.7v.05c.687.08 1.197.297 1.53.65.334.353.5.813.5 1.38 0 .82-.283 1.45-.85 1.89-.566.44-1.373.66-2.42.66-.453 0-.866-.037-1.24-.11-.38-.067-.746-.187-1.1-.36v-.92c.374.18.77.32 1.19.42.42.093.817.14 1.19.14 1.48 0 2.22-.58 2.22-1.74 0-1.04-.816-1.56-2.45-1.56h-.84v-.84h.85c.667 0 1.197-.147 1.59-.44.394-.293.59-.703.59-1.23 0-.413-.143-.74-.43-.98-.286-.24-.676-.36-1.17-.36-.38 0-.733.05-1.06.15-.333.107-.713.297-1.14.57l-.49-.66c.354-.273.757-.49 1.21-.65.46-.16.944-.24 1.45-.24.834 0 1.48.19 1.94.57s.69.903.69 1.57z" fill="#333"/><path d="m151.309 321.97v.9h-5.63v-.84l2.25-2.27c.687-.693 1.14-1.187 1.36-1.48.22-.3.383-.59.49-.87.113-.28.17-.583.17-.91 0-.453-.14-.817-.42-1.09-.273-.267-.657-.4-1.15-.4-.36 0-.697.06-1.01.18-.32.113-.677.327-1.07.64l-.51-.67c.787-.653 1.647-.98 2.58-.98.8 0 1.43.207 1.89.62.453.413.68.967.68 1.66 0 .54-.15 1.077-.45 1.61-.307.533-.877 1.207-1.71 2.02l-1.88 1.83v.05zm6.901-3.39c0 1.48-.234 2.583-.7 3.31-.467.733-1.18 1.1-2.14 1.1-.92 0-1.62-.373-2.1-1.12-.48-.753-.72-1.85-.72-3.29 0-1.493.23-2.603.69-3.33.466-.72 1.176-1.08 2.13-1.08.933 0 1.64.377 2.12 1.13s.72 1.847.72 3.28zm-4.68 0c0 1.24.146 2.147.44 2.72.293.567.76.85 1.4.85.646 0 1.116-.287 1.41-.86.293-.58.44-1.483.44-2.71 0-1.233-.147-2.137-.44-2.71-.294-.573-.764-.86-1.41-.86-.64 0-1.107.283-1.4.85-.294.567-.44 1.473-.44 2.72zm11.541 0c0 1.48-.234 2.583-.7 3.31-.467.733-1.18 1.1-2.14 1.1-.92 0-1.62-.373-2.1-1.12-.48-.753-.72-1.85-.72-3.29 0-1.493.23-2.603.69-3.33.466-.72 1.176-1.08 2.13-1.08.933 0 1.64.377 2.12 1.13s.72 1.847.72 3.28zm-4.68 0c0 1.24.146 2.147.44 2.72.293.567.76.85 1.4.85.646 0 1.116-.287 1.41-.86.293-.58.44-1.483.44-2.71 0-1.233-.147-2.137-.44-2.71-.294-.573-.764-.86-1.41-.86-.64 0-1.107.283-1.4.85-.294.567-.44 1.473-.44 2.72zm8.54-.94c.907 0 1.617.223 2.13.67.52.447.78 1.06.78 1.84 0 .887-.283 1.58-.85 2.08-.56.507-1.336.76-2.33.76-.966 0-1.703-.157-2.21-.47v-.93c.274.173.614.31 1.02.41.407.1.807.15 1.2.15.687 0 1.22-.163 1.6-.49.38-.32.57-.787.57-1.4 0-1.2-.73-1.8-2.19-1.8-.373 0-.87.057-1.49.17l-.51-.32.33-4.01h4.26v.9h-3.43l-.22 2.57c.454-.087.9-.13 1.34-.13z" fill="#333"/><path d="m232.94 321.977v.9h-5.63v-.84l2.25-2.27c.687-.693 1.14-1.187 1.36-1.48.22-.3.383-.59.49-.87.113-.28.17-.583.17-.91 0-.453-.14-.817-.42-1.09-.273-.267-.657-.4-1.15-.4-.36 0-.697.06-1.01.18-.32.113-.677.327-1.07.64l-.51-.67c.787-.653 1.647-.98 2.58-.98.8 0 1.43.207 1.89.62.453.413.68.967.68 1.66 0 .54-.15 1.077-.45 1.61-.307.533-.877 1.207-1.71 2.02l-1.88 1.83v.05zm6.901-3.39c0 1.48-.234 2.583-.7 3.31-.467.733-1.18 1.1-2.14 1.1-.92 0-1.62-.373-2.1-1.12-.48-.753-.72-1.85-.72-3.29 0-1.493.23-2.603.69-3.33.466-.72 1.176-1.08 2.13-1.08.933 0 1.64.377 2.12 1.13s.72 1.847.72 3.28zm-4.68 0c0 1.24.146 2.147.44 2.72.293.567.76.85 1.4.85.646 0 1.116-.287 1.41-.86.293-.58.44-1.483.44-2.71 0-1.233-.147-2.137-.44-2.71-.294-.573-.764-.86-1.41-.86-.64 0-1.107.283-1.4.85-.294.567-.44 1.473-.44 2.72zm11.541 0c0 1.48-.234 2.583-.7 3.31-.467.733-1.18 1.1-2.14 1.1-.92 0-1.62-.373-2.1-1.12-.48-.753-.72-1.85-.72-3.29 0-1.493.23-2.603.69-3.33.466-.72 1.176-1.08 2.13-1.08.933 0 1.64.377 2.12 1.13s.72 1.847.72 3.28zm-4.68 0c0 1.24.146 2.147.44 2.72.293.567.76.85 1.4.85.646 0 1.116-.287 1.41-.86.293-.58.44-1.483.44-2.71 0-1.233-.147-2.137-.44-2.71-.294-.573-.764-.86-1.41-.86-.64 0-1.107.283-1.4.85-.294.567-.44 1.473-.44 2.72zm8.03 4.29h-1.08l3.55-7.67h-4.67v-.9h5.7v.78z" fill="#333"/><path d="m314.57 321.972v.9h-5.63v-.84l2.25-2.27c.687-.693 1.14-1.187 1.36-1.48.22-.3.383-.59.49-.87.113-.28.17-.583.17-.91 0-.453-.14-.817-.42-1.09-.273-.267-.657-.4-1.15-.4-.36 0-.697.06-1.01.18-.32.113-.677.327-1.07.64l-.51-.67c.787-.653 1.647-.98 2.58-.98.8 0 1.43.207 1.89.62.453.413.68.967.68 1.66 0 .54-.15 1.077-.45 1.61-.307.533-.877 1.207-1.71 2.02l-1.88 1.83v.05zm6.901-3.39c0 1.48-.234 2.583-.7 3.31-.467.733-1.18 1.1-2.14 1.1-.92 0-1.62-.373-2.1-1.12-.48-.753-.72-1.85-.72-3.29 0-1.493.23-2.603.69-3.33.466-.72 1.176-1.08 2.13-1.08.933 0 1.64.377 2.12 1.13s.72 1.847.72 3.28zm-4.68 0c0 1.24.146 2.147.44 2.72.293.567.76.85 1.4.85.646 0 1.116-.287 1.41-.86.293-.58.44-1.483.44-2.71 0-1.233-.147-2.137-.44-2.71-.294-.573-.764-.86-1.41-.86-.64 0-1.107.283-1.4.85-.294.567-.44 1.473-.44 2.72zm11.541 0c0 1.48-.234 2.583-.7 3.31-.467.733-1.18 1.1-2.14 1.1-.92 0-1.62-.373-2.1-1.12-.48-.753-.72-1.85-.72-3.29 0-1.493.23-2.603.69-3.33.466-.72 1.176-1.08 2.13-1.08.933 0 1.64.377 2.12 1.13s.72 1.847.72 3.28zm-4.68 0c0 1.24.146 2.147.44 2.72.293.567.76.85 1.4.85.646 0 1.116-.287 1.41-.86.293-.58.44-1.483.44-2.71 0-1.233-.147-2.137-.44-2.71-.294-.573-.764-.86-1.41-.86-.64 0-1.107.283-1.4.85-.294.567-.44 1.473-.44 2.72zm11.5-.62c0 3.353-1.296 5.03-3.89 5.03-.453 0-.813-.04-1.08-.12v-.84c.314.1.667.15 1.06.15.94 0 1.65-.29 2.13-.87s.74-1.467.78-2.66h-.07c-.213.32-.5.567-.86.74-.353.167-.753.25-1.2.25-.753 0-1.353-.227-1.8-.68-.446-.453-.67-1.087-.67-1.9 0-.887.25-1.59.75-2.11.5-.513 1.154-.77 1.96-.77.587 0 1.097.15 1.53.45.434.3.77.737 1.01 1.31.234.567.35 1.24.35 2.02zm-2.89-2.95c-.553 0-.983.18-1.29.54-.306.36-.46.86-.46 1.5 0 .567.14 1.01.42 1.33.287.32.717.48 1.29.48.354 0 .68-.07.98-.21.3-.147.534-.347.7-.6.174-.247.26-.507.26-.78 0-.413-.08-.793-.24-1.14s-.383-.62-.67-.82c-.286-.2-.616-.3-.99-.3z" fill="#333"/><path d="m396.633 321.975v.9h-5.63v-.84l2.25-2.27c.687-.693 1.14-1.187 1.36-1.48.22-.3.383-.59.49-.87.113-.28.17-.583.17-.91 0-.453-.14-.817-.42-1.09-.273-.267-.657-.4-1.15-.4-.36 0-.697.06-1.01.18-.32.113-.677.327-1.07.64l-.51-.67c.787-.653 1.647-.98 2.58-.98.8 0 1.43.207 1.89.62.453.413.68.967.68 1.66 0 .54-.15 1.077-.45 1.61-.307.533-.877 1.207-1.71 2.02l-1.88 1.83v.05zm6.901-3.39c0 1.48-.234 2.583-.7 3.31-.467.733-1.18 1.1-2.14 1.1-.92 0-1.62-.373-2.1-1.12-.48-.753-.72-1.85-.72-3.29 0-1.493.23-2.603.69-3.33.466-.72 1.176-1.08 2.13-1.08.933 0 1.64.377 2.12 1.13s.72 1.847.72 3.28zm-4.68 0c0 1.24.146 2.147.44 2.72.293.567.76.85 1.4.85.646 0 1.116-.287 1.41-.86.293-.58.44-1.483.44-2.71 0-1.233-.147-2.137-.44-2.71-.294-.573-.764-.86-1.41-.86-.64 0-1.107.283-1.4.85-.294.567-.44 1.473-.44 2.72zm9.471-4.28v8.57h-.95v-6.11c0-.507.016-.987.05-1.44-.087.087-.18.173-.28.26-.1.093-.564.473-1.39 1.14l-.52-.66 2.27-1.76zm6.86 0v8.57h-.95v-6.11c0-.507.017-.987.05-1.44-.086.087-.18.173-.28.26-.1.093-.563.473-1.39 1.14l-.52-.66 2.27-1.76z" fill="#333"/><path d="m71.424 164.587c0 .547-.153.993-.46 1.34s-.74.58-1.3.7v.05c.687.08 1.197.297 1.53.65s.5.813.5 1.38c0 .82-.283 1.45-.85 1.89s-1.373.66-2.42.66c-.453 0-.867-.037-1.24-.11-.38-.067-.747-.187-1.1-.36v-.92c.373.18.77.32 1.19.42.42.093.817.14 1.19.14 1.48 0 2.22-.58 2.22-1.74 0-1.04-.817-1.56-2.45-1.56h-.84v-.84h.85c.667 0 1.197-.147 1.59-.44s.59-.703.59-1.23c0-.413-.143-.74-.43-.98s-.677-.36-1.17-.36c-.38 0-.733.05-1.06.15-.333.107-.713.297-1.14.57l-.49-.66c.353-.273.757-.49 1.21-.65.46-.16.943-.24 1.45-.24.833 0 1.48.19 1.94.57s.69.903.69 1.57zm7.231 2.26c0 1.48-.234 2.583-.7 3.31-.467.733-1.18 1.1-2.14 1.1-.92 0-1.62-.373-2.1-1.12-.48-.753-.72-1.85-.72-3.29 0-1.493.23-2.603.69-3.33.466-.72 1.176-1.08 2.13-1.08.933 0 1.64.377 2.12 1.13s.72 1.847.72 3.28zm-4.68 0c0 1.24.146 2.147.44 2.72.293.567.76.85 1.4.85.646 0 1.116-.287 1.41-.86.293-.58.44-1.483.44-2.71 0-1.233-.147-2.137-.44-2.71-.294-.573-.764-.86-1.41-.86-.64 0-1.107.283-1.4.85-.294.567-.44 1.473-.44 2.72zm6.701-1.72c0 .66.07 1.157.21 1.49.146.333.383.5.71.5.64 0 .96-.663.96-1.99 0-1.32-.32-1.98-.96-1.98-.327 0-.564.163-.71.49-.14.327-.21.823-.21 1.49zm2.68 0c0 .887-.15 1.56-.45 2.02-.294.453-.73.68-1.31.68-.547 0-.974-.233-1.28-.7-.3-.467-.45-1.133-.45-2 0-.887.146-1.557.44-2.01.286-.447.716-.67 1.29-.67.566 0 1 .233 1.3.7.306.467.46 1.127.46 1.98zm2.47 3.43c0 .667.073 1.167.22 1.5.146.327.383.49.71.49.326 0 .57-.163.73-.49.153-.32.23-.82.23-1.5 0-.667-.077-1.16-.23-1.48-.16-.327-.404-.49-.73-.49-.327 0-.564.163-.71.49-.147.32-.22.813-.22 1.48zm2.69 0c0 .887-.147 1.557-.44 2.01-.3.46-.74.69-1.32.69-.554 0-.98-.233-1.28-.7s-.45-1.133-.45-2c0-.887.146-1.553.44-2 .286-.453.716-.68 1.29-.68.553 0 .986.23 1.3.69.306.46.46 1.123.46 1.99zm-2.37-5.99h.86l-4.75 8.57h-.86z" fill="#fff"/><path d="m154.319 200.316v.9h-5.63v-.84l2.25-2.27c.687-.693 1.14-1.187 1.36-1.48.22-.3.383-.59.49-.87.113-.28.17-.583.17-.91 0-.453-.14-.817-.42-1.09-.273-.267-.657-.4-1.15-.4-.36 0-.697.06-1.01.18-.32.113-.677.327-1.07.64l-.51-.67c.787-.653 1.647-.98 2.58-.98.8 0 1.43.207 1.89.62.453.413.68.967.68 1.66 0 .54-.15 1.077-.45 1.61-.307.533-.877 1.207-1.71 2.02l-1.88 1.83v.05zm7.261-1.95v.88h-1.27v1.97h-.93v-1.97h-4.17v-.85l4.07-5.79h1.03v5.76zm-5.4 0h3.2v-2.85c0-.56.02-1.19.06-1.89h-.05c-.187.373-.364.683-.53.93zm7.061-3.16c0 .66.07 1.157.21 1.49.146.333.383.5.71.5.64 0 .96-.663.96-1.99 0-1.32-.32-1.98-.96-1.98-.327 0-.564.163-.71.49-.14.327-.21.823-.21 1.49zm2.68 0c0 .887-.15 1.56-.45 2.02-.294.453-.73.68-1.31.68-.547 0-.974-.233-1.28-.7-.3-.467-.45-1.133-.45-2 0-.887.146-1.557.44-2.01.286-.447.716-.67 1.29-.67.566 0 1 .233 1.3.7.306.467.46 1.127.46 1.98zm2.47 3.43c0 .667.073 1.167.22 1.5.146.327.383.49.71.49.326 0 .57-.163.73-.49.153-.32.23-.82.23-1.5 0-.667-.077-1.16-.23-1.48-.16-.327-.404-.49-.73-.49-.327 0-.564.163-.71.49-.147.32-.22.813-.22 1.48zm2.69 0c0 .887-.147 1.557-.44 2.01-.3.46-.74.69-1.32.69-.554 0-.98-.233-1.28-.7s-.45-1.133-.45-2c0-.887.146-1.553.44-2 .286-.453.716-.68 1.29-.68.553 0 .986.23 1.3.69.306.46.46 1.123.46 1.99zm-2.37-5.99h.86l-4.75 8.57h-.86z" fill="#fff"/><path d="m314.722 227.736v8.57h-.95v-6.11c0-.507.017-.987.05-1.44-.087.087-.18.173-.28.26-.1.093-.563.473-1.39 1.14l-.52-.66 2.27-1.76zm5.421 8.57h-1.08l3.55-7.67h-4.67v-.9h5.7v.78zm5.531-6.01c0 .66.07 1.157.21 1.49.146.333.383.5.71.5.64 0 .96-.663.96-1.99 0-1.32-.32-1.98-.96-1.98-.327 0-.564.163-.71.49-.14.327-.21.823-.21 1.49zm2.68 0c0 .887-.15 1.56-.45 2.02-.294.453-.73.68-1.31.68-.547 0-.974-.233-1.28-.7-.3-.467-.45-1.133-.45-2 0-.887.146-1.557.44-2.01.286-.447.716-.67 1.29-.67.566 0 1 .233 1.3.7.306.467.46 1.127.46 1.98zm2.47 3.43c0 .667.073 1.167.22 1.5.146.327.383.49.71.49.326 0 .57-.163.73-.49.153-.32.23-.82.23-1.5 0-.667-.077-1.16-.23-1.48-.16-.327-.404-.49-.73-.49-.327 0-.564.163-.71.49-.147.32-.22.813-.22 1.48zm2.69 0c0 .887-.147 1.557-.44 2.01-.3.46-.74.69-1.32.69-.554 0-.98-.233-1.28-.7s-.45-1.133-.45-2c0-.887.146-1.553.44-2 .286-.453.716-.68 1.29-.68.553 0 .986.23 1.3.69.306.46.46 1.123.46 1.99zm-2.37-5.99h.86l-4.75 8.57h-.86z" fill="#fff"/><path d="m236.201 220.706v.9h-5.63v-.84l2.25-2.27c.687-.693 1.14-1.187 1.36-1.48.22-.3.383-.59.49-.87.113-.28.17-.583.17-.91 0-.453-.14-.817-.42-1.09-.273-.267-.657-.4-1.15-.4-.36 0-.697.06-1.01.18-.32.113-.677.327-1.07.64l-.51-.67c.787-.653 1.647-.98 2.58-.98.8 0 1.43.207 1.89.62.453.413.68.967.68 1.66 0 .54-.15 1.077-.45 1.61-.307.533-.877 1.207-1.71 2.02l-1.88 1.83v.05zm6.901-3.39c0 1.48-.234 2.583-.7 3.31-.467.733-1.18 1.1-2.14 1.1-.92 0-1.62-.373-2.1-1.12-.48-.753-.72-1.85-.72-3.29 0-1.493.23-2.603.69-3.33.466-.72 1.176-1.08 2.13-1.08.933 0 1.64.377 2.12 1.13s.72 1.847.72 3.28zm-4.68 0c0 1.24.146 2.147.44 2.72.293.567.76.85 1.4.85.646 0 1.116-.287 1.41-.86.293-.58.44-1.483.44-2.71 0-1.233-.147-2.137-.44-2.71-.294-.573-.764-.86-1.41-.86-.64 0-1.107.283-1.4.85-.294.567-.44 1.473-.44 2.72zm6.701-1.72c0 .66.07 1.157.21 1.49.146.333.383.5.71.5.64 0 .96-.663.96-1.99 0-1.32-.32-1.98-.96-1.98-.327 0-.564.163-.71.49-.14.327-.21.823-.21 1.49zm2.68 0c0 .887-.15 1.56-.45 2.02-.294.453-.73.68-1.31.68-.547 0-.974-.233-1.28-.7-.3-.467-.45-1.133-.45-2 0-.887.146-1.557.44-2.01.286-.447.716-.67 1.29-.67.566 0 1 .233 1.3.7.306.467.46 1.127.46 1.98zm2.47 3.43c0 .667.073 1.167.22 1.5.146.327.383.49.71.49.326 0 .57-.163.73-.49.153-.32.23-.82.23-1.5 0-.667-.077-1.16-.23-1.48-.16-.327-.404-.49-.73-.49-.327 0-.564.163-.71.49-.147.32-.22.813-.22 1.48zm2.69 0c0 .887-.147 1.557-.44 2.01-.3.46-.74.69-1.32.69-.554 0-.98-.233-1.28-.7s-.45-1.133-.45-2c0-.887.146-1.553.44-2 .286-.453.716-.68 1.29-.68.553 0 .986.23 1.3.69.306.46.46 1.123.46 1.99zm-2.37-5.99h.86l-4.75 8.57h-.86z" fill="#fff"/></g><path d="m397.941 232.079v8.57h-.95v-6.11c0-.507.017-.987.05-1.44-.087.087-.18.173-.28.26-.1.093-.563.473-1.39 1.14l-.52-.66 2.27-1.76zm3.361 4.91c0-1.687.326-2.947.98-3.78.653-.833 1.62-1.25 2.9-1.25.44 0 .786.037 1.04.11v.84c-.3-.1-.644-.15-1.03-.15-.914 0-1.614.287-2.1.86-.487.573-.754 1.473-.8 2.7h.07c.433-.673 1.113-1.01 2.04-1.01.773 0 1.38.233 1.82.7.446.467.67 1.097.67 1.89 0 .893-.244 1.593-.73 2.1-.487.513-1.147.77-1.98.77-.887 0-1.59-.333-2.11-1-.514-.667-.77-1.593-.77-2.78zm2.87 2.95c.553 0 .983-.173 1.29-.52.306-.353.46-.86.46-1.52 0-.567-.14-1.01-.42-1.33-.287-.327-.714-.49-1.28-.49-.354 0-.677.073-.97.22-.294.14-.527.337-.7.59-.174.253-.26.52-.26.8 0 .4.08.773.24 1.12.153.347.373.623.66.83.286.2.613.3.98.3zm4.721-5.3c0 .66.07 1.157.21 1.49.146.333.383.5.71.5.64 0 .96-.663.96-1.99 0-1.32-.32-1.98-.96-1.98-.327 0-.564.163-.71.49-.14.327-.21.823-.21 1.49zm2.68 0c0 .887-.15 1.56-.45 2.02-.294.453-.73.68-1.31.68-.547 0-.974-.233-1.28-.7-.3-.467-.45-1.133-.45-2 0-.887.146-1.557.44-2.01.286-.447.716-.67 1.29-.67.566 0 1 .233 1.3.7.306.467.46 1.127.46 1.98zm2.47 3.43c0 .667.073 1.167.22 1.5.146.327.383.49.71.49.326 0 .57-.163.73-.49.153-.32.23-.82.23-1.5 0-.667-.077-1.16-.23-1.48-.16-.327-.404-.49-.73-.49-.327 0-.564.163-.71.49-.147.32-.22.813-.22 1.48zm2.69 0c0 .887-.147 1.557-.44 2.01-.3.46-.74.69-1.32.69-.554 0-.98-.233-1.28-.7s-.45-1.133-.45-2c0-.887.146-1.553.44-2 .286-.453.716-.68 1.29-.68.553 0 .986.23 1.3.69.306.46.46 1.123.46 1.99zm-2.37-5.99h.86l-4.75 8.57h-.86z" fill="#fff" transform="matrix(1 0 0 1.00000095 -.668457 .678863)"/><path d="m65.699 125.359v3.66h-.99v-8.57h4.77v.89h-3.78v3.13h3.55v.89zm6.023-2.76v6.42h-.97v-6.42zm-1.05-1.74c0-.227.053-.39.16-.49.113-.107.25-.16.41-.16s.297.053.41.16.17.27.17.49-.057.383-.17.49-.25.16-.41.16-.297-.053-.41-.16c-.107-.107-.16-.27-.16-.49zm6.155 1.74h2.22v.61l-1.19.14c.106.14.203.32.29.54.086.22.13.47.13.75 0 .627-.214 1.127-.64 1.5-.434.38-1.024.57-1.77.57-.194 0-.374-.017-.54-.05-.414.22-.62.493-.62.82 0 .18.07.31.21.39.146.087.396.13.75.13h1.13c.7 0 1.236.147 1.61.44.373.293.56.72.56 1.28 0 .707-.287 1.247-.86 1.62-.574.373-1.407.56-2.5.56-.84 0-1.487-.157-1.94-.47-.454-.307-.68-.747-.68-1.32 0-.393.123-.73.37-1.01.253-.287.606-.48 1.06-.58-.167-.08-.304-.197-.41-.35-.114-.153-.17-.333-.17-.54 0-.24.063-.447.19-.62.12-.173.316-.343.59-.51-.334-.133-.604-.367-.81-.7-.214-.327-.32-.7-.32-1.12 0-.707.213-1.25.64-1.63.42-.38 1.016-.57 1.79-.57.333 0 .636.04.91.12zm-2.9 7.5c0 .347.146.61.44.79.286.18.706.27 1.26.27.813 0 1.416-.123 1.81-.37.393-.24.59-.57.59-.99 0-.347-.107-.587-.32-.72-.22-.14-.627-.21-1.22-.21h-1.16c-.447 0-.79.107-1.03.32-.247.213-.37.517-.37.91zm.52-5.45c0 .453.126.793.38 1.02.26.233.613.35 1.06.35.953 0 1.43-.46 1.43-1.38 0-.967-.48-1.45-1.44-1.45-.46 0-.814.123-1.06.37-.247.247-.37.61-.37 1.09zm5.844-2.05h.99v4.16c0 .527.116.92.35 1.18.24.253.613.38 1.12.38.673 0 1.166-.183 1.48-.55.306-.367.46-.967.46-1.8v-3.37h.97v6.42h-.8l-.14-.86h-.05c-.2.313-.477.557-.83.73-.354.167-.757.25-1.21.25-.78 0-1.367-.187-1.76-.56-.387-.373-.58-.967-.58-1.78zm10.364-.12c.287 0 .543.023.77.07l-.14.9c-.26-.053-.493-.08-.7-.08-.52 0-.963.21-1.33.63-.373.42-.56.943-.56 1.57v3.45h-.97v-6.42h.8l.12 1.19h.04c.24-.42.527-.743.86-.97.34-.227.71-.34 1.11-.34zm4.678 6.66c-.946 0-1.693-.29-2.24-.87-.553-.58-.83-1.383-.83-2.41 0-1.033.257-1.857.77-2.47.507-.607 1.19-.91 2.05-.91.807 0 1.444.263 1.91.79.474.533.71 1.233.71 2.1v.61h-4.43c.02.76.21 1.333.57 1.72.36.393.87.59 1.53.59.694 0 1.377-.147 2.05-.44v.87c-.346.147-.673.253-.98.32-.306.067-.676.1-1.11.1zm-.26-5.84c-.513 0-.923.167-1.23.5-.306.333-.486.797-.54 1.39h3.35c0-.613-.136-1.083-.41-1.41-.273-.32-.663-.48-1.17-.48zm10.559-2.85v8.57h-.95v-6.11c0-.507.017-.987.05-1.44-.087.087-.18.173-.28.26-.1.093-.563.473-1.39 1.14l-.52-.66 2.27-1.76zm3.561 7.95c0-.26.06-.46.18-.6.12-.133.29-.2.51-.2.227 0 .403.067.53.2.127.14.19.34.19.6 0 .253-.063.447-.19.58-.127.14-.303.21-.53.21-.2 0-.363-.06-.49-.18-.133-.127-.2-.33-.2-.61zm0-5.17c0-.533.23-.8.69-.8.48 0 .72.267.72.8 0 .253-.063.447-.19.58-.127.14-.303.21-.53.21-.2 0-.363-.063-.49-.19-.133-.12-.2-.32-.2-.6zm9.23-1.89v7.68h-.99v-7.68h-2.71v-.89h6.42v.89zm9.228 7.68h-.97v-4.15c0-.527-.12-.92-.36-1.18-.24-.253-.613-.38-1.12-.38-.673 0-1.167.183-1.48.55s-.47.967-.47 1.8v3.36h-.97v-9.12h.97v2.76c0 .333-.013.61-.04.83h.06c.187-.307.457-.55.81-.73s.757-.27 1.21-.27c.787 0 1.377.187 1.77.56s.59.967.59 1.78zm4.705.12c-.947 0-1.694-.29-2.24-.87-.554-.58-.83-1.383-.83-2.41 0-1.033.256-1.857.77-2.47.506-.607 1.19-.91 2.05-.91.806 0 1.443.263 1.91.79.473.533.71 1.233.71 2.1v.61h-4.43c.02.76.21 1.333.57 1.72.36.393.87.59 1.53.59.693 0 1.376-.147 2.05-.44v.87c-.347.147-.674.253-.98.32-.307.067-.677.1-1.11.1zm-.26-5.84c-.514 0-.924.167-1.23.5-.307.333-.487.797-.54 1.39h3.35c0-.613-.137-1.083-.41-1.41-.274-.32-.664-.48-1.17-.48zm10.389 5.84c-.42 0-.804-.077-1.15-.23-.34-.16-.63-.4-.87-.72h-.07c.046.38.07.737.07 1.07v2.64h-.97v-9.3h.79l.14.88h.04c.253-.353.546-.607.88-.76.333-.16.713-.24 1.14-.24.853 0 1.51.29 1.97.87.466.587.7 1.403.7 2.45 0 1.06-.237 1.88-.71 2.46-.474.587-1.127.88-1.96.88zm-.14-5.83c-.66 0-1.134.18-1.42.54-.294.367-.447.947-.46 1.74v.21c0 .907.153 1.553.46 1.94.3.387.78.58 1.44.58.553 0 .99-.223 1.31-.67.313-.447.47-1.067.47-1.86 0-.8-.157-1.413-.47-1.84-.32-.427-.764-.64-1.33-.64zm7.213 5.83c-.947 0-1.694-.29-2.24-.87-.554-.58-.83-1.383-.83-2.41 0-1.033.256-1.857.77-2.47.506-.607 1.19-.91 2.05-.91.806 0 1.443.263 1.91.79.473.533.71 1.233.71 2.1v.61h-4.43c.02.76.21 1.333.57 1.72.36.393.87.59 1.53.59.693 0 1.376-.147 2.05-.44v.87c-.347.147-.674.253-.98.32-.307.067-.677.1-1.11.1zm-.26-5.84c-.514 0-.924.167-1.23.5-.307.333-.487.797-.54 1.39h3.35c0-.613-.137-1.083-.41-1.41-.274-.32-.664-.48-1.17-.48zm7.211-.82c.287 0 .544.023.77.07l-.14.9c-.26-.053-.493-.08-.7-.08-.52 0-.963.21-1.33.63-.373.42-.56.943-.56 1.57v3.45h-.97v-6.42h.8l.12 1.19h.04c.24-.42.527-.743.86-.97.34-.227.71-.34 1.11-.34zm4.538 6.66c-.933 0-1.653-.287-2.16-.86-.513-.573-.77-1.383-.77-2.43 0-1.073.26-1.903.78-2.49s1.257-.88 2.21-.88c.314 0 .624.033.93.1.307.067.547.143.72.23l-.29.83c-.22-.087-.456-.157-.71-.21-.253-.06-.476-.09-.67-.09-1.306 0-1.96.833-1.96 2.5 0 .787.16 1.39.48 1.81.32.427.79.64 1.41.64.54 0 1.09-.117 1.65-.35v.86c-.426.227-.966.34-1.62.34zm5.853 0c-.947 0-1.693-.29-2.24-.87-.553-.58-.83-1.383-.83-2.41 0-1.033.257-1.857.77-2.47.507-.607 1.19-.91 2.05-.91.807 0 1.443.263 1.91.79.473.533.71 1.233.71 2.1v.61h-4.43c.02.76.21 1.333.57 1.72.36.393.87.59 1.53.59.693 0 1.377-.147 2.05-.44v.87c-.347.147-.673.253-.98.32s-.677.1-1.11.1zm-.26-5.84c-.513 0-.923.167-1.23.5s-.487.797-.54 1.39h3.35c0-.613-.137-1.083-.41-1.41-.273-.32-.663-.48-1.17-.48zm9.652 5.72h-.97v-4.15c0-.527-.12-.92-.36-1.18-.24-.253-.614-.38-1.12-.38-.674 0-1.167.18-1.48.54-.314.367-.47.967-.47 1.8v3.37h-.97v-6.42h.79l.16.88h.05c.2-.32.48-.567.84-.74.353-.173.753-.26 1.2-.26.773 0 1.353.187 1.74.56.393.373.59.97.59 1.79zm4.074-.69c.167 0 .33-.01.49-.03.16-.027.287-.053.38-.08v.74c-.1.053-.253.097-.46.13-.206.033-.393.05-.56.05-1.24 0-1.86-.657-1.86-1.97v-3.82h-.92v-.46l.92-.41.41-1.37h.56v1.49h1.87v.75h-1.87v3.78c0 .387.094.683.28.89.187.207.44.31.76.31zm10.813-2.53c0 1.047-.263 1.867-.79 2.46-.526.587-1.253.88-2.18.88-.573 0-1.083-.137-1.53-.41-.446-.267-.79-.653-1.03-1.16-.246-.5-.37-1.09-.37-1.77 0-1.047.264-1.86.79-2.44.52-.587 1.247-.88 2.18-.88.9 0 1.614.3 2.14.9.527.593.79 1.4.79 2.42zm-4.89 0c0 .82.164 1.447.49 1.88.334.427.817.64 1.45.64.64 0 1.124-.213 1.45-.64.334-.427.5-1.053.5-1.88 0-.813-.166-1.433-.5-1.86-.326-.42-.813-.63-1.46-.63-.64 0-1.12.207-1.44.62-.326.42-.49 1.043-.49 1.87zm9.498-3.2v.75h-1.64v5.67h-.97v-5.67h-1.15v-.44l1.15-.35v-.35c0-1.58.69-2.37 2.07-2.37.34 0 .737.067 1.19.2l-.25.78c-.373-.12-.693-.18-.96-.18-.367 0-.64.123-.82.37-.173.24-.26.63-.26 1.17v.42zm6.363 5.73c.167 0 .33-.01.49-.03.16-.027.287-.053.38-.08v.74c-.1.053-.253.097-.46.13s-.393.05-.56.05c-1.24 0-1.86-.657-1.86-1.97v-3.82h-.92v-.46l.92-.41.41-1.37h.56v1.49h1.87v.75h-1.87v3.78c0 .387.093.683.28.89s.44.31.76.31zm7.526.69h-.97v-4.15c0-.527-.12-.92-.36-1.18-.24-.253-.613-.38-1.12-.38-.673 0-1.167.183-1.48.55s-.47.967-.47 1.8v3.36h-.97v-9.12h.97v2.76c0 .333-.013.61-.04.83h.06c.187-.307.457-.55.81-.73s.757-.27 1.21-.27c.787 0 1.377.187 1.77.56s.59.967.59 1.78zm4.705.12c-.947 0-1.694-.29-2.24-.87-.554-.58-.83-1.383-.83-2.41 0-1.033.256-1.857.77-2.47.506-.607 1.19-.91 2.05-.91.806 0 1.443.263 1.91.79.473.533.71 1.233.71 2.1v.61h-4.43c.02.76.21 1.333.57 1.72.36.393.87.59 1.53.59.693 0 1.376-.147 2.05-.44v.87c-.347.147-.674.253-.98.32-.307.067-.677.1-1.11.1zm-.26-5.84c-.514 0-.924.167-1.23.5-.307.333-.487.797-.54 1.39h3.35c0-.613-.137-1.083-.41-1.41-.274-.32-.664-.48-1.17-.48zm8.368-3.4v9.12h-.97v-9.12zm3.035 2.7v6.42h-.97v-6.42zm-1.05-1.74c0-.227.054-.39.16-.49.114-.107.25-.16.41-.16s.297.053.41.16c.114.107.17.27.17.49s-.056.383-.17.49c-.113.107-.25.16-.41.16s-.296-.053-.41-.16c-.106-.107-.16-.27-.16-.49zm6.105 1.63c.847 0 1.504.29 1.97.87.467.573.7 1.387.7 2.44 0 1.06-.236 1.88-.71 2.46-.473.587-1.126.88-1.96.88-.42 0-.803-.077-1.15-.23-.34-.16-.63-.4-.87-.72h-.07l-.2.83h-.7v-9.12h.97v2.22c0 .493-.013.937-.04 1.33h.04c.454-.64 1.127-.96 2.02-.96zm-.14.82c-.666 0-1.146.19-1.44.57-.293.38-.44 1.02-.44 1.92 0 .907.154 1.553.46 1.94.3.387.78.58 1.44.58.6 0 1.047-.217 1.34-.65.294-.433.44-1.06.44-1.88 0-.833-.146-1.457-.44-1.87-.293-.407-.746-.61-1.36-.61zm7.433-.83c.287 0 .544.023.77.07l-.14.9c-.26-.053-.493-.08-.7-.08-.52 0-.963.21-1.33.63-.373.42-.56.943-.56 1.57v3.45h-.97v-6.42h.8l.12 1.19h.04c.24-.42.527-.743.86-.97.34-.227.71-.34 1.11-.34zm6.638 6.54h-.72l-.19-.91h-.05c-.32.4-.64.67-.96.81-.32.147-.716.22-1.19.22-.64 0-1.14-.167-1.5-.5-.36-.327-.54-.793-.54-1.4 0-1.293 1.037-1.97 3.11-2.03l1.09-.04v-.4c0-.5-.106-.87-.32-1.11-.22-.24-.566-.36-1.04-.36-.54 0-1.146.163-1.82.49l-.3-.75c.32-.167.667-.3 1.04-.4.38-.1.76-.15 1.14-.15.76 0 1.327.17 1.7.51.367.34.55.887.55 1.64zm-2.92-.69c.607 0 1.084-.163 1.43-.49.347-.333.52-.8.52-1.4v-.58l-.97.04c-.773.027-1.333.147-1.68.36-.34.213-.51.547-.51 1 0 .347.107.613.32.8.214.18.51.27.89.27zm7.854-5.85c.286 0 .543.023.77.07l-.14.9c-.26-.053-.494-.08-.7-.08-.52 0-.964.21-1.33.63-.374.42-.56.943-.56 1.57v3.45h-.97v-6.42h.8l.12 1.19h.04c.24-.42.526-.743.86-.97.34-.227.71-.34 1.11-.34zm3.538 6.58-2.59-6.46h1.04l1.41 3.66c.306.833.5 1.437.58 1.81h.04c.053-.2.16-.54.32-1.02.16-.487.69-1.97 1.59-4.45h1.05l-2.76 7.31c-.274.72-.594 1.233-.96 1.54-.367.3-.817.45-1.35.45-.294 0-.587-.033-.88-.1v-.78c.22.047.46.07.72.07.673 0 1.15-.373 1.43-1.12zm4.186-8.61h1.07l.09.13c-.1.393-.247.847-.44 1.36-.193.52-.393 1.003-.6 1.45h-.71c.273-1.113.47-2.093.59-2.94zm6.469 6.82c0 .593-.22 1.053-.66 1.38-.447.327-1.073.49-1.88.49-.853 0-1.517-.137-1.99-.41v-.9c.307.153.637.277.99.37.353.087.693.13 1.02.13.513 0 .907-.08 1.18-.24s.41-.407.41-.74c0-.247-.11-.46-.33-.64-.213-.18-.637-.39-1.27-.63-.593-.227-1.017-.42-1.27-.58-.253-.167-.44-.357-.56-.57-.127-.213-.19-.467-.19-.76 0-.52.213-.93.64-1.23.427-.307 1.01-.46 1.75-.46.693 0 1.37.14 2.03.42l-.35.79c-.64-.26-1.223-.39-1.75-.39-.46 0-.807.07-1.04.21-.233.147-.35.347-.35.6 0 .173.043.32.13.44s.227.233.42.34c.2.113.577.273 1.13.48.76.28 1.273.56 1.54.84s.4.633.4 1.06zm7.271 1.87c-.933 0-1.653-.287-2.16-.86-.513-.573-.77-1.383-.77-2.43 0-1.073.26-1.903.78-2.49s1.257-.88 2.21-.88c.313 0 .623.033.93.1s.547.143.72.23l-.29.83c-.22-.087-.457-.157-.71-.21-.253-.06-.477-.09-.67-.09-1.307 0-1.96.833-1.96 2.5 0 .787.16 1.39.48 1.81.32.427.79.64 1.41.64.54 0 1.09-.117 1.65-.35v.86c-.427.227-.967.34-1.62.34zm8.683-3.34c0 1.047-.264 1.867-.79 2.46-.527.587-1.254.88-2.18.88-.574 0-1.084-.137-1.53-.41-.447-.267-.79-.653-1.03-1.16-.247-.5-.37-1.09-.37-1.77 0-1.047.263-1.86.79-2.44.52-.587 1.246-.88 2.18-.88.9 0 1.613.3 2.14.9.526.593.79 1.4.79 2.42zm-4.89 0c0 .82.163 1.447.49 1.88.333.427.816.64 1.45.64.64 0 1.123-.213 1.45-.64.333-.427.5-1.053.5-1.88 0-.813-.167-1.433-.5-1.86-.327-.42-.814-.63-1.46-.63-.64 0-1.12.207-1.44.62-.327.42-.49 1.043-.49 1.87zm7.567-5.9v9.12h-.97v-9.12zm3.035 0v9.12h-.97v-9.12zm4.775 9.24c-.947 0-1.694-.29-2.24-.87-.554-.58-.83-1.383-.83-2.41 0-1.033.256-1.857.77-2.47.506-.607 1.19-.91 2.05-.91.806 0 1.443.263 1.91.79.473.533.71 1.233.71 2.1v.61h-4.43c.02.76.21 1.333.57 1.72.36.393.87.59 1.53.59.693 0 1.377-.147 2.05-.44v.87c-.347.147-.673.253-.98.32s-.677.1-1.11.1zm-.26-5.84c-.513 0-.923.167-1.23.5s-.487.797-.54 1.39h3.35c0-.613-.137-1.083-.41-1.41-.273-.32-.664-.48-1.17-.48zm6.852 5.84c-.934 0-1.654-.287-2.16-.86-.514-.573-.77-1.383-.77-2.43 0-1.073.26-1.903.78-2.49s1.256-.88 2.21-.88c.313 0 .623.033.93.1.306.067.546.143.72.23l-.29.83c-.22-.087-.457-.157-.71-.21-.254-.06-.477-.09-.67-.09-1.307 0-1.96.833-1.96 2.5 0 .787.16 1.39.48 1.81.32.427.79.64 1.41.64.54 0 1.09-.117 1.65-.35v.86c-.427.227-.967.34-1.62.34zm5.222-.81c.167 0 .33-.01.49-.03.16-.027.287-.053.38-.08v.74c-.1.053-.253.097-.46.13s-.393.05-.56.05c-1.24 0-1.86-.657-1.86-1.97v-3.82h-.92v-.46l.92-.41.41-1.37h.56v1.49h1.87v.75h-1.87v3.78c0 .387.093.683.28.89s.44.31.76.31zm3.126-5.73v6.42h-.97v-6.42zm-1.05-1.74c0-.227.054-.39.16-.49.114-.107.25-.16.41-.16s.297.053.41.16c.114.107.17.27.17.49s-.056.383-.17.49c-.113.107-.25.16-.41.16s-.296-.053-.41-.16c-.106-.107-.16-.27-.16-.49zm8.655 4.94c0 1.047-.263 1.867-.79 2.46-.527.587-1.253.88-2.18.88-.573 0-1.083-.137-1.53-.41-.447-.267-.79-.653-1.03-1.16-.247-.5-.37-1.09-.37-1.77 0-1.047.263-1.86.79-2.44.52-.587 1.247-.88 2.18-.88.9 0 1.613.3 2.14.9.527.593.79 1.4.79 2.42zm-4.89 0c0 .82.163 1.447.49 1.88.333.427.817.64 1.45.64.64 0 1.123-.213 1.45-.64.333-.427.5-1.053.5-1.88 0-.813-.167-1.433-.5-1.86-.327-.42-.813-.63-1.46-.63-.64 0-1.12.207-1.44.62-.327.42-.49 1.043-.49 1.87zm11.968 3.22h-.97v-4.15c0-.527-.12-.92-.36-1.18-.24-.253-.614-.38-1.12-.38-.674 0-1.167.18-1.48.54-.314.367-.47.967-.47 1.8v3.37h-.97v-6.42h.79l.16.88h.05c.2-.32.48-.567.84-.74.353-.173.753-.26 1.2-.26.773 0 1.353.187 1.74.56.393.373.59.97.59 1.79zm7.191-.69c.167 0 .33-.01.49-.03.16-.027.287-.053.38-.08v.74c-.1.053-.253.097-.46.13s-.393.05-.56.05c-1.24 0-1.86-.657-1.86-1.97v-3.82h-.92v-.46l.92-.41.41-1.37h.56v1.49h1.87v.75h-1.87v3.78c0 .387.093.683.28.89s.44.31.76.31zm7.526.69h-.97v-4.15c0-.527-.12-.92-.36-1.18-.24-.253-.613-.38-1.12-.38-.673 0-1.167.183-1.48.55s-.47.967-.47 1.8v3.36h-.97v-9.12h.97v2.76c0 .333-.013.61-.04.83h.06c.187-.307.457-.55.81-.73s.757-.27 1.21-.27c.787 0 1.377.187 1.77.56s.59.967.59 1.78zm6.665 0h-.72l-.19-.91h-.05c-.32.4-.64.67-.96.81-.32.147-.717.22-1.19.22-.64 0-1.14-.167-1.5-.5-.36-.327-.54-.793-.54-1.4 0-1.293 1.036-1.97 3.11-2.03l1.09-.04v-.4c0-.5-.107-.87-.32-1.11-.22-.24-.567-.36-1.04-.36-.54 0-1.147.163-1.82.49l-.3-.75c.32-.167.666-.3 1.04-.4.38-.1.76-.15 1.14-.15.76 0 1.326.17 1.7.51.366.34.55.887.55 1.64zm-2.92-.69c.606 0 1.083-.163 1.43-.49.346-.333.52-.8.52-1.4v-.58l-.97.04c-.774.027-1.334.147-1.68.36-.34.213-.51.547-.51 1 0 .347.106.613.32.8.213.18.51.27.89.27zm7.003 0c.167 0 .33-.01.49-.03.16-.027.287-.053.38-.08v.74c-.1.053-.253.097-.46.13s-.393.05-.56.05c-1.24 0-1.86-.657-1.86-1.97v-3.82h-.92v-.46l.92-.41.41-1.37h.56v1.49h1.87v.75h-1.87v3.78c0 .387.093.683.28.89s.44.31.76.31zm7.843.81c-.933 0-1.653-.287-2.16-.86-.513-.573-.77-1.383-.77-2.43 0-1.073.26-1.903.78-2.49s1.257-.88 2.21-.88c.313 0 .623.033.93.1s.547.143.72.23l-.29.83c-.22-.087-.457-.157-.71-.21-.253-.06-.477-.09-.67-.09-1.307 0-1.96.833-1.96 2.5 0 .787.16 1.39.48 1.81.32.427.79.64 1.41.64.54 0 1.09-.117 1.65-.35v.86c-.427.227-.967.34-1.62.34zm4.112-6.54v6.42h-.97v-6.42zm-1.049-1.74c0-.227.053-.39.159-.49.114-.107.25-.16.41-.16s.297.053.41.16c.114.107.17.27.17.49s-.056.383-.17.49c-.113.107-.25.16-.41.16s-.296-.053-.41-.16c-.106-.107-.159-.27-.159-.49zm6.044 1.62c.287 0 .544.023.77.07l-.14.9c-.26-.053-.493-.08-.7-.08-.52 0-.963.21-1.33.63-.373.42-.56.943-.56 1.57v3.45h-.97v-6.42h.8l.12 1.19h.04c.24-.42.527-.743.86-.97.34-.227.71-.34 1.11-.34zm4.538 6.66c-.933 0-1.653-.287-2.16-.86-.513-.573-.77-1.383-.77-2.43 0-1.073.26-1.903.78-2.49s1.257-.88 2.21-.88c.314 0 .624.033.93.1.307.067.547.143.72.23l-.29.83c-.22-.087-.456-.157-.71-.21-.253-.06-.476-.09-.67-.09-1.306 0-1.96.833-1.96 2.5 0 .787.16 1.39.48 1.81.32.427.79.64 1.41.64.54 0 1.09-.117 1.65-.35v.86c-.426.227-.966.34-1.62.34zm3.073-6.54h.99v4.16c0 .527.117.92.35 1.18.24.253.613.38 1.12.38.673 0 1.167-.183 1.48-.55.307-.367.46-.967.46-1.8v-3.37h.97v6.42h-.8l-.14-.86h-.05c-.2.313-.477.557-.83.73-.353.167-.757.25-1.21.25-.78 0-1.367-.187-1.76-.56-.387-.373-.58-.967-.58-1.78zm8.405-2.7v9.12h-.97v-9.12zm6.734 9.12h-.72l-.19-.91h-.05c-.32.4-.64.67-.96.81-.32.147-.716.22-1.19.22-.64 0-1.14-.167-1.5-.5-.36-.327-.54-.793-.54-1.4 0-1.293 1.037-1.97 3.11-2.03l1.09-.04v-.4c0-.5-.106-.87-.32-1.11-.22-.24-.566-.36-1.04-.36-.54 0-1.146.163-1.82.49l-.3-.75c.32-.167.667-.3 1.04-.4.38-.1.76-.15 1.14-.15.76 0 1.327.17 1.7.51.367.34.55.887.55 1.64zm-2.92-.69c.607 0 1.084-.163 1.43-.49.347-.333.52-.8.52-1.4v-.58l-.97.04c-.773.027-1.333.147-1.68.36-.34.213-.51.547-.51 1 0 .347.107.613.32.8.214.18.51.27.89.27zm7.004 0c.166 0 .33-.01.49-.03.16-.027.286-.053.38-.08v.74c-.1.053-.254.097-.46.13-.207.033-.394.05-.56.05-1.24 0-1.86-.657-1.86-1.97v-3.82h-.92v-.46l.92-.41.41-1.37h.56v1.49h1.87v.75h-1.87v3.78c0 .387.093.683.28.89.186.207.44.31.76.31zm4.866.81c-.947 0-1.694-.29-2.24-.87-.554-.58-.83-1.383-.83-2.41 0-1.033.256-1.857.77-2.47.506-.607 1.19-.91 2.05-.91.806 0 1.443.263 1.91.79.473.533.71 1.233.71 2.1v.61h-4.43c.02.76.21 1.333.57 1.72.36.393.87.59 1.53.59.693 0 1.376-.147 2.05-.44v.87c-.347.147-.674.253-.98.32-.307.067-.677.1-1.11.1zm-.26-5.84c-.514 0-.924.167-1.23.5-.307.333-.487.797-.54 1.39h3.35c0-.613-.137-1.083-.41-1.41-.274-.32-.664-.48-1.17-.48zm8.422 3.97c0 .593-.22 1.053-.66 1.38-.447.327-1.074.49-1.88.49-.854 0-1.517-.137-1.99-.41v-.9c.306.153.636.277.99.37.353.087.693.13 1.02.13.513 0 .906-.08 1.18-.24.273-.16.41-.407.41-.74 0-.247-.11-.46-.33-.64-.214-.18-.637-.39-1.27-.63-.594-.227-1.017-.42-1.27-.58-.254-.167-.44-.357-.56-.57-.127-.213-.19-.467-.19-.76 0-.52.213-.93.64-1.23.426-.307 1.01-.46 1.75-.46.693 0 1.37.14 2.03.42l-.35.79c-.64-.26-1.224-.39-1.75-.39-.46 0-.807.07-1.04.21-.234.147-.35.347-.35.6 0 .173.043.32.13.44.086.12.226.233.42.34.2.113.576.273 1.13.48.76.28 1.273.56 1.54.84.266.28.4.633.4 1.06zm5.671-4.67v6.42h-.97v-6.42zm-1.05-1.74c0-.227.053-.39.16-.49.113-.107.25-.16.41-.16s.296.053.41.16c.113.107.17.27.17.49s-.057.383-.17.49c-.114.107-.25.16-.41.16s-.297-.053-.41-.16c-.107-.107-.16-.27-.16-.49zm8.485 8.16h-.97v-4.15c0-.527-.12-.92-.36-1.18-.24-.253-.614-.38-1.12-.38-.674 0-1.167.18-1.48.54-.314.367-.47.967-.47 1.8v3.37h-.97v-6.42h.79l.16.88h.05c.2-.32.48-.567.84-.74.353-.173.753-.26 1.2-.26.773 0 1.353.187 1.74.56.393.373.59.97.59 1.79z" fill="#333" transform="translate(.668449 .668449)"/><path d="m69.229 141.019h-.72l-.19-.91h-.05c-.32.4-.64.67-.96.81-.32.147-.717.22-1.19.22-.64 0-1.14-.167-1.5-.5-.36-.327-.54-.793-.54-1.4 0-1.293 1.037-1.97 3.11-2.03l1.09-.04v-.4c0-.5-.107-.87-.32-1.11-.22-.24-.567-.36-1.04-.36-.54 0-1.147.163-1.82.49l-.3-.75c.32-.167.667-.3 1.04-.4.38-.1.76-.15 1.14-.15.76 0 1.327.17 1.7.51.367.34.55.887.55 1.64zm-2.92-.69c.607 0 1.083-.163 1.43-.49.347-.333.52-.8.52-1.4v-.58l-.97.04c-.773.027-1.333.147-1.68.36-.34.213-.51.547-.51 1 0 .347.107.613.32.8.213.18.51.27.89.27zm11.08-5.73h2.22v.61l-1.19.14c.107.14.204.32.29.54.087.22.13.47.13.75 0 .627-.213 1.127-.64 1.5-.433.38-1.023.57-1.77.57-.193 0-.373-.017-.54-.05-.413.22-.62.493-.62.82 0 .18.07.31.21.39.147.087.397.13.75.13h1.13c.7 0 1.237.147 1.61.44.374.293.56.72.56 1.28 0 .707-.286 1.247-.86 1.62-.573.373-1.406.56-2.5.56-.84 0-1.486-.157-1.94-.47-.453-.307-.68-.747-.68-1.32 0-.393.124-.73.37-1.01.254-.287.607-.48 1.06-.58-.166-.08-.303-.197-.41-.35-.113-.153-.17-.333-.17-.54 0-.24.064-.447.19-.62.12-.173.317-.343.59-.51-.333-.133-.603-.367-.81-.7-.213-.327-.32-.7-.32-1.12 0-.707.214-1.25.64-1.63.42-.38 1.017-.57 1.79-.57.334 0 .637.04.91.12zm-2.9 7.5c0 .347.147.61.44.79.287.18.707.27 1.26.27.814 0 1.417-.123 1.81-.37.394-.24.59-.57.59-.99 0-.347-.106-.587-.32-.72-.22-.14-.626-.21-1.22-.21h-1.16c-.446 0-.79.107-1.03.32-.246.213-.37.517-.37.91zm.52-5.45c0 .453.127.793.38 1.02.26.233.614.35 1.06.35.954 0 1.43-.46 1.43-1.38 0-.967-.48-1.45-1.44-1.45-.46 0-.813.123-1.06.37-.246.247-.37.61-.37 1.09zm6.884-2.05v6.42h-.97v-6.42zm-1.05-1.74c0-.227.053-.39.16-.49.113-.107.25-.16.41-.16s.297.053.41.16.17.27.17.49-.057.383-.17.49-.25.16-.41.16-.297-.053-.41-.16c-.107-.107-.16-.27-.16-.49zm5.655 8.16h-1.13l-2.44-6.42h1.04l1.39 3.81c.307.887.49 1.463.55 1.73h.04c.047-.207.183-.637.41-1.29.227-.647.74-2.063 1.54-4.25h1.04zm6.181.12c-.947 0-1.693-.29-2.24-.87-.553-.58-.83-1.383-.83-2.41 0-1.033.257-1.857.77-2.47.507-.607 1.19-.91 2.05-.91.807 0 1.443.263 1.91.79.473.533.71 1.233.71 2.1v.61h-4.43c.02.76.21 1.333.57 1.72.36.393.87.59 1.53.59.693 0 1.377-.147 2.05-.44v.87c-.347.147-.673.253-.98.32s-.677.1-1.11.1zm-.26-5.84c-.513 0-.923.167-1.23.5s-.487.797-.54 1.39h3.35c0-.613-.137-1.083-.41-1.41-.273-.32-.663-.48-1.17-.48zm9.652 5.72h-.97v-4.15c0-.527-.12-.92-.36-1.18-.24-.253-.613-.38-1.12-.38-.673 0-1.167.18-1.48.54-.313.367-.47.967-.47 1.8v3.37h-.97v-6.42h.79l.16.88h.05c.2-.32.48-.567.84-.74.353-.173.753-.26 1.2-.26.773 0 1.353.187 1.74.56.393.373.59.97.59 1.79zm6.682.04-2.59-6.46h1.04l1.41 3.66c.306.833.5 1.437.58 1.81h.04c.053-.2.16-.54.32-1.02.16-.487.69-1.97 1.59-4.45h1.05l-2.76 7.31c-.274.72-.594 1.233-.96 1.54-.367.3-.817.45-1.35.45-.294 0-.587-.033-.88-.1v-.78c.22.047.46.07.72.07.673 0 1.15-.373 1.43-1.12zm7.186.08c-.947 0-1.693-.29-2.24-.87-.553-.58-.83-1.383-.83-2.41 0-1.033.257-1.857.77-2.47.507-.607 1.19-.91 2.05-.91.807 0 1.443.263 1.91.79.473.533.71 1.233.71 2.1v.61h-4.43c.02.76.21 1.333.57 1.72.36.393.87.59 1.53.59.693 0 1.377-.147 2.05-.44v.87c-.347.147-.673.253-.98.32s-.677.1-1.11.1zm-.26-5.84c-.513 0-.923.167-1.23.5s-.487.797-.54 1.39h3.35c0-.613-.137-1.083-.41-1.41-.273-.32-.663-.48-1.17-.48zm8.952 5.72h-.72l-.19-.91h-.05c-.32.4-.64.67-.96.81-.32.147-.717.22-1.19.22-.64 0-1.14-.167-1.5-.5-.36-.327-.54-.793-.54-1.4 0-1.293 1.037-1.97 3.11-2.03l1.09-.04v-.4c0-.5-.107-.87-.32-1.11-.22-.24-.567-.36-1.04-.36-.54 0-1.147.163-1.82.49l-.3-.75c.32-.167.667-.3 1.04-.4.38-.1.76-.15 1.14-.15.76 0 1.327.17 1.7.51.367.34.55.887.55 1.64zm-2.92-.69c.607 0 1.083-.163 1.43-.49.347-.333.52-.8.52-1.4v-.58l-.97.04c-.773.027-1.333.147-1.68.36-.34.213-.51.547-.51 1 0 .347.107.613.32.8.213.18.51.27.89.27zm7.853-5.85c.287 0 .544.023.77.07l-.14.9c-.26-.053-.493-.08-.7-.08-.52 0-.963.21-1.33.63-.373.42-.56.943-.56 1.57v3.45h-.97v-6.42h.8l.12 1.19h.04c.24-.42.527-.743.86-.97.34-.227.71-.34 1.11-.34zm4.535 3.25c0-1.033.15-2 .45-2.9.307-.907.744-1.7 1.31-2.38h.95c-.56.753-.983 1.583-1.27 2.49-.28.9-.42 1.827-.42 2.78 0 .94.144 1.857.43 2.75.294.893.71 1.71 1.25 2.45h-.94c-.573-.667-1.01-1.443-1.31-2.33s-.45-1.84-.45-2.86zm9.641.07c0 1.047-.264 1.867-.79 2.46-.527.587-1.254.88-2.18.88-.574 0-1.084-.137-1.53-.41-.447-.267-.79-.653-1.03-1.16-.247-.5-.37-1.09-.37-1.77 0-1.047.263-1.86.79-2.44.52-.587 1.246-.88 2.18-.88.9 0 1.613.3 2.14.9.526.593.79 1.4.79 2.42zm-4.89 0c0 .82.163 1.447.49 1.88.333.427.816.64 1.45.64.64 0 1.123-.213 1.45-.64.333-.427.5-1.053.5-1.88 0-.813-.167-1.433-.5-1.86-.327-.42-.814-.63-1.46-.63-.64 0-1.12.207-1.44.62-.327.42-.49 1.043-.49 1.87zm9.497-3.2v.75h-1.64v5.67h-.97v-5.67h-1.15v-.44l1.15-.35v-.35c0-1.58.69-2.37 2.07-2.37.34 0 .737.067 1.19.2l-.25.78c-.373-.12-.693-.18-.96-.18-.366 0-.64.123-.82.37-.173.24-.26.63-.26 1.17v.42zm13.443 6.42h-.97v-4.18c0-.513-.11-.897-.33-1.15s-.56-.38-1.02-.38c-.606 0-1.053.173-1.34.52-.293.347-.44.88-.44 1.6v3.59h-.97v-4.18c0-.513-.11-.897-.33-1.15s-.56-.38-1.02-.38c-.613 0-1.06.18-1.34.54-.286.367-.43.967-.43 1.8v3.37h-.97v-6.42h.79l.16.88h.05c.18-.313.437-.56.77-.74.334-.173.71-.26 1.13-.26 1 0 1.654.363 1.96 1.09h.05c.194-.333.47-.6.83-.8.367-.193.784-.29 1.25-.29.727 0 1.27.187 1.63.56s.54.97.54 1.79zm6.672 0h-.72l-.19-.91h-.05c-.32.4-.64.67-.96.81-.32.147-.717.22-1.19.22-.64 0-1.14-.167-1.5-.5-.36-.327-.54-.793-.54-1.4 0-1.293 1.036-1.97 3.11-2.03l1.09-.04v-.4c0-.5-.107-.87-.32-1.11-.22-.24-.567-.36-1.04-.36-.54 0-1.147.163-1.82.49l-.3-.75c.32-.167.666-.3 1.04-.4.38-.1.76-.15 1.14-.15.76 0 1.326.17 1.7.51.366.34.55.887.55 1.64zm-2.92-.69c.606 0 1.083-.163 1.43-.49.346-.333.52-.8.52-1.4v-.58l-.97.04c-.774.027-1.334.147-1.68.36-.34.213-.51.547-.51 1 0 .347.106.613.32.8.213.18.51.27.89.27zm7.003 0c.167 0 .33-.01.49-.03.16-.027.287-.053.38-.08v.74c-.1.053-.253.097-.46.13s-.393.05-.56.05c-1.24 0-1.86-.657-1.86-1.97v-3.82h-.92v-.46l.92-.41.41-1.37h.56v1.49h1.87v.75h-1.87v3.78c0 .387.093.683.28.89s.44.31.76.31zm4.866.81c-.947 0-1.694-.29-2.24-.87-.553-.58-.83-1.383-.83-2.41 0-1.033.257-1.857.77-2.47.507-.607 1.19-.91 2.05-.91.806 0 1.443.263 1.91.79.473.533.71 1.233.71 2.1v.61h-4.43c.02.76.21 1.333.57 1.72.36.393.87.59 1.53.59.693 0 1.376-.147 2.05-.44v.87c-.347.147-.674.253-.98.32-.307.067-.677.1-1.11.1zm-.26-5.84c-.514 0-.923.167-1.23.5s-.487.797-.54 1.39h3.35c0-.613-.137-1.083-.41-1.41-.273-.32-.663-.48-1.17-.48zm7.212-.82c.286 0 .543.023.77.07l-.14.9c-.26-.053-.494-.08-.7-.08-.52 0-.964.21-1.33.63-.374.42-.56.943-.56 1.57v3.45h-.97v-6.42h.8l.12 1.19h.04c.24-.42.526-.743.86-.97.34-.227.71-.34 1.11-.34zm2.938.12v6.42h-.97v-6.42zm-1.05-1.74c0-.227.053-.39.16-.49.113-.107.25-.16.41-.16s.296.053.41.16c.113.107.17.27.17.49s-.057.383-.17.49c-.114.107-.25.16-.41.16s-.297-.053-.41-.16c-.107-.107-.16-.27-.16-.49zm7.785 8.16h-.72l-.19-.91h-.05c-.32.4-.64.67-.96.81-.32.147-.717.22-1.19.22-.64 0-1.14-.167-1.5-.5-.36-.327-.54-.793-.54-1.4 0-1.293 1.036-1.97 3.11-2.03l1.09-.04v-.4c0-.5-.107-.87-.32-1.11-.22-.24-.567-.36-1.04-.36-.54 0-1.147.163-1.82.49l-.3-.75c.32-.167.666-.3 1.04-.4.38-.1.76-.15 1.14-.15.76 0 1.326.17 1.7.51.366.34.55.887.55 1.64zm-2.92-.69c.606 0 1.083-.163 1.43-.49.346-.333.52-.8.52-1.4v-.58l-.97.04c-.774.027-1.334.147-1.68.36-.34.213-.51.547-.51 1 0 .347.106.613.32.8.213.18.51.27.89.27zm5.893-8.43v9.12h-.97v-9.12zm6.205 7.37c0 .593-.22 1.053-.66 1.38-.447.327-1.073.49-1.88.49-.853 0-1.517-.137-1.99-.41v-.9c.307.153.637.277.99.37.353.087.693.13 1.02.13.513 0 .907-.08 1.18-.24s.41-.407.41-.74c0-.247-.11-.46-.33-.64-.213-.18-.637-.39-1.27-.63-.593-.227-1.017-.42-1.27-.58-.253-.167-.44-.357-.56-.57-.127-.213-.19-.467-.19-.76 0-.52.213-.93.64-1.23.427-.307 1.01-.46 1.75-.46.693 0 1.37.14 2.03.42l-.35.79c-.64-.26-1.223-.39-1.75-.39-.46 0-.807.07-1.04.21-.233.147-.35.347-.35.6 0 .173.043.32.13.44s.227.233.42.34c.2.113.577.273 1.13.48.76.28 1.273.56 1.54.84s.4.633.4 1.06zm6.781 1.06c.167 0 .33-.01.49-.03.16-.027.287-.053.38-.08v.74c-.1.053-.253.097-.46.13s-.393.05-.56.05c-1.24 0-1.86-.657-1.86-1.97v-3.82h-.92v-.46l.92-.41.41-1.37h.56v1.49h1.87v.75h-1.87v3.78c0 .387.093.683.28.89s.44.31.76.31zm7.526.69h-.97v-4.15c0-.527-.12-.92-.36-1.18-.24-.253-.613-.38-1.12-.38-.673 0-1.167.183-1.48.55s-.47.967-.47 1.8v3.36h-.97v-9.12h.97v2.76c0 .333-.013.61-.04.83h.06c.187-.307.457-.55.81-.73s.757-.27 1.21-.27c.787 0 1.377.187 1.77.56s.59.967.59 1.78zm6.665 0h-.72l-.19-.91h-.05c-.32.4-.64.67-.96.81-.32.147-.717.22-1.19.22-.64 0-1.14-.167-1.5-.5-.36-.327-.54-.793-.54-1.4 0-1.293 1.036-1.97 3.11-2.03l1.09-.04v-.4c0-.5-.107-.87-.32-1.11-.22-.24-.567-.36-1.04-.36-.54 0-1.147.163-1.82.49l-.3-.75c.32-.167.666-.3 1.04-.4.38-.1.76-.15 1.14-.15.76 0 1.326.17 1.7.51.366.34.55.887.55 1.64zm-2.92-.69c.606 0 1.083-.163 1.43-.49.346-.333.52-.8.52-1.4v-.58l-.97.04c-.774.027-1.334.147-1.68.36-.34.213-.51.547-.51 1 0 .347.106.613.32.8.213.18.51.27.89.27zm7.003 0c.167 0 .33-.01.49-.03.16-.027.287-.053.38-.08v.74c-.1.053-.253.097-.46.13s-.393.05-.56.05c-1.24 0-1.86-.657-1.86-1.97v-3.82h-.92v-.46l.92-.41.41-1.37h.56v1.49h1.87v.75h-1.87v3.78c0 .387.093.683.28.89s.44.31.76.31zm9.943.69h-.72l-.19-.91h-.05c-.32.4-.64.67-.96.81-.32.147-.717.22-1.19.22-.64 0-1.14-.167-1.5-.5-.36-.327-.54-.793-.54-1.4 0-1.293 1.037-1.97 3.11-2.03l1.09-.04v-.4c0-.5-.107-.87-.32-1.11-.22-.24-.567-.36-1.04-.36-.54 0-1.147.163-1.82.49l-.3-.75c.32-.167.667-.3 1.04-.4.38-.1.76-.15 1.14-.15.76 0 1.327.17 1.7.51.367.34.55.887.55 1.64zm-2.92-.69c.607 0 1.083-.163 1.43-.49.347-.333.52-.8.52-1.4v-.58l-.97.04c-.773.027-1.333.147-1.68.36-.34.213-.51.547-.51 1 0 .347.107.613.32.8.213.18.51.27.89.27zm7.853-5.85c.287 0 .544.023.77.07l-.14.9c-.26-.053-.493-.08-.7-.08-.52 0-.963.21-1.33.63-.373.42-.56.943-.56 1.57v3.45h-.97v-6.42h.8l.12 1.19h.04c.24-.42.527-.743.86-.97.34-.227.71-.34 1.11-.34zm4.678 6.66c-.946 0-1.693-.29-2.24-.87-.553-.58-.83-1.383-.83-2.41 0-1.033.257-1.857.77-2.47.507-.607 1.19-.91 2.05-.91.807 0 1.444.263 1.91.79.474.533.71 1.233.71 2.1v.61h-4.43c.02.76.21 1.333.57 1.72.36.393.87.59 1.53.59.694 0 1.377-.147 2.05-.44v.87c-.346.147-.673.253-.98.32-.306.067-.676.1-1.11.1zm-.26-5.84c-.513 0-.923.167-1.23.5-.306.333-.486.797-.54 1.39h3.35c0-.613-.136-1.083-.41-1.41-.273-.32-.663-.48-1.17-.48zm8.369-.7v6.42h-.97v-6.42zm-1.05-1.74c0-.227.054-.39.16-.49.114-.107.25-.16.41-.16s.297.053.41.16c.114.107.17.27.17.49s-.056.383-.17.49c-.113.107-.25.16-.41.16s-.296-.053-.41-.16c-.106-.107-.16-.27-.16-.49zm8.485 8.16h-.97v-4.15c0-.527-.12-.92-.36-1.18-.24-.253-.613-.38-1.12-.38-.673 0-1.167.18-1.48.54-.313.367-.47.967-.47 1.8v3.37h-.97v-6.42h.79l.16.88h.05c.2-.32.48-.567.84-.74.353-.173.753-.26 1.2-.26.773 0 1.353.187 1.74.56.393.373.59.97.59 1.79zm7.682.12c-.934 0-1.654-.287-2.16-.86-.514-.573-.77-1.383-.77-2.43 0-1.073.26-1.903.78-2.49s1.256-.88 2.21-.88c.313 0 .623.033.93.1.306.067.546.143.72.23l-.29.83c-.22-.087-.457-.157-.71-.21-.254-.06-.477-.09-.67-.09-1.307 0-1.96.833-1.96 2.5 0 .787.16 1.39.48 1.81.32.427.79.64 1.41.64.54 0 1.09-.117 1.65-.35v.86c-.427.227-.967.34-1.62.34zm4.112-6.54v6.42h-.97v-6.42zm-1.05-1.74c0-.227.053-.39.16-.49.113-.107.25-.16.41-.16s.297.053.41.16.17.27.17.49-.057.383-.17.49-.25.16-.41.16-.297-.053-.41-.16c-.107-.107-.16-.27-.16-.49zm6.045 1.62c.287 0 .543.023.77.07l-.14.9c-.26-.053-.493-.08-.7-.08-.52 0-.963.21-1.33.63-.373.42-.56.943-.56 1.57v3.45h-.97v-6.42h.8l.12 1.19h.04c.24-.42.527-.743.86-.97.34-.227.71-.34 1.11-.34zm4.538 6.66c-.933 0-1.653-.287-2.16-.86-.513-.573-.77-1.383-.77-2.43 0-1.073.26-1.903.78-2.49s1.257-.88 2.21-.88c.313 0 .623.033.93.1s.547.143.72.23l-.29.83c-.22-.087-.457-.157-.71-.21-.253-.06-.477-.09-.67-.09-1.307 0-1.96.833-1.96 2.5 0 .787.16 1.39.48 1.81.32.427.79.64 1.41.64.54 0 1.09-.117 1.65-.35v.86c-.427.227-.967.34-1.62.34zm3.073-6.54h.99v4.16c0 .527.116.92.35 1.18.24.253.613.38 1.12.38.673 0 1.166-.183 1.48-.55.306-.367.46-.967.46-1.8v-3.37h.97v6.42h-.8l-.14-.86h-.05c-.2.313-.477.557-.83.73-.354.167-.757.25-1.21.25-.78 0-1.367-.187-1.76-.56-.387-.373-.58-.967-.58-1.78zm8.404-2.7v9.12h-.97v-9.12zm6.735 9.12h-.72l-.19-.91h-.05c-.32.4-.64.67-.96.81-.32.147-.717.22-1.19.22-.64 0-1.14-.167-1.5-.5-.36-.327-.54-.793-.54-1.4 0-1.293 1.037-1.97 3.11-2.03l1.09-.04v-.4c0-.5-.107-.87-.32-1.11-.22-.24-.567-.36-1.04-.36-.54 0-1.147.163-1.82.49l-.3-.75c.32-.167.667-.3 1.04-.4.38-.1.76-.15 1.14-.15.76 0 1.327.17 1.7.51.367.34.55.887.55 1.64zm-2.92-.69c.607 0 1.083-.163 1.43-.49.347-.333.52-.8.52-1.4v-.58l-.97.04c-.773.027-1.333.147-1.68.36-.34.213-.51.547-.51 1 0 .347.107.613.32.8.213.18.51.27.89.27zm7.003 0c.167 0 .33-.01.49-.03.16-.027.287-.053.38-.08v.74c-.1.053-.253.097-.46.13-.206.033-.393.05-.56.05-1.24 0-1.86-.657-1.86-1.97v-3.82h-.92v-.46l.92-.41.41-1.37h.56v1.49h1.87v.75h-1.87v3.78c0 .387.094.683.28.89.187.207.44.31.76.31zm3.126-5.73v6.42h-.97v-6.42zm-1.05-1.74c0-.227.054-.39.16-.49.114-.107.25-.16.41-.16s.297.053.41.16c.114.107.17.27.17.49s-.056.383-.17.49c-.113.107-.25.16-.41.16s-.296-.053-.41-.16c-.106-.107-.16-.27-.16-.49zm8.485 8.16h-.97v-4.15c0-.527-.12-.92-.36-1.18-.24-.253-.613-.38-1.12-.38-.673 0-1.166.18-1.48.54-.313.367-.47.967-.47 1.8v3.37h-.97v-6.42h.79l.16.88h.05c.2-.32.48-.567.84-.74.354-.173.754-.26 1.2-.26.774 0 1.354.187 1.74.56.394.373.59.97.59 1.79zm5.035-6.42h2.22v.61l-1.19.14c.107.14.203.32.29.54s.13.47.13.75c0 .627-.213 1.127-.64 1.5-.433.38-1.023.57-1.77.57-.193 0-.373-.017-.54-.05-.413.22-.62.493-.62.82 0 .18.07.31.21.39.147.087.397.13.75.13h1.13c.7 0 1.237.147 1.61.44s.56.72.56 1.28c0 .707-.287 1.247-.86 1.62s-1.407.56-2.5.56c-.84 0-1.487-.157-1.94-.47-.453-.307-.68-.747-.68-1.32 0-.393.123-.73.37-1.01.253-.287.607-.48 1.06-.58-.167-.08-.303-.197-.41-.35-.113-.153-.17-.333-.17-.54 0-.24.063-.447.19-.62.12-.173.317-.343.59-.51-.333-.133-.603-.367-.81-.7-.213-.327-.32-.7-.32-1.12 0-.707.213-1.25.64-1.63.42-.38 1.017-.57 1.79-.57.333 0 .637.04.91.12zm-2.9 7.5c0 .347.147.61.44.79.287.18.707.27 1.26.27.813 0 1.417-.123 1.81-.37.393-.24.59-.57.59-.99 0-.347-.107-.587-.32-.72-.22-.14-.627-.21-1.22-.21h-1.16c-.447 0-.79.107-1.03.32-.247.213-.37.517-.37.91zm.52-5.45c0 .453.127.793.38 1.02.26.233.613.35 1.06.35.953 0 1.43-.46 1.43-1.38 0-.967-.48-1.45-1.44-1.45-.46 0-.813.123-1.06.37s-.37.61-.37 1.09zm11.601 4.49c-.934 0-1.654-.287-2.16-.86-.514-.573-.77-1.383-.77-2.43 0-1.073.26-1.903.78-2.49s1.256-.88 2.21-.88c.313 0 .623.033.93.1.306.067.546.143.72.23l-.29.83c-.22-.087-.457-.157-.71-.21-.254-.06-.477-.09-.67-.09-1.307 0-1.96.833-1.96 2.5 0 .787.16 1.39.48 1.81.32.427.79.64 1.41.64.54 0 1.09-.117 1.65-.35v.86c-.427.227-.967.34-1.62.34zm8.682-3.34c0 1.047-.263 1.867-.79 2.46-.527.587-1.253.88-2.18.88-.573 0-1.083-.137-1.53-.41-.447-.267-.79-.653-1.03-1.16-.247-.5-.37-1.09-.37-1.77 0-1.047.263-1.86.79-2.44.52-.587 1.247-.88 2.18-.88.9 0 1.613.3 2.14.9.527.593.79 1.4.79 2.42zm-4.89 0c0 .82.163 1.447.49 1.88.333.427.817.64 1.45.64.64 0 1.123-.213 1.45-.64.333-.427.5-1.053.5-1.88 0-.813-.167-1.433-.5-1.86-.327-.42-.813-.63-1.46-.63-.64 0-1.12.207-1.44.62-.327.42-.49 1.043-.49 1.87zm7.568-5.9v9.12h-.97v-9.12zm3.035 0v9.12h-.97v-9.12zm4.774 9.24c-.946 0-1.693-.29-2.24-.87-.553-.58-.83-1.383-.83-2.41 0-1.033.257-1.857.77-2.47.507-.607 1.19-.91 2.05-.91.807 0 1.444.263 1.91.79.474.533.71 1.233.71 2.1v.61h-4.43c.02.76.21 1.333.57 1.72.36.393.87.59 1.53.59.694 0 1.377-.147 2.05-.44v.87c-.346.147-.673.253-.98.32-.306.067-.676.1-1.11.1zm-.26-5.84c-.513 0-.923.167-1.23.5-.306.333-.486.797-.54 1.39h3.35c0-.613-.136-1.083-.41-1.41-.273-.32-.663-.48-1.17-.48zm6.852 5.84c-.933 0-1.653-.287-2.16-.86-.513-.573-.77-1.383-.77-2.43 0-1.073.26-1.903.78-2.49s1.257-.88 2.21-.88c.314 0 .624.033.93.1.307.067.547.143.72.23l-.29.83c-.22-.087-.456-.157-.71-.21-.253-.06-.476-.09-.67-.09-1.306 0-1.96.833-1.96 2.5 0 .787.16 1.39.48 1.81.32.427.79.64 1.41.64.54 0 1.09-.117 1.65-.35v.86c-.426.227-.966.34-1.62.34zm5.223-.81c.166 0 .33-.01.49-.03.16-.027.286-.053.38-.08v.74c-.1.053-.254.097-.46.13-.207.033-.394.05-.56.05-1.24 0-1.86-.657-1.86-1.97v-3.82h-.92v-.46l.92-.41.41-1.37h.56v1.49h1.87v.75h-1.87v3.78c0 .387.093.683.28.89.186.207.44.31.76.31zm3.126-5.73v6.42h-.97v-6.42zm-1.05-1.74c0-.227.053-.39.16-.49.113-.107.25-.16.41-.16s.296.053.41.16c.113.107.17.27.17.49s-.057.383-.17.49c-.114.107-.25.16-.41.16s-.297-.053-.41-.16c-.107-.107-.16-.27-.16-.49zm8.655 4.94c0 1.047-.264 1.867-.79 2.46-.527.587-1.254.88-2.18.88-.574 0-1.084-.137-1.53-.41-.447-.267-.79-.653-1.03-1.16-.247-.5-.37-1.09-.37-1.77 0-1.047.263-1.86.79-2.44.52-.587 1.246-.88 2.18-.88.9 0 1.613.3 2.14.9.526.593.79 1.4.79 2.42zm-4.89 0c0 .82.163 1.447.49 1.88.333.427.816.64 1.45.64.64 0 1.123-.213 1.45-.64.333-.427.5-1.053.5-1.88 0-.813-.167-1.433-.5-1.86-.327-.42-.814-.63-1.46-.63-.64 0-1.12.207-1.44.62-.327.42-.49 1.043-.49 1.87zm11.967 3.22h-.97v-4.15c0-.527-.12-.92-.36-1.18-.24-.253-.613-.38-1.12-.38-.673 0-1.166.18-1.48.54-.313.367-.47.967-.47 1.8v3.37h-.97v-6.42h.79l.16.88h.05c.2-.32.48-.567.84-.74.354-.173.754-.26 1.2-.26.774 0 1.354.187 1.74.56.394.373.59.97.59 1.79zm6.135-1.75c0 .593-.22 1.053-.66 1.38-.447.327-1.073.49-1.88.49-.853 0-1.517-.137-1.99-.41v-.9c.306.153.637.277.99.37.353.087.693.13 1.02.13.513 0 .907-.08 1.18-.24s.41-.407.41-.74c0-.247-.11-.46-.33-.64-.214-.18-.637-.39-1.27-.63-.594-.227-1.017-.42-1.27-.58-.253-.167-.44-.357-.56-.57-.127-.213-.19-.467-.19-.76 0-.52.213-.93.64-1.23.427-.307 1.01-.46 1.75-.46.693 0 1.37.14 2.03.42l-.35.79c-.64-.26-1.223-.39-1.75-.39-.46 0-.807.07-1.04.21-.234.147-.35.347-.35.6 0 .173.043.32.13.44.086.12.227.233.42.34.2.113.577.273 1.13.48.76.28 1.273.56 1.54.84.266.28.4.633.4 1.06zm3.624-1.54c0 1.027-.15 1.983-.45 2.87-.307.887-.743 1.66-1.31 2.32h-.94c.54-.733.957-1.55 1.25-2.45.287-.893.43-1.81.43-2.75 0-.953-.14-1.88-.42-2.78-.287-.907-.71-1.737-1.27-2.49h.95c.573.687 1.01 1.483 1.31 2.39.3.9.45 1.863.45 2.89z" fill="#333" transform="translate(.668449 .668449)"/></svg>
