<svg height="165.509995" viewBox="62.64699936 157.48699951 356.64401245 165.50999451" width="356.644012" xmlns="http://www.w3.org/2000/svg" xmlns:xlink="http://www.w3.org/1999/xlink"><symbol id="a" viewBox="0 0 43.449 212.567"><path d="m.000021.000002h43.449v212.567h-43.449z" fill="#36c"/></symbol><use height="212.567001" transform="matrix(.69046563 0 0 .70565975 62.64706 157.486572)" width="43.449001" xlink:href="#a"/><use height="212.567001" transform="matrix(.69046563 0 0 .56452829 144.29068 187.486603)" width="43.449001" xlink:href="#a"/><use height="212.567001" transform="matrix(.69046563 0 0 .47044015 225.934296 207.486603)" width="43.449001" xlink:href="#a"/><use height="212.567001" transform="matrix(.69046456 0 0 .39987421 307.577942 222.486603)" width="43.449001" xlink:href="#a"/><use height="212.567001" transform="matrix(.69046456 0 0 .37635201 389.221558 227.486603)" width="43.449001" xlink:href="#a"/><path d="m62.834 307.155h356.457" fill="none" stroke="#666"/><g fill="#333"><path d="m69.69 321.971v.9h-5.63v-.84l2.25-2.27c.687-.693 1.14-1.187 1.36-1.48.22-.3.383-.59.49-.87.113-.28.17-.583.17-.91 0-.453-.14-.817-.42-1.09-.273-.267-.657-.4-1.15-.4-.36 0-.697.06-1.01.18-.32.113-.677.327-1.07.64l-.51-.67c.787-.653 1.647-.98 2.58-.98.8 0 1.43.207 1.89.62.453.413.68.967.68 1.66 0 .54-.15 1.077-.45 1.61-.307.533-.877 1.207-1.71 2.02l-1.88 1.83v.05zm6.901-3.39c0 1.48-.234 2.583-.7 3.31-.467.733-1.18 1.1-2.14 1.1-.92 0-1.62-.373-2.1-1.12-.48-.753-.72-1.85-.72-3.29 0-1.493.23-2.603.69-3.33.466-.72 1.176-1.08 2.13-1.08.933 0 1.64.377 2.12 1.13s.72 1.847.72 3.28zm-4.68 0c0 1.24.146 2.147.44 2.72.293.567.76.85 1.4.85.646 0 1.116-.287 1.41-.86.293-.58.44-1.483.44-2.71 0-1.233-.147-2.137-.44-2.71-.294-.573-.764-.86-1.41-.86-.64 0-1.107.283-1.4.85-.294.567-.44 1.473-.44 2.72zm11.541 0c0 1.48-.234 2.583-.7 3.31-.467.733-1.18 1.1-2.14 1.1-.92 0-1.62-.373-2.1-1.12-.48-.753-.72-1.85-.72-3.29 0-1.493.23-2.603.69-3.33.466-.72 1.176-1.08 2.13-1.08.933 0 1.64.377 2.12 1.13s.72 1.847.72 3.28zm-4.68 0c0 1.24.146 2.147.44 2.72.293.567.76.85 1.4.85.646 0 1.116-.287 1.41-.86.293-.58.44-1.483.44-2.71 0-1.233-.147-2.137-.44-2.71-.294-.573-.764-.86-1.41-.86-.64 0-1.107.283-1.4.85-.294.567-.44 1.473-.44 2.72zm11.17-2.26c0 .547-.153.993-.46 1.34-.306.347-.74.58-1.3.7v.05c.687.08 1.197.297 1.53.65.334.353.5.813.5 1.38 0 .82-.283 1.45-.85 1.89-.566.44-1.373.66-2.42.66-.453 0-.866-.037-1.24-.11-.38-.067-.746-.187-1.1-.36v-.92c.374.18.77.32 1.19.42.42.093.817.14 1.19.14 1.48 0 2.22-.58 2.22-1.74 0-1.04-.816-1.56-2.45-1.56h-.84v-.84h.85c.667 0 1.197-.147 1.59-.44.394-.293.59-.703.59-1.23 0-.413-.143-.74-.43-.98-.286-.24-.676-.36-1.17-.36-.38 0-.733.05-1.06.15-.333.107-.713.297-1.14.57l-.49-.66c.354-.273.757-.49 1.21-.65.46-.16.944-.24 1.45-.24.834 0 1.48.19 1.94.57s.69.903.69 1.57z"/><path d="m151.309 321.97v.9h-5.63v-.84l2.25-2.27c.687-.693 1.14-1.187 1.36-1.48.22-.3.383-.59.49-.87.113-.28.17-.583.17-.91 0-.453-.14-.817-.42-1.09-.273-.267-.657-.4-1.15-.4-.36 0-.697.06-1.01.18-.32.113-.677.327-1.07.64l-.51-.67c.787-.653 1.647-.98 2.58-.98.8 0 1.43.207 1.89.62.453.413.68.967.68 1.66 0 .54-.15 1.077-.45 1.61-.307.533-.877 1.207-1.71 2.02l-1.88 1.83v.05zm6.901-3.39c0 1.48-.234 2.583-.7 3.31-.467.733-1.18 1.1-2.14 1.1-.92 0-1.62-.373-2.1-1.12-.48-.753-.72-1.85-.72-3.29 0-1.493.23-2.603.69-3.33.466-.72 1.176-1.08 2.13-1.08.933 0 1.64.377 2.12 1.13s.72 1.847.72 3.28zm-4.68 0c0 1.24.146 2.147.44 2.72.293.567.76.85 1.4.85.646 0 1.116-.287 1.41-.86.293-.58.44-1.483.44-2.71 0-1.233-.147-2.137-.44-2.71-.294-.573-.764-.86-1.41-.86-.64 0-1.107.283-1.4.85-.294.567-.44 1.473-.44 2.72zm11.541 0c0 1.48-.234 2.583-.7 3.31-.467.733-1.18 1.1-2.14 1.1-.92 0-1.62-.373-2.1-1.12-.48-.753-.72-1.85-.72-3.29 0-1.493.23-2.603.69-3.33.466-.72 1.176-1.08 2.13-1.08.933 0 1.64.377 2.12 1.13s.72 1.847.72 3.28zm-4.68 0c0 1.24.146 2.147.44 2.72.293.567.76.85 1.4.85.646 0 1.116-.287 1.41-.86.293-.58.44-1.483.44-2.71 0-1.233-.147-2.137-.44-2.71-.294-.573-.764-.86-1.41-.86-.64 0-1.107.283-1.4.85-.294.567-.44 1.473-.44 2.72zm8.54-.94c.907 0 1.617.223 2.13.67.52.447.78 1.06.78 1.84 0 .887-.283 1.58-.85 2.08-.56.507-1.336.76-2.33.76-.966 0-1.703-.157-2.21-.47v-.93c.274.173.614.31 1.02.41.407.1.807.15 1.2.15.687 0 1.22-.163 1.6-.49.38-.32.57-.787.57-1.4 0-1.2-.73-1.8-2.19-1.8-.373 0-.87.057-1.49.17l-.51-.32.33-4.01h4.26v.9h-3.43l-.22 2.57c.454-.087.9-.13 1.34-.13z"/><path d="m232.94 321.977v.9h-5.63v-.84l2.25-2.27c.687-.693 1.14-1.187 1.36-1.48.22-.3.383-.59.49-.87.113-.28.17-.583.17-.91 0-.453-.14-.817-.42-1.09-.273-.267-.657-.4-1.15-.4-.36 0-.697.06-1.01.18-.32.113-.677.327-1.07.64l-.51-.67c.787-.653 1.647-.98 2.58-.98.8 0 1.43.207 1.89.62.453.413.68.967.68 1.66 0 .54-.15 1.077-.45 1.61-.307.533-.877 1.207-1.71 2.02l-1.88 1.83v.05zm6.901-3.39c0 1.48-.234 2.583-.7 3.31-.467.733-1.18 1.1-2.14 1.1-.92 0-1.62-.373-2.1-1.12-.48-.753-.72-1.85-.72-3.29 0-1.493.23-2.603.69-3.33.466-.72 1.176-1.08 2.13-1.08.933 0 1.64.377 2.12 1.13s.72 1.847.72 3.28zm-4.68 0c0 1.24.146 2.147.44 2.72.293.567.76.85 1.4.85.646 0 1.116-.287 1.41-.86.293-.58.44-1.483.44-2.71 0-1.233-.147-2.137-.44-2.71-.294-.573-.764-.86-1.41-.86-.64 0-1.107.283-1.4.85-.294.567-.44 1.473-.44 2.72zm11.541 0c0 1.48-.234 2.583-.7 3.31-.467.733-1.18 1.1-2.14 1.1-.92 0-1.62-.373-2.1-1.12-.48-.753-.72-1.85-.72-3.29 0-1.493.23-2.603.69-3.33.466-.72 1.176-1.08 2.13-1.08.933 0 1.64.377 2.12 1.13s.72 1.847.72 3.28zm-4.68 0c0 1.24.146 2.147.44 2.72.293.567.76.85 1.4.85.646 0 1.116-.287 1.41-.86.293-.58.44-1.483.44-2.71 0-1.233-.147-2.137-.44-2.71-.294-.573-.764-.86-1.41-.86-.64 0-1.107.283-1.4.85-.294.567-.44 1.473-.44 2.72zm8.03 4.29h-1.08l3.55-7.67h-4.67v-.9h5.7v.78z"/><path d="m314.57 321.972v.9h-5.63v-.84l2.25-2.27c.687-.693 1.14-1.187 1.36-1.48.22-.3.383-.59.49-.87.113-.28.17-.583.17-.91 0-.453-.14-.817-.42-1.09-.273-.267-.657-.4-1.15-.4-.36 0-.697.06-1.01.18-.32.113-.677.327-1.07.64l-.51-.67c.787-.653 1.647-.98 2.58-.98.8 0 1.43.207 1.89.62.453.413.68.967.68 1.66 0 .54-.15 1.077-.45 1.61-.307.533-.877 1.207-1.71 2.02l-1.88 1.83v.05zm6.901-3.39c0 1.48-.234 2.583-.7 3.31-.467.733-1.18 1.1-2.14 1.1-.92 0-1.62-.373-2.1-1.12-.48-.753-.72-1.85-.72-3.29 0-1.493.23-2.603.69-3.33.466-.72 1.176-1.08 2.13-1.08.933 0 1.64.377 2.12 1.13s.72 1.847.72 3.28zm-4.68 0c0 1.24.146 2.147.44 2.72.293.567.76.85 1.4.85.646 0 1.116-.287 1.41-.86.293-.58.44-1.483.44-2.71 0-1.233-.147-2.137-.44-2.71-.294-.573-.764-.86-1.41-.86-.64 0-1.107.283-1.4.85-.294.567-.44 1.473-.44 2.72zm11.541 0c0 1.48-.234 2.583-.7 3.31-.467.733-1.18 1.1-2.14 1.1-.92 0-1.62-.373-2.1-1.12-.48-.753-.72-1.85-.72-3.29 0-1.493.23-2.603.69-3.33.466-.72 1.176-1.08 2.13-1.08.933 0 1.64.377 2.12 1.13s.72 1.847.72 3.28zm-4.68 0c0 1.24.146 2.147.44 2.72.293.567.76.85 1.4.85.646 0 1.116-.287 1.41-.86.293-.58.44-1.483.44-2.71 0-1.233-.147-2.137-.44-2.71-.294-.573-.764-.86-1.41-.86-.64 0-1.107.283-1.4.85-.294.567-.44 1.473-.44 2.72zm11.5-.62c0 3.353-1.296 5.03-3.89 5.03-.453 0-.813-.04-1.08-.12v-.84c.314.1.667.15 1.06.15.94 0 1.65-.29 2.13-.87s.74-1.467.78-2.66h-.07c-.213.32-.5.567-.86.74-.353.167-.753.25-1.2.25-.753 0-1.353-.227-1.8-.68-.446-.453-.67-1.087-.67-1.9 0-.887.25-1.59.75-2.11.5-.513 1.154-.77 1.96-.77.587 0 1.097.15 1.53.45.434.3.77.737 1.01 1.31.234.567.35 1.24.35 2.02zm-2.89-2.95c-.553 0-.983.18-1.29.54-.306.36-.46.86-.46 1.5 0 .567.14 1.01.42 1.33.287.32.717.48 1.29.48.354 0 .68-.07.98-.21.3-.147.534-.347.7-.6.174-.247.26-.507.26-.78 0-.413-.08-.793-.24-1.14s-.383-.62-.67-.82c-.286-.2-.616-.3-.99-.3z"/><path d="m396.633 321.975v.9h-5.63v-.84l2.25-2.27c.687-.693 1.14-1.187 1.36-1.48.22-.3.383-.59.49-.87.113-.28.17-.583.17-.91 0-.453-.14-.817-.42-1.09-.273-.267-.657-.4-1.15-.4-.36 0-.697.06-1.01.18-.32.113-.677.327-1.07.64l-.51-.67c.787-.653 1.647-.98 2.58-.98.8 0 1.43.207 1.89.62.453.413.68.967.68 1.66 0 .54-.15 1.077-.45 1.61-.307.533-.877 1.207-1.71 2.02l-1.88 1.83v.05zm6.901-3.39c0 1.48-.234 2.583-.7 3.31-.467.733-1.18 1.1-2.14 1.1-.92 0-1.62-.373-2.1-1.12-.48-.753-.72-1.85-.72-3.29 0-1.493.23-2.603.69-3.33.466-.72 1.176-1.08 2.13-1.08.933 0 1.64.377 2.12 1.13s.72 1.847.72 3.28zm-4.68 0c0 1.24.146 2.147.44 2.72.293.567.76.85 1.4.85.646 0 1.116-.287 1.41-.86.293-.58.44-1.483.44-2.71 0-1.233-.147-2.137-.44-2.71-.294-.573-.764-.86-1.41-.86-.64 0-1.107.283-1.4.85-.294.567-.44 1.473-.44 2.72zm9.471-4.28v8.57h-.95v-6.11c0-.507.016-.987.05-1.44-.087.087-.18.173-.28.26-.1.093-.564.473-1.39 1.14l-.52-.66 2.27-1.76zm6.86 0v8.57h-.95v-6.11c0-.507.017-.987.05-1.44-.086.087-.18.173-.28.26-.1.093-.563.473-1.39 1.14l-.52-.66 2.27-1.76z"/></g><path d="m71.424 164.587c0 .547-.153.993-.46 1.34s-.74.58-1.3.7v.05c.687.08 1.197.297 1.53.65s.5.813.5 1.38c0 .82-.283 1.45-.85 1.89s-1.373.66-2.42.66c-.453 0-.867-.037-1.24-.11-.38-.067-.747-.187-1.1-.36v-.92c.373.18.77.32 1.19.42.42.093.817.14 1.19.14 1.48 0 2.22-.58 2.22-1.74 0-1.04-.817-1.56-2.45-1.56h-.84v-.84h.85c.667 0 1.197-.147 1.59-.44s.59-.703.59-1.23c0-.413-.143-.74-.43-.98s-.677-.36-1.17-.36c-.38 0-.733.05-1.06.15-.333.107-.713.297-1.14.57l-.49-.66c.353-.273.757-.49 1.21-.65.46-.16.943-.24 1.45-.24.833 0 1.48.19 1.94.57s.69.903.69 1.57zm7.231 2.26c0 1.48-.234 2.583-.7 3.31-.467.733-1.18 1.1-2.14 1.1-.92 0-1.62-.373-2.1-1.12-.48-.753-.72-1.85-.72-3.29 0-1.493.23-2.603.69-3.33.466-.72 1.176-1.08 2.13-1.08.933 0 1.64.377 2.12 1.13s.72 1.847.72 3.28zm-4.68 0c0 1.24.146 2.147.44 2.72.293.567.76.85 1.4.85.646 0 1.116-.287 1.41-.86.293-.58.44-1.483.44-2.71 0-1.233-.147-2.137-.44-2.71-.294-.573-.764-.86-1.41-.86-.64 0-1.107.283-1.4.85-.294.567-.44 1.473-.44 2.72zm6.701-1.72c0 .66.07 1.157.21 1.49.146.333.383.5.71.5.64 0 .96-.663.96-1.99 0-1.32-.32-1.98-.96-1.98-.327 0-.564.163-.71.49-.14.327-.21.823-.21 1.49zm2.68 0c0 .887-.15 1.56-.45 2.02-.294.453-.73.68-1.31.68-.547 0-.974-.233-1.28-.7-.3-.467-.45-1.133-.45-2 0-.887.146-1.557.44-2.01.286-.447.716-.67 1.29-.67.566 0 1 .233 1.3.7.306.467.46 1.127.46 1.98zm2.47 3.43c0 .667.073 1.167.22 1.5.146.327.383.49.71.49.326 0 .57-.163.73-.49.153-.32.23-.82.23-1.5 0-.667-.077-1.16-.23-1.48-.16-.327-.404-.49-.73-.49-.327 0-.564.163-.71.49-.147.32-.22.813-.22 1.48zm2.69 0c0 .887-.147 1.557-.44 2.01-.3.46-.74.69-1.32.69-.554 0-.98-.233-1.28-.7s-.45-1.133-.45-2c0-.887.146-1.553.44-2 .286-.453.716-.68 1.29-.68.553 0 .986.23 1.3.69.306.46.46 1.123.46 1.99zm-2.37-5.99h.86l-4.75 8.57h-.86z" fill="#fff"/><path d="m154.319 200.316v.9h-5.63v-.84l2.25-2.27c.687-.693 1.14-1.187 1.36-1.48.22-.3.383-.59.49-.87.113-.28.17-.583.17-.91 0-.453-.14-.817-.42-1.09-.273-.267-.657-.4-1.15-.4-.36 0-.697.06-1.01.18-.32.113-.677.327-1.07.64l-.51-.67c.787-.653 1.647-.98 2.58-.98.8 0 1.43.207 1.89.62.453.413.68.967.68 1.66 0 .54-.15 1.077-.45 1.61-.307.533-.877 1.207-1.71 2.02l-1.88 1.83v.05zm7.261-1.95v.88h-1.27v1.97h-.93v-1.97h-4.17v-.85l4.07-5.79h1.03v5.76zm-5.4 0h3.2v-2.85c0-.56.02-1.19.06-1.89h-.05c-.187.373-.364.683-.53.93zm7.061-3.16c0 .66.07 1.157.21 1.49.146.333.383.5.71.5.64 0 .96-.663.96-1.99 0-1.32-.32-1.98-.96-1.98-.327 0-.564.163-.71.49-.14.327-.21.823-.21 1.49zm2.68 0c0 .887-.15 1.56-.45 2.02-.294.453-.73.68-1.31.68-.547 0-.974-.233-1.28-.7-.3-.467-.45-1.133-.45-2 0-.887.146-1.557.44-2.01.286-.447.716-.67 1.29-.67.566 0 1 .233 1.3.7.306.467.46 1.127.46 1.98zm2.47 3.43c0 .667.073 1.167.22 1.5.146.327.383.49.71.49.326 0 .57-.163.73-.49.153-.32.23-.82.23-1.5 0-.667-.077-1.16-.23-1.48-.16-.327-.404-.49-.73-.49-.327 0-.564.163-.71.49-.147.32-.22.813-.22 1.48zm2.69 0c0 .887-.147 1.557-.44 2.01-.3.46-.74.69-1.32.69-.554 0-.98-.233-1.28-.7s-.45-1.133-.45-2c0-.887.146-1.553.44-2 .286-.453.716-.68 1.29-.68.553 0 .986.23 1.3.69.306.46.46 1.123.46 1.99zm-2.37-5.99h.86l-4.75 8.57h-.86z" fill="#fff"/><path d="m314.722 227.736v8.57h-.95v-6.11c0-.507.017-.987.05-1.44-.087.087-.18.173-.28.26-.1.093-.563.473-1.39 1.14l-.52-.66 2.27-1.76zm5.421 8.57h-1.08l3.55-7.67h-4.67v-.9h5.7v.78zm5.531-6.01c0 .66.07 1.157.21 1.49.146.333.383.5.71.5.64 0 .96-.663.96-1.99 0-1.32-.32-1.98-.96-1.98-.327 0-.564.163-.71.49-.14.327-.21.823-.21 1.49zm2.68 0c0 .887-.15 1.56-.45 2.02-.294.453-.73.68-1.31.68-.547 0-.974-.233-1.28-.7-.3-.467-.45-1.133-.45-2 0-.887.146-1.557.44-2.01.286-.447.716-.67 1.29-.67.566 0 1 .233 1.3.7.306.467.46 1.127.46 1.98zm2.47 3.43c0 .667.073 1.167.22 1.5.146.327.383.49.71.49.326 0 .57-.163.73-.49.153-.32.23-.82.23-1.5 0-.667-.077-1.16-.23-1.48-.16-.327-.404-.49-.73-.49-.327 0-.564.163-.71.49-.147.32-.22.813-.22 1.48zm2.69 0c0 .887-.147 1.557-.44 2.01-.3.46-.74.69-1.32.69-.554 0-.98-.233-1.28-.7s-.45-1.133-.45-2c0-.887.146-1.553.44-2 .286-.453.716-.68 1.29-.68.553 0 .986.23 1.3.69.306.46.46 1.123.46 1.99zm-2.37-5.99h.86l-4.75 8.57h-.86z" fill="#fff"/><path d="m236.201 220.706v.9h-5.63v-.84l2.25-2.27c.687-.693 1.14-1.187 1.36-1.48.22-.3.383-.59.49-.87.113-.28.17-.583.17-.91 0-.453-.14-.817-.42-1.09-.273-.267-.657-.4-1.15-.4-.36 0-.697.06-1.01.18-.32.113-.677.327-1.07.64l-.51-.67c.787-.653 1.647-.98 2.58-.98.8 0 1.43.207 1.89.62.453.413.68.967.68 1.66 0 .54-.15 1.077-.45 1.61-.307.533-.877 1.207-1.71 2.02l-1.88 1.83v.05zm6.901-3.39c0 1.48-.234 2.583-.7 3.31-.467.733-1.18 1.1-2.14 1.1-.92 0-1.62-.373-2.1-1.12-.48-.753-.72-1.85-.72-3.29 0-1.493.23-2.603.69-3.33.466-.72 1.176-1.08 2.13-1.08.933 0 1.64.377 2.12 1.13s.72 1.847.72 3.28zm-4.68 0c0 1.24.146 2.147.44 2.72.293.567.76.85 1.4.85.646 0 1.116-.287 1.41-.86.293-.58.44-1.483.44-2.71 0-1.233-.147-2.137-.44-2.71-.294-.573-.764-.86-1.41-.86-.64 0-1.107.283-1.4.85-.294.567-.44 1.473-.44 2.72zm6.701-1.72c0 .66.07 1.157.21 1.49.146.333.383.5.71.5.64 0 .96-.663.96-1.99 0-1.32-.32-1.98-.96-1.98-.327 0-.564.163-.71.49-.14.327-.21.823-.21 1.49zm2.68 0c0 .887-.15 1.56-.45 2.02-.294.453-.73.68-1.31.68-.547 0-.974-.233-1.28-.7-.3-.467-.45-1.133-.45-2 0-.887.146-1.557.44-2.01.286-.447.716-.67 1.29-.67.566 0 1 .233 1.3.7.306.467.46 1.127.46 1.98zm2.47 3.43c0 .667.073 1.167.22 1.5.146.327.383.49.71.49.326 0 .57-.163.73-.49.153-.32.23-.82.23-1.5 0-.667-.077-1.16-.23-1.48-.16-.327-.404-.49-.73-.49-.327 0-.564.163-.71.49-.147.32-.22.813-.22 1.48zm2.69 0c0 .887-.147 1.557-.44 2.01-.3.46-.74.69-1.32.69-.554 0-.98-.233-1.28-.7s-.45-1.133-.45-2c0-.887.146-1.553.44-2 .286-.453.716-.68 1.29-.68.553 0 .986.23 1.3.69.306.46.46 1.123.46 1.99zm-2.37-5.99h.86l-4.75 8.57h-.86z" fill="#fff"/><path d="m397.941 232.079v8.57h-.95v-6.11c0-.507.017-.987.05-1.44-.087.087-.18.173-.28.26-.1.093-.563.473-1.39 1.14l-.52-.66 2.27-1.76zm3.361 4.91c0-1.687.326-2.947.98-3.78.653-.833 1.62-1.25 2.9-1.25.44 0 .786.037 1.04.11v.84c-.3-.1-.644-.15-1.03-.15-.914 0-1.614.287-2.1.86-.487.573-.754 1.473-.8 2.7h.07c.433-.673 1.113-1.01 2.04-1.01.773 0 1.38.233 1.82.7.446.467.67 1.097.67 1.89 0 .893-.244 1.593-.73 2.1-.487.513-1.147.77-1.98.77-.887 0-1.59-.333-2.11-1-.514-.667-.77-1.593-.77-2.78zm2.87 2.95c.553 0 .983-.173 1.29-.52.306-.353.46-.86.46-1.52 0-.567-.14-1.01-.42-1.33-.287-.327-.714-.49-1.28-.49-.354 0-.677.073-.97.22-.294.14-.527.337-.7.59-.174.253-.26.52-.26.8 0 .4.08.773.24 1.12.153.347.373.623.66.83.286.2.613.3.98.3zm4.721-5.3c0 .66.07 1.157.21 1.49.146.333.383.5.71.5.64 0 .96-.663.96-1.99 0-1.32-.32-1.98-.96-1.98-.327 0-.564.163-.71.49-.14.327-.21.823-.21 1.49zm2.68 0c0 .887-.15 1.56-.45 2.02-.294.453-.73.68-1.31.68-.547 0-.974-.233-1.28-.7-.3-.467-.45-1.133-.45-2 0-.887.146-1.557.44-2.01.286-.447.716-.67 1.29-.67.566 0 1 .233 1.3.7.306.467.46 1.127.46 1.98zm2.47 3.43c0 .667.073 1.167.22 1.5.146.327.383.49.71.49.326 0 .57-.163.73-.49.153-.32.23-.82.23-1.5 0-.667-.077-1.16-.23-1.48-.16-.327-.404-.49-.73-.49-.327 0-.564.163-.71.49-.147.32-.22.813-.22 1.48zm2.69 0c0 .887-.147 1.557-.44 2.01-.3.46-.74.69-1.32.69-.554 0-.98-.233-1.28-.7s-.45-1.133-.45-2c0-.887.146-1.553.44-2 .286-.453.716-.68 1.29-.68.553 0 .986.23 1.3.69.306.46.46 1.123.46 1.99zm-2.37-5.99h.86l-4.75 8.57h-.86z" fill="#fff" transform="matrix(1 0 0 1.00000095 -.668457 .678863)"/></svg>