<svg viewBox="0 0 287.13 405.91" xmlns="http://www.w3.org/2000/svg"><g transform="translate(-.64 -.98)"><path d="m210 313.7h-.83v-6.41h-2.26v-.73h5.35v.73h-2.26z"/><path d="m215.64 308.25a3.16 3.16 0 0 1 .64.06l-.12.75a2.67 2.67 0 0 0 -.58-.08 1.41 1.41 0 0 0 -1.11.53 1.91 1.91 0 0 0 -.47 1.31v2.88h-.81v-5.36h.67l.1 1a2.26 2.26 0 0 1 .71-.81 1.62 1.62 0 0 1 .97-.28z"/><path d="m220.57 313.7-.16-.77a2.33 2.33 0 0 1 -.8.69 2.62 2.62 0 0 1 -1 .17 1.75 1.75 0 0 1 -1.25-.41 1.48 1.48 0 0 1 -.45-1.16c0-1.08.86-1.65 2.59-1.7h.91v-.33a1.36 1.36 0 0 0 -.27-.93 1.13 1.13 0 0 0 -.87-.3 3.4 3.4 0 0 0 -1.51.41l-.25-.62a3.43 3.43 0 0 1 .86-.34 3.87 3.87 0 0 1 .95-.12 2.06 2.06 0 0 1 1.42.42 1.8 1.8 0 0 1 .46 1.36v3.66zm-1.83-.58a1.6 1.6 0 0 0 1.18-.41 1.53 1.53 0 0 0 .44-1.16v-.49h-.81a2.91 2.91 0 0 0 -1.4.3.91.91 0 0 0 -.42.83.84.84 0 0 0 .26.67 1.14 1.14 0 0 0 .75.26z"/><path d="m226.48 313a1.92 1.92 0 0 1 -1.68.81 2 2 0 0 1 -1.64-.71 3.17 3.17 0 0 1 -.58-2.05 3.21 3.21 0 0 1 .59-2 2.17 2.17 0 0 1 3.3.06h.06v-.39-.37-2.25h.81v7.6h-.66zm-1.62.13a1.48 1.48 0 0 0 1.2-.45 2.25 2.25 0 0 0 .38-1.45v-.23a2.7 2.7 0 0 0 -.38-1.62 1.45 1.45 0 0 0 -1.21-.48 1.23 1.23 0 0 0 -1.09.55 2.77 2.77 0 0 0 -.38 1.56 2.57 2.57 0 0 0 .38 1.55 1.25 1.25 0 0 0 1.1.55z"/><path d="m228.9 306.89a.52.52 0 0 1 .13-.4.48.48 0 0 1 .35-.13.44.44 0 0 1 .33.13.5.5 0 0 1 .14.4.51.51 0 0 1 -.14.41.45.45 0 0 1 -.33.14.48.48 0 0 1 -.35-.14.55.55 0 0 1 -.13-.41zm.88 6.81h-.78v-5.36h.81z"/><path d="m233.22 313.12a2.86 2.86 0 0 0 .42 0l.36-.12v.62a1.8 1.8 0 0 1 -.39.1 2.68 2.68 0 0 1 -.46 0c-1 0-1.56-.54-1.56-1.63v-3.09h-.76v-.39l.76-.33.35-1.15h.46v1.24h1.56v.63h-1.56v3.15a1.12 1.12 0 0 0 .23.75.82.82 0 0 0 .59.22z"/><path d="m235 306.89a.52.52 0 0 1 .13-.4.48.48 0 0 1 .35-.13.44.44 0 0 1 .33.13.5.5 0 0 1 .14.4.51.51 0 0 1 -.14.41.45.45 0 0 1 -.33.14.48.48 0 0 1 -.35-.14.55.55 0 0 1 -.13-.41zm.88 6.81h-.88v-5.36h.81z"/><path d="m242.17 311a2.94 2.94 0 0 1 -.66 2 2.29 2.29 0 0 1 -1.82.73 2.43 2.43 0 0 1 -1.27-.33 2.26 2.26 0 0 1 -.86-1 3.38 3.38 0 0 1 -.3-1.47 2.91 2.91 0 0 1 .65-2 2.31 2.31 0 0 1 1.82-.73 2.27 2.27 0 0 1 1.78.74 3 3 0 0 1 .66 2.06zm-4.07 0a2.5 2.5 0 0 0 .41 1.56 1.4 1.4 0 0 0 1.2.53 1.42 1.42 0 0 0 1.21-.53 2.5 2.5 0 0 0 .41-1.56 2.43 2.43 0 0 0 -.41-1.55 1.66 1.66 0 0 0 -2.42 0 2.51 2.51 0 0 0 -.4 1.55z"/><path d="m247.26 313.7v-3.47a1.37 1.37 0 0 0 -.3-1 1.19 1.19 0 0 0 -.93-.32 1.54 1.54 0 0 0 -1.23.45 2.29 2.29 0 0 0 -.39 1.5v2.81h-.82v-5.36h.66l.14.74a1.69 1.69 0 0 1 .7-.62 2.36 2.36 0 0 1 1-.21 2 2 0 0 1 1.46.46 2 2 0 0 1 .49 1.49v3.5z"/><path d="m253 313.7-.16-.77a2.16 2.16 0 0 1 -.8.69 2.55 2.55 0 0 1 -1 .17 1.76 1.76 0 0 1 -1.25-.41 1.48 1.48 0 0 1 -.45-1.16c0-1.08.87-1.65 2.59-1.7h.91v-.33a1.36 1.36 0 0 0 -.27-.93 1.11 1.11 0 0 0 -.86-.3 3.47 3.47 0 0 0 -1.52.41l-.25-.62a3.66 3.66 0 0 1 .87-.34 3.79 3.79 0 0 1 .94-.12 2.06 2.06 0 0 1 1.42.42 1.76 1.76 0 0 1 .46 1.36v3.66zm-1.83-.58a1.63 1.63 0 0 0 1.19-.41 1.52 1.52 0 0 0 .43-1.16v-.49h-.81a2.87 2.87 0 0 0 -1.39.3.9.9 0 0 0 -.43.83.85.85 0 0 0 .27.67 1.09 1.09 0 0 0 .76.26z"/><path d="m256.1 313.7h-.81v-7.6h.81z"/><path d="m178.24 311.5a1.4 1.4 0 0 1 -.5 1.1 2.49 2.49 0 0 1 -1.39.54v1.14h-.63v-1.09a6.15 6.15 0 0 1 -1.06-.09 3.15 3.15 0 0 1 -.84-.23v-.77a5 5 0 0 0 .94.3 4.29 4.29 0 0 0 1 .11v-2.14a3.38 3.38 0 0 1 -1.4-.74 1.5 1.5 0 0 1 -.41-1.09 1.33 1.33 0 0 1 .5-1.05 2.45 2.45 0 0 1 1.31-.49v-.89h.63v.89a4.66 4.66 0 0 1 1.73.36l-.25.64a4.89 4.89 0 0 0 -1.48-.34v2.12a5.92 5.92 0 0 1 1.15.47 1.69 1.69 0 0 1 .56.53 1.41 1.41 0 0 1 .14.72zm-3.5-3a.81.81 0 0 0 .22.6 2.24 2.24 0 0 0 .76.43v-1.89a1.37 1.37 0 0 0 -.73.3.72.72 0 0 0 -.25.59zm2.67 3a.74.74 0 0 0 -.22-.57 2.12 2.12 0 0 0 -.84-.43v1.9c.71-.03 1.06-.33 1.06-.83z"/><path d="m182.39 313.7h-.79v-5.09c0-.42 0-.83 0-1.2l-.23.21-1.16.95-.43-.55 1.89-1.46h.68z"/><path d="m188.11 313.7h-.79v-5.09c0-.42 0-.83 0-1.2l-.23.21-1.17.95-.42-.55 1.88-1.46h.69z"/><path d="m191.08 313.18a.75.75 0 0 1 .15-.5.54.54 0 0 1 .42-.17.57.57 0 0 1 .44.17.7.7 0 0 1 .16.5.69.69 0 0 1 -.16.49.57.57 0 0 1 -.44.17.56.56 0 0 1 -.41-.16.65.65 0 0 1 -.16-.5z"/><path d="m193.57 310.64a5.06 5.06 0 0 1 .81-3.14 2.9 2.9 0 0 1 2.42-1.05 3.24 3.24 0 0 1 .87.1v.7a2.51 2.51 0 0 0 -.86-.13 2.16 2.16 0 0 0 -1.75.72 3.69 3.69 0 0 0 -.66 2.25h.06a1.86 1.86 0 0 1 1.7-.84 2 2 0 0 1 1.51.58 2.19 2.19 0 0 1 .56 1.58 2.47 2.47 0 0 1 -.61 1.75 2.19 2.19 0 0 1 -1.65.63 2.09 2.09 0 0 1 -1.75-.83 3.64 3.64 0 0 1 -.65-2.32zm2.43 2.46a1.35 1.35 0 0 0 1.08-.43 1.83 1.83 0 0 0 .38-1.26 1.62 1.62 0 0 0 -.35-1.12 1.35 1.35 0 0 0 -1.07-.4 1.77 1.77 0 0 0 -.8.18 1.44 1.44 0 0 0 -.59.5 1.17 1.17 0 0 0 -.21.66 2.24 2.24 0 0 0 .19.93 1.66 1.66 0 0 0 .56.69 1.36 1.36 0 0 0 .81.25z"/><path d="m199.29 310.64a5.06 5.06 0 0 1 .81-3.14 2.9 2.9 0 0 1 2.42-1.05 3.24 3.24 0 0 1 .87.1v.7a2.55 2.55 0 0 0 -.86-.13 2.16 2.16 0 0 0 -1.75.72 3.63 3.63 0 0 0 -.66 2.25 1.88 1.88 0 0 1 1.7-.84 2 2 0 0 1 1.52.58 2.19 2.19 0 0 1 .55 1.58 2.42 2.42 0 0 1 -.61 1.75 2.16 2.16 0 0 1 -1.64.63 2.11 2.11 0 0 1 -1.76-.83 3.7 3.7 0 0 1 -.59-2.32zm2.39 2.46a1.37 1.37 0 0 0 1.08-.43 1.88 1.88 0 0 0 .38-1.26 1.67 1.67 0 0 0 -.35-1.12 1.36 1.36 0 0 0 -1.07-.4 1.77 1.77 0 0 0 -.8.18 1.44 1.44 0 0 0 -.59.5 1.17 1.17 0 0 0 -.21.66 2.24 2.24 0 0 0 .19.93 1.64 1.64 0 0 0 .55.69 1.39 1.39 0 0 0 .82.25z"/><path d="m178.24 338.91a1.41 1.41 0 0 1 -.5 1.1 2.64 2.64 0 0 1 -1.39.54v1.13h-.63v-1.09a7.34 7.34 0 0 1 -1.06-.08 3.55 3.55 0 0 1 -.84-.24v-.76a5 5 0 0 0 1.9.41v-2.15a3.27 3.27 0 0 1 -1.4-.74 1.49 1.49 0 0 1 -.41-1.08 1.3 1.3 0 0 1 .5-1.05 2.46 2.46 0 0 1 1.31-.5v-.89h.63v.88a5.09 5.09 0 0 1 1.73.36l-.25.64a5.21 5.21 0 0 0 -1.48-.34v2.12a5.29 5.29 0 0 1 1.15.48 1.6 1.6 0 0 1 .56.53 1.39 1.39 0 0 1 .18.73zm-3.5-3a.81.81 0 0 0 .22.6 2.09 2.09 0 0 0 .76.42v-1.89a1.37 1.37 0 0 0 -.73.31.72.72 0 0 0 -.25.59zm2.67 3a.77.77 0 0 0 -.22-.57 2.26 2.26 0 0 0 -.84-.43v1.9c.71-.04 1.06-.34 1.06-.81z"/><path d="m180.29 341.1 3-6.39h-3.89v-.71h4.75v.65l-2.92 6.49z"/><path d="m185.36 340.58a.72.72 0 0 1 .15-.49.55.55 0 0 1 .43-.17.6.6 0 0 1 .44.17.72.72 0 0 1 .16.49.7.7 0 0 1 -.16.49.57.57 0 0 1 -.44.17.6.6 0 0 1 -.42-.15.66.66 0 0 1 -.16-.51z"/><path d="m187.85 338.05a5 5 0 0 1 .82-3.15 2.89 2.89 0 0 1 2.42-1 3.36 3.36 0 0 1 .87.09v.7a2.84 2.84 0 0 0 -.86-.12 2.2 2.2 0 0 0 -1.76.71 3.72 3.72 0 0 0 -.66 2.25h.06a1.87 1.87 0 0 1 1.7-.84 2 2 0 0 1 1.51.58 2.21 2.21 0 0 1 .56 1.58 2.45 2.45 0 0 1 -.61 1.75 2.15 2.15 0 0 1 -1.64.64 2.12 2.12 0 0 1 -1.76-.83 3.72 3.72 0 0 1 -.65-2.36zm2.4 2.46a1.34 1.34 0 0 0 1.07-.44 1.83 1.83 0 0 0 .39-1.26 1.61 1.61 0 0 0 -.36-1.11 1.34 1.34 0 0 0 -1.06-.41 1.79 1.79 0 0 0 -.81.18 1.49 1.49 0 0 0 -.58.5 1.11 1.11 0 0 0 -.22.66 2.26 2.26 0 0 0 .2.94 1.57 1.57 0 0 0 .55.69 1.37 1.37 0 0 0 .82.25z"/><path d="m196.49 341.1h-.79v-5.1c0-.42 0-.82 0-1.2l-.23.22-1.17 1-.43-.56 1.93-1.46h.69z"/><path d="m178.24 354.19a1.41 1.41 0 0 1 -.5 1.1 2.49 2.49 0 0 1 -1.39.54v1.17h-.63v-1.08a6.15 6.15 0 0 1 -1.06-.09 3.55 3.55 0 0 1 -.84-.24v-.76a5 5 0 0 0 1.9.41v-2.15a3.27 3.27 0 0 1 -1.4-.73 1.52 1.52 0 0 1 -.41-1.09 1.33 1.33 0 0 1 .5-1.05 2.46 2.46 0 0 1 1.31-.5v-.88h.63v.87a4.87 4.87 0 0 1 1.73.37l-.25.64a4.91 4.91 0 0 0 -1.48-.35v2.12a5.84 5.84 0 0 1 1.15.48 1.6 1.6 0 0 1 .56.53 1.39 1.39 0 0 1 .18.69zm-3.5-3a.81.81 0 0 0 .22.6 2.09 2.09 0 0 0 .76.42v-1.89a1.37 1.37 0 0 0 -.73.31.72.72 0 0 0 -.25.59zm2.67 3a.73.73 0 0 0 -.22-.56 2.24 2.24 0 0 0 -.84-.44v1.9c.71-.03 1.06-.33 1.06-.84z"/><path d="m181.62 352a2.63 2.63 0 0 1 1.77.56 1.9 1.9 0 0 1 .65 1.53 2.18 2.18 0 0 1 -.71 1.74 2.78 2.78 0 0 1 -1.94.63 3.66 3.66 0 0 1 -1.84-.38v-.79a2.65 2.65 0 0 0 .85.35 4.34 4.34 0 0 0 1 .12 2 2 0 0 0 1.33-.4 1.45 1.45 0 0 0 .48-1.17q0-1.5-1.83-1.5a7.76 7.76 0 0 0 -1.24.14l-.42-.27.27-3.34h3.55v.78h-2.86l-.18 2.15a5.4 5.4 0 0 1 1.12-.15z"/><path d="m185.36 355.87a.73.73 0 0 1 .15-.5.55.55 0 0 1 .43-.17.6.6 0 0 1 .44.17.73.73 0 0 1 .16.5.69.69 0 0 1 -.16.48.57.57 0 0 1 -.44.17.6.6 0 0 1 -.42-.15.65.65 0 0 1 -.16-.5z"/><path d="m190 352a2.63 2.63 0 0 1 1.77.56 1.93 1.93 0 0 1 .65 1.53 2.22 2.22 0 0 1 -.71 1.74 2.8 2.8 0 0 1 -1.94.63 3.63 3.63 0 0 1 -1.84-.38v-.79a2.65 2.65 0 0 0 .85.35 4.34 4.34 0 0 0 1 .12 2 2 0 0 0 1.33-.4 1.45 1.45 0 0 0 .48-1.17q0-1.5-1.83-1.5a7.76 7.76 0 0 0 -1.24.14l-.42-.27.27-3.34h3.55v.78h-2.86l-.18 2.15a5.33 5.33 0 0 1 1.12-.15z"/><path d="m198.22 352.8a5.21 5.21 0 0 1 -.59 2.77 2.16 2.16 0 0 1 -3.54 0 6.68 6.68 0 0 1 0-5.51 1.93 1.93 0 0 1 1.77-.91 2 2 0 0 1 1.76.94 5.11 5.11 0 0 1 .6 2.71zm-3.91 0a5.28 5.28 0 0 0 .37 2.27 1.31 1.31 0 0 0 2.34 0 7.06 7.06 0 0 0 0-4.51 1.32 1.32 0 0 0 -2.34 0 5.25 5.25 0 0 0 -.37 2.24z"/><path d="m178.24 388.38a1.38 1.38 0 0 1 -.5 1.09 2.57 2.57 0 0 1 -1.39.55v1.13h-.63v-1.09a7.34 7.34 0 0 1 -1.06-.08 3.55 3.55 0 0 1 -.84-.24v-.74a5.59 5.59 0 0 0 1.9.41v-2.15a3.27 3.27 0 0 1 -1.4-.74 1.49 1.49 0 0 1 -.41-1.08 1.3 1.3 0 0 1 .5-1.05 2.46 2.46 0 0 1 1.31-.5v-.89h.63v.88a5.09 5.09 0 0 1 1.73.36l-.25.64a5.21 5.21 0 0 0 -1.48-.34v2.12a5.29 5.29 0 0 1 1.15.48 1.6 1.6 0 0 1 .56.53 1.39 1.39 0 0 1 .18.71zm-3.5-3a.78.78 0 0 0 .22.59 2.08 2.08 0 0 0 .76.43v-1.89a1.3 1.3 0 0 0 -.73.31.7.7 0 0 0 -.25.59zm2.67 3a.77.77 0 0 0 -.22-.57 2.26 2.26 0 0 0 -.84-.43v1.9c.71-.04 1.06-.34 1.06-.84z"/><path d="m184.12 387a5.28 5.28 0 0 1 -.58 2.76 2 2 0 0 1 -1.79.92 1.94 1.94 0 0 1 -1.75-.94 5.11 5.11 0 0 1 -.6-2.74 5.2 5.2 0 0 1 .58-2.77 2.16 2.16 0 0 1 3.54 0 5.12 5.12 0 0 1 .6 2.77zm-3.9 0a5.3 5.3 0 0 0 .36 2.27 1.24 1.24 0 0 0 1.17.71 1.22 1.22 0 0 0 1.17-.72 7.06 7.06 0 0 0 0-4.51 1.22 1.22 0 0 0 -1.17-.72 1.24 1.24 0 0 0 -1.17.71 5.25 5.25 0 0 0 -.36 2.26z"/><path d="m185.36 390.05a.7.7 0 0 1 .15-.49.52.52 0 0 1 .43-.17.57.57 0 0 1 .44.17.7.7 0 0 1 .16.49.72.72 0 0 1 -.16.49.66.66 0 0 1 -.86 0 .66.66 0 0 1 -.16-.49z"/><path d="m190 386.21a2.63 2.63 0 0 1 1.77.56 1.92 1.92 0 0 1 .65 1.53 2.22 2.22 0 0 1 -.71 1.74 2.8 2.8 0 0 1 -1.94.63 3.52 3.52 0 0 1 -1.84-.39v-.78a2.9 2.9 0 0 0 .85.35 4.34 4.34 0 0 0 1 .12 2 2 0 0 0 1.33-.41 1.45 1.45 0 0 0 .48-1.17c0-1-.61-1.49-1.83-1.49a6.74 6.74 0 0 0 -1.24.14l-.42-.27.27-3.34h3.55v.75h-2.86l-.18 2.14a6.07 6.07 0 0 1 1.12-.11z"/><path d="m198.51 388.93h-1.06v1.64h-.77v-1.64h-3.47v-.71l3.38-4.83h.86v4.8h1.06zm-1.83-.74v-2.37c0-.47 0-1 0-1.58-.16.31-.31.57-.44.78l-2.24 3.17z"/><path d="m178.24 366.62a1.4 1.4 0 0 1 -.5 1.1 2.49 2.49 0 0 1 -1.39.54v1.14h-.63v-1.09a6.15 6.15 0 0 1 -1.06-.09 3.15 3.15 0 0 1 -.84-.23v-.77a5 5 0 0 0 .94.3 4.29 4.29 0 0 0 1 .11v-2.14a3.38 3.38 0 0 1 -1.4-.74 1.5 1.5 0 0 1 -.41-1.09 1.33 1.33 0 0 1 .5-1.05 2.45 2.45 0 0 1 1.31-.49v-.89h.63v.88a4.66 4.66 0 0 1 1.73.36l-.25.64a4.89 4.89 0 0 0 -1.48-.34v2.12a5.92 5.92 0 0 1 1.15.47 1.69 1.69 0 0 1 .56.53 1.41 1.41 0 0 1 .14.73zm-3.5-3a.81.81 0 0 0 .22.6 2.24 2.24 0 0 0 .76.43v-1.89a1.37 1.37 0 0 0 -.73.3.72.72 0 0 0 -.25.59zm2.67 3a.74.74 0 0 0 -.22-.57 2.12 2.12 0 0 0 -.84-.43v1.9c.71-.03 1.06-.33 1.06-.83z"/><path d="m183.81 363.36a1.67 1.67 0 0 1 -.38 1.12 2 2 0 0 1 -1.09.58 2.05 2.05 0 0 1 1.28.54 1.65 1.65 0 0 1 .41 1.15 1.86 1.86 0 0 1 -.71 1.57 3.19 3.19 0 0 1 -2 .55 5.63 5.63 0 0 1 -1-.08 3.74 3.74 0 0 1 -.91-.3v-.77a4.65 4.65 0 0 0 1 .35 4.45 4.45 0 0 0 1 .12c1.23 0 1.85-.49 1.85-1.46s-.68-1.29-2-1.29h-.7v-.7h.71a2.16 2.16 0 0 0 1.32-.37 1.21 1.21 0 0 0 .49-1 1 1 0 0 0 -.36-.82 1.46 1.46 0 0 0 -1-.3 2.9 2.9 0 0 0 -.89.13 4 4 0 0 0 -.94.46l-.41-.54a3.39 3.39 0 0 1 1-.55 3.74 3.74 0 0 1 1.21-.2 2.48 2.48 0 0 1 1.62.48 1.61 1.61 0 0 1 .5 1.33z"/><path d="m185.36 368.3a.75.75 0 0 1 .15-.5.55.55 0 0 1 .43-.17.6.6 0 0 1 .44.17.75.75 0 0 1 .16.5.74.74 0 0 1 -.16.49.6.6 0 0 1 -.44.17.57.57 0 0 1 -.42-.16.65.65 0 0 1 -.16-.5z"/><path d="m187.85 365.76a5 5 0 0 1 .82-3.14 2.87 2.87 0 0 1 2.42-1.05 3.3 3.3 0 0 1 .87.1v.7a2.55 2.55 0 0 0 -.86-.13 2.18 2.18 0 0 0 -1.76.72 3.72 3.72 0 0 0 -.66 2.25h.06a1.87 1.87 0 0 1 1.7-.84 2 2 0 0 1 1.56.63 2.19 2.19 0 0 1 .56 1.58 2.47 2.47 0 0 1 -.61 1.75 2.18 2.18 0 0 1 -1.64.63 2.1 2.1 0 0 1 -1.76-.83 3.7 3.7 0 0 1 -.7-2.37zm2.4 2.47a1.34 1.34 0 0 0 1.07-.44 1.83 1.83 0 0 0 .39-1.26 1.62 1.62 0 0 0 -.36-1.12 1.34 1.34 0 0 0 -1.06-.4 1.79 1.79 0 0 0 -.81.18 1.41 1.41 0 0 0 -.58.5 1.11 1.11 0 0 0 -.22.66 2.25 2.25 0 0 0 .2.93 1.57 1.57 0 0 0 .55.69 1.38 1.38 0 0 0 .82.26z"/><path d="m194.39 368.82 3-6.4h-3.89v-.74h4.75v.65l-2.92 6.49z"/><path d="m18 405.15h-1v1.64h-.78v-1.64h-3.52v-.71l3.39-4.83h.91v4.8h1zm-1.84-.74v-2.41c0-.47 0-1 0-1.58a8.38 8.38 0 0 1 -.44.78l-2.23 3.17z"/><path d="m28.48 406.79v-3.48a1.45 1.45 0 0 0 -.27-1 1.07 1.07 0 0 0 -.85-.32 1.38 1.38 0 0 0 -1.12.43 2.08 2.08 0 0 0 -.36 1.34v3h-.81v-3.48a1.45 1.45 0 0 0 -.27-1 1.09 1.09 0 0 0 -.86-.32 1.3 1.3 0 0 0 -1.11.46 2.41 2.41 0 0 0 -.36 1.49v2.81h-.81v-5.35h.66l.13.73a1.66 1.66 0 0 1 .65-.61 1.93 1.93 0 0 1 .93-.22 1.6 1.6 0 0 1 1.65.91 1.72 1.72 0 0 1 .7-.66 2.07 2.07 0 0 1 1-.25 1.81 1.81 0 0 1 1.36.47 2.09 2.09 0 0 1 .45 1.49v3.49z"/><path d="m35.58 404.11a2.94 2.94 0 0 1 -.66 2 2.32 2.32 0 0 1 -1.82.74 2.34 2.34 0 0 1 -1.27-.34 2.2 2.2 0 0 1 -.86-1 3.38 3.38 0 0 1 -.3-1.47 2.94 2.94 0 0 1 .65-2 2.31 2.31 0 0 1 1.82-.73 2.25 2.25 0 0 1 1.78.75 2.94 2.94 0 0 1 .66 2.05zm-4.07 0a2.5 2.5 0 0 0 .41 1.56 1.41 1.41 0 0 0 1.2.54 1.44 1.44 0 0 0 1.21-.53 2.51 2.51 0 0 0 .41-1.57 2.45 2.45 0 0 0 -.41-1.55 1.45 1.45 0 0 0 -1.22-.53 1.42 1.42 0 0 0 -1.2.52 2.53 2.53 0 0 0 -.4 1.56z"/><path d="m40.67 406.79v-3.46a1.4 1.4 0 0 0 -.3-1 1.23 1.23 0 0 0 -.93-.32 1.54 1.54 0 0 0 -1.23.45 2.26 2.26 0 0 0 -.4 1.5v2.81h-.81v-5.35h.66l.14.73a1.67 1.67 0 0 1 .7-.61 2.22 2.22 0 0 1 1-.22 2 2 0 0 1 1.46.47 2 2 0 0 1 .49 1.49v3.49z"/><path d="m44.87 406.22h.42l.31-.07v.62a1.45 1.45 0 0 1 -.39.11 4.09 4.09 0 0 1 -.46 0c-1 0-1.55-.55-1.55-1.64v-3.18h-.77v-.39l.77-.34.34-1.14h.46v1.24h1.55v.63h-1.55v3.15a1.09 1.09 0 0 0 .23.74.8.8 0 0 0 .64.27z"/><path d="m50.33 406.79v-3.46a1.45 1.45 0 0 0 -.29-1 1.24 1.24 0 0 0 -.94-.32 1.52 1.52 0 0 0 -1.23.46 2.31 2.31 0 0 0 -.39 1.5v2.8h-.81v-7.6h.81v2.3a4.41 4.41 0 0 1 0 .69h.05a1.68 1.68 0 0 1 .68-.61 2.34 2.34 0 0 1 1-.22 2 2 0 0 1 1.47.47 1.94 1.94 0 0 1 .5 1.48v3.49z"/><path d="m56.26 405.33a1.33 1.33 0 0 1 -.55 1.15 2.66 2.66 0 0 1 -1.57.41 3.34 3.34 0 0 1 -1.66-.34v-.75a4.57 4.57 0 0 0 .83.31 3.67 3.67 0 0 0 .85.11 2 2 0 0 0 1-.2.67.67 0 0 0 .34-.62.68.68 0 0 0 -.27-.54 4.44 4.44 0 0 0 -1.06-.52 5.77 5.77 0 0 1 -1.06-.49 1.32 1.32 0 0 1 -.47-.47 1.22 1.22 0 0 1 -.15-.63 1.21 1.21 0 0 1 .53-1 2.48 2.48 0 0 1 1.46-.38 4.34 4.34 0 0 1 1.69.35l-.29.66a3.89 3.89 0 0 0 -1.48-.38 1.71 1.71 0 0 0 -.87.18.57.57 0 0 0 -.29.5.61.61 0 0 0 .11.36 1 1 0 0 0 .35.29 8.3 8.3 0 0 0 .94.4 3.44 3.44 0 0 1 1.29.7 1.23 1.23 0 0 1 .33.9z"/><path d="m144.76 406.79h-4.69v-.7l1.93-1.89a13.5 13.5 0 0 0 1.13-1.24 3.13 3.13 0 0 0 .41-.72 2.09 2.09 0 0 0 .13-.76 1.18 1.18 0 0 0 -.34-.9 1.3 1.3 0 0 0 -1-.34 2.41 2.41 0 0 0 -.85.15 3.3 3.3 0 0 0 -.88.53l-.43-.55a3.27 3.27 0 0 1 2.15-.82 2.26 2.26 0 0 1 1.57.51 1.8 1.8 0 0 1 .58 1.39 2.62 2.62 0 0 1 -.39 1.34 8.72 8.72 0 0 1 -1.42 1.68l-1.57 1.53h3.67z"/><path d="m145.87 403.74a5.11 5.11 0 0 1 .81-3.15 2.92 2.92 0 0 1 2.42-1 3.31 3.31 0 0 1 .87.09v.7a2.79 2.79 0 0 0 -.86-.12 2.18 2.18 0 0 0 -1.75.71 3.72 3.72 0 0 0 -.66 2.25h.05a1.88 1.88 0 0 1 1.7-.84 2 2 0 0 1 1.52.58 2.2 2.2 0 0 1 .55 1.58 2.45 2.45 0 0 1 -.6 1.75 2.17 2.17 0 0 1 -1.65.64 2.1 2.1 0 0 1 -1.75-.83 3.66 3.66 0 0 1 -.65-2.36zm2.39 2.46a1.37 1.37 0 0 0 1.08-.44 1.83 1.83 0 0 0 .38-1.26 1.66 1.66 0 0 0 -.35-1.11 1.36 1.36 0 0 0 -1.07-.41 1.77 1.77 0 0 0 -.8.18 1.52 1.52 0 0 0 -.59.5 1.17 1.17 0 0 0 -.21.66 2.29 2.29 0 0 0 .19.94 1.66 1.66 0 0 0 .56.69 1.41 1.41 0 0 0 .81.25z"/><path d="m161.29 406.79v-3.48a1.45 1.45 0 0 0 -.27-1 1.09 1.09 0 0 0 -.85-.32 1.36 1.36 0 0 0 -1.12.43 2.08 2.08 0 0 0 -.36 1.34v3h-.81v-3.48a1.39 1.39 0 0 0 -.28-1 1.06 1.06 0 0 0 -.85-.32 1.32 1.32 0 0 0 -1.12.46 2.49 2.49 0 0 0 -.35 1.49v2.81h-.81v-5.35h.66l.13.73a1.6 1.6 0 0 1 .65-.61 1.91 1.91 0 0 1 .93-.22 1.58 1.58 0 0 1 1.64.91 1.69 1.69 0 0 1 .69-.66 2.11 2.11 0 0 1 1-.25 1.81 1.81 0 0 1 1.36.47 2.09 2.09 0 0 1 .45 1.49v3.49z"/><path d="m168.39 404.11a2.94 2.94 0 0 1 -.66 2 2.58 2.58 0 0 1 -3.09.4 2.14 2.14 0 0 1 -.86-1 3.25 3.25 0 0 1 -.31-1.47 2.94 2.94 0 0 1 .66-2 2.56 2.56 0 0 1 3.6 0 2.94 2.94 0 0 1 .66 2.07zm-4.08 0a2.57 2.57 0 0 0 .41 1.56 1.44 1.44 0 0 0 1.21.54 1.46 1.46 0 0 0 1.21-.53 2.58 2.58 0 0 0 .41-1.57 2.51 2.51 0 0 0 -.41-1.55 1.46 1.46 0 0 0 -1.22-.53 1.42 1.42 0 0 0 -1.2.52 2.53 2.53 0 0 0 -.41 1.56z"/><path d="m173.47 406.79v-3.46a1.45 1.45 0 0 0 -.29-1 1.24 1.24 0 0 0 -.94-.32 1.54 1.54 0 0 0 -1.23.45 2.32 2.32 0 0 0 -.39 1.5v2.81h-.81v-5.35h.66l.13.73a1.67 1.67 0 0 1 .7-.61 2.19 2.19 0 0 1 1-.22 2 2 0 0 1 1.46.47 2 2 0 0 1 .48 1.49v3.49z"/><path d="m177.68 406.22a2.6 2.6 0 0 0 .73-.1v.62a1.72 1.72 0 0 1 -.39.11 4.09 4.09 0 0 1 -.46 0c-1 0-1.55-.55-1.55-1.64v-3.18h-.77v-.39l.77-.34.34-1.14h.47v1.24h1.55v.63h-1.55v3.15a1 1 0 0 0 .23.74.8.8 0 0 0 .63.3z"/><path d="m183.14 406.79v-3.46a1.4 1.4 0 0 0 -.3-1 1.22 1.22 0 0 0 -.93-.32 1.52 1.52 0 0 0 -1.23.46 2.31 2.31 0 0 0 -.39 1.5v2.8h-.81v-7.6h.81v2.3a4.41 4.41 0 0 1 0 .69h.05a1.68 1.68 0 0 1 .68-.61 2.34 2.34 0 0 1 1-.22 2.08 2.08 0 0 1 1.47.47 1.94 1.94 0 0 1 .49 1.48v3.49z"/><path d="m189.07 405.33a1.34 1.34 0 0 1 -.56 1.15 2.61 2.61 0 0 1 -1.56.41 3.34 3.34 0 0 1 -1.66-.34v-.75a4.31 4.31 0 0 0 .83.31 3.67 3.67 0 0 0 .85.11 2 2 0 0 0 1-.2.69.69 0 0 0 .34-.62.68.68 0 0 0 -.27-.54 4.65 4.65 0 0 0 -1.06-.52 5.77 5.77 0 0 1 -1.06-.49 1.32 1.32 0 0 1 -.47-.47 1.22 1.22 0 0 1 -.15-.63 1.19 1.19 0 0 1 .53-1 2.48 2.48 0 0 1 1.46-.38 4.37 4.37 0 0 1 1.69.35l-.29.66a3.89 3.89 0 0 0 -1.46-.33 1.71 1.71 0 0 0 -.87.18.6.6 0 0 0 -.18.86 1 1 0 0 0 .35.29 7.54 7.54 0 0 0 .94.4 3.38 3.38 0 0 1 1.28.7 1.2 1.2 0 0 1 .32.85z"/><path d="m5.06 6.38a1.38 1.38 0 0 1 -.5 1.09 2.6 2.6 0 0 1 -1.39.53v1.15h-.63v-1.09a7.23 7.23 0 0 1 -1.06-.06 3.55 3.55 0 0 1 -.84-.24v-.76a4.42 4.42 0 0 0 .93.29 4.49 4.49 0 0 0 1 .12v-2.17a3.38 3.38 0 0 1 -1.44-.74 1.53 1.53 0 0 1 -.4-1.08 1.3 1.3 0 0 1 .5-1 2.38 2.38 0 0 1 1.31-.5v-.92h.63v.88a5.09 5.09 0 0 1 1.73.36l-.25.64a5.21 5.21 0 0 0 -1.48-.34v2.1a5.29 5.29 0 0 1 1.15.48 1.6 1.6 0 0 1 .56.53 1.39 1.39 0 0 1 .18.73zm-3.5-3a.78.78 0 0 0 .22.62 2.14 2.14 0 0 0 .76.43v-1.89a1.37 1.37 0 0 0 -.73.3.74.74 0 0 0 -.25.57zm2.67 3a.77.77 0 0 0 -.23-.51 2.26 2.26 0 0 0 -.84-.43v1.9c.72-.1 1.07-.4 1.07-.9z"/><path d="m8.44 4.21a2.63 2.63 0 0 1 1.77.56 1.92 1.92 0 0 1 .65 1.53 2.22 2.22 0 0 1 -.71 1.7 2.8 2.8 0 0 1 -1.94.63 3.52 3.52 0 0 1 -1.84-.39v-.74a2.56 2.56 0 0 0 .85.34 3.87 3.87 0 0 0 1 .13 2 2 0 0 0 1.33-.41 1.45 1.45 0 0 0 .45-1.17c0-1-.61-1.49-1.83-1.49a6.74 6.74 0 0 0 -1.17.1l-.42-.27.27-3.34h3.55v.75h-2.9l-.18 2.18a6.07 6.07 0 0 1 1.12-.11z"/><path d="m14.16 4.21a2.63 2.63 0 0 1 1.77.56 1.92 1.92 0 0 1 .65 1.53 2.22 2.22 0 0 1 -.71 1.7 2.81 2.81 0 0 1 -1.94.63 3.59 3.59 0 0 1 -1.85-.39v-.74a2.75 2.75 0 0 0 .85.34 3.94 3.94 0 0 0 1 .13 2 2 0 0 0 1.33-.41 1.45 1.45 0 0 0 .48-1.17c0-1-.61-1.49-1.83-1.49a6.65 6.65 0 0 0 -1.23.1l-.42-.27.26-3.34h3.55v.75h-2.85l-.22 2.18a6 6 0 0 1 1.16-.11z"/><path d="m17.9 8.05a.75.75 0 0 1 .1-.49.53.53 0 0 1 .43-.17.54.54 0 0 1 .44.17.66.66 0 0 1 .16.49.67.67 0 0 1 -.16.49.65.65 0 0 1 -.85 0 .66.66 0 0 1 -.12-.49z"/><path d="m25 5a5.18 5.18 0 0 1 -.58 2.76 2.15 2.15 0 0 1 -3.54 0 5.11 5.11 0 0 1 -.57-2.76 5.29 5.29 0 0 1 .58-2.77 2.16 2.16 0 0 1 3.54 0 5.12 5.12 0 0 1 .57 2.77zm-3.9 0a5.13 5.13 0 0 0 .37 2.27 1.31 1.31 0 0 0 2.34 0 5.31 5.31 0 0 0 .39-2.27 5.23 5.23 0 0 0 -.36-2.25 1.31 1.31 0 0 0 -2.34 0 5.08 5.08 0 0 0 -.37 2.25z"/><path d="m30.44 3.11a1.6 1.6 0 0 1 -.38 1.12 1.92 1.92 0 0 1 -1.06.58 2 2 0 0 1 1.28.55 1.57 1.57 0 0 1 .41 1.15 1.87 1.87 0 0 1 -.69 1.61 3.3 3.3 0 0 1 -2 .55 5.49 5.49 0 0 1 -1-.09 3.81 3.81 0 0 1 -.92-.3v-.77a4.65 4.65 0 0 0 1 .35 4.45 4.45 0 0 0 .92.14c1.24 0 1.85-.48 1.85-1.45s-.68-1.3-2-1.3h-.7v-.7h.71a2.14 2.14 0 0 0 1.33-.37 1.2 1.2 0 0 0 .48-1 1 1 0 0 0 -.35-.82 1.49 1.49 0 0 0 -1-.3 2.8 2.8 0 0 0 -.88.13 3.61 3.61 0 0 0 -.95.47l-.49-.59a3.37 3.37 0 0 1 1-.54 3.53 3.53 0 0 1 1.21-.2 2.52 2.52 0 0 1 1.62.47 1.63 1.63 0 0 1 .61 1.31z"/><path d="m5.06 198a1.39 1.39 0 0 1 -.5 1.09 2.6 2.6 0 0 1 -1.39.55v1.13h-.63v-1.09a7.23 7.23 0 0 1 -1.06-.08 3.55 3.55 0 0 1 -.84-.24v-.76a4.42 4.42 0 0 0 .93.29 4.49 4.49 0 0 0 1 .12v-2.15a3.38 3.38 0 0 1 -1.41-.74 1.53 1.53 0 0 1 -.43-1.12 1.3 1.3 0 0 1 .5-1.05 2.38 2.38 0 0 1 1.31-.5v-.89h.63v.88a5.09 5.09 0 0 1 1.73.36l-.25.64a4.89 4.89 0 0 0 -1.48-.34v2.12a5.92 5.92 0 0 1 1.15.47 1.71 1.71 0 0 1 .56.54 1.39 1.39 0 0 1 .18.77zm-3.5-3a.8.8 0 0 0 .22.59 2.14 2.14 0 0 0 .76.43v-1.89a1.37 1.37 0 0 0 -.73.3.74.74 0 0 0 -.25.57zm2.67 3a.77.77 0 0 0 -.22-.57 2.26 2.26 0 0 0 -.84-.43v1.9c.71-.06 1.06-.36 1.06-.9z"/><path d="m10.9 200.17h-4.69v-.7l1.88-1.89a13.5 13.5 0 0 0 1.13-1.24 3.35 3.35 0 0 0 .41-.72 2.14 2.14 0 0 0 .14-.76 1.19 1.19 0 0 0 -.35-.9 1.3 1.3 0 0 0 -1-.34 2.41 2.41 0 0 0 -.85.15 3.06 3.06 0 0 0 -.88.53l-.43-.55a3.27 3.27 0 0 1 2.15-.82 2.26 2.26 0 0 1 1.57.51 1.77 1.77 0 0 1 .58 1.39 2.62 2.62 0 0 1 -.39 1.34 8.36 8.36 0 0 1 -1.42 1.68l-1.56 1.53h3.71z"/><path d="m12 197.12a5.07 5.07 0 0 1 .81-3.15 2.89 2.89 0 0 1 2.42-1 3.31 3.31 0 0 1 .87.09v.7a2.79 2.79 0 0 0 -.86-.12 2.15 2.15 0 0 0 -1.75.71 3.72 3.72 0 0 0 -.66 2.25h.06a1.85 1.85 0 0 1 1.69-.84 2 2 0 0 1 1.52.58 2.19 2.19 0 0 1 .56 1.58 2.47 2.47 0 0 1 -.61 1.75 2.21 2.21 0 0 1 -1.65.64 2.09 2.09 0 0 1 -1.75-.84 3.61 3.61 0 0 1 -.65-2.35zm2.39 2.46a1.35 1.35 0 0 0 1.08-.44 1.83 1.83 0 0 0 .38-1.26 1.61 1.61 0 0 0 -.35-1.11 1.32 1.32 0 0 0 -1.07-.41 1.77 1.77 0 0 0 -.8.18 1.52 1.52 0 0 0 -.59.5 1.17 1.17 0 0 0 -.21.66 2.29 2.29 0 0 0 .19.94 1.63 1.63 0 0 0 .56.68 1.37 1.37 0 0 0 .82.26z"/><path d="m17.9 199.65a.75.75 0 0 1 .14-.49.53.53 0 0 1 .43-.17.54.54 0 0 1 .44.17.66.66 0 0 1 .16.49.69.69 0 0 1 -.16.49.65.65 0 0 1 -.85 0 .68.68 0 0 1 -.16-.49z"/><path d="m22.53 195.81a2.59 2.59 0 0 1 1.78.56 1.92 1.92 0 0 1 .69 1.53 2.22 2.22 0 0 1 -.71 1.74 2.82 2.82 0 0 1 -1.95.63 3.57 3.57 0 0 1 -1.84-.39v-.78a2.65 2.65 0 0 0 .85.34 3.93 3.93 0 0 0 1 .13 2 2 0 0 0 1.34-.41 1.45 1.45 0 0 0 .48-1.17c0-1-.61-1.49-1.84-1.49a6.83 6.83 0 0 0 -1.24.14l-.42-.27.23-3.37h3.55v.75h-2.85l-.18 2.14a6 6 0 0 1 1.11-.08z"/><path d="m28.38 192.93a2.42 2.42 0 0 1 1.55.45 1.51 1.51 0 0 1 .57 1.26 1.61 1.61 0 0 1 -.32 1 2.94 2.94 0 0 1 -1.05.79 3.69 3.69 0 0 1 1.24.87 1.66 1.66 0 0 1 .36 1.06 1.77 1.77 0 0 1 -.62 1.42 2.54 2.54 0 0 1 -1.7.53 2.72 2.72 0 0 1 -1.75-.5 1.74 1.74 0 0 1 -.62-1.42 2.11 2.11 0 0 1 1.49-1.91 2.78 2.78 0 0 1 -1-.82 1.75 1.75 0 0 1 -.3-1 1.52 1.52 0 0 1 .58-1.24 2.35 2.35 0 0 1 1.57-.49zm-1.54 5.44a1.11 1.11 0 0 0 .41.91 2.11 2.11 0 0 0 2.28 0 1.16 1.16 0 0 0 .4-.94 1.13 1.13 0 0 0 -.38-.84 3.78 3.78 0 0 0 -1.33-.72 3 3 0 0 0 -1 .69 1.34 1.34 0 0 0 -.38.9zm1.53-4.78a1.4 1.4 0 0 0 -.95.29 1 1 0 0 0 -.35.78 1.12 1.12 0 0 0 .29.77 3 3 0 0 0 1.06.65 2.72 2.72 0 0 0 1-.63 1.15 1.15 0 0 0 .29-.79 1 1 0 0 0 -.35-.78 1.47 1.47 0 0 0 -.99-.29z"/><path d="m5.06 211.11a1.4 1.4 0 0 1 -.5 1.1 2.52 2.52 0 0 1 -1.39.54v1.14h-.63v-1.09a6.06 6.06 0 0 1 -1.06-.09 3.58 3.58 0 0 1 -.84-.23v-.77a5.08 5.08 0 0 0 .93.3 4.43 4.43 0 0 0 1 .11v-2.12a3.5 3.5 0 0 1 -1.41-.74 1.54 1.54 0 0 1 -.4-1.09 1.33 1.33 0 0 1 .5-1.05 2.38 2.38 0 0 1 1.31-.49v-.89h.63v.88a4.66 4.66 0 0 1 1.7.38l-.25.64a4.61 4.61 0 0 0 -1.48-.34v2.11a6.53 6.53 0 0 1 1.15.48 1.69 1.69 0 0 1 .56.53 1.41 1.41 0 0 1 .18.69zm-3.5-3a.81.81 0 0 0 .22.6 2 2 0 0 0 .76.42v-1.89a1.45 1.45 0 0 0 -.73.31.72.72 0 0 0 -.25.59zm2.67 3a.74.74 0 0 0 -.22-.57 2.12 2.12 0 0 0 -.84-.43v1.89c.71 0 1.06-.32 1.06-.82z"/><path d="m10.9 213.31h-4.69v-.7l1.88-1.89a15 15 0 0 0 1.13-1.24 3.18 3.18 0 0 0 .41-.73 2 2 0 0 0 .14-.75 1.21 1.21 0 0 0 -.35-.91 1.33 1.33 0 0 0 -1-.33 2.66 2.66 0 0 0 -.85.14 3.37 3.37 0 0 0 -.88.54l-.43-.56a3.33 3.33 0 0 1 2.15-.82 2.27 2.27 0 0 1 1.57.52 1.73 1.73 0 0 1 .62 1.42 2.65 2.65 0 0 1 -.39 1.35 8.36 8.36 0 0 1 -1.42 1.65l-1.56 1.52h3.67z"/><path d="m14.16 208.94a2.63 2.63 0 0 1 1.77.56 1.94 1.94 0 0 1 .65 1.53 2.22 2.22 0 0 1 -.71 1.74 2.81 2.81 0 0 1 -1.94.63 3.7 3.7 0 0 1 -1.85-.38v-.78a3 3 0 0 0 .85.34 4.42 4.42 0 0 0 1 .12 2 2 0 0 0 1.33-.4 1.45 1.45 0 0 0 .48-1.17q0-1.5-1.83-1.5a7.64 7.64 0 0 0 -1.24.14l-.42-.26.26-3.34h3.55v.74h-2.84l-.22 2.15a5.26 5.26 0 0 1 1.16-.12z"/><path d="m17.9 212.79a.78.78 0 0 1 .14-.5.56.56 0 0 1 .43-.17.57.57 0 0 1 .44.17.85.85 0 0 1 0 1 .59.59 0 0 1 -.44.17.56.56 0 0 1 -.41-.16.65.65 0 0 1 -.16-.51z"/><path d="m22.67 206.06a2.41 2.41 0 0 1 1.54.46 1.52 1.52 0 0 1 .58 1.25 1.55 1.55 0 0 1 -.33 1 3 3 0 0 1 -1.05.8 3.43 3.43 0 0 1 1.24.87 1.63 1.63 0 0 1 .36 1 1.74 1.74 0 0 1 -.62 1.42 2.46 2.46 0 0 1 -1.69.53 2.68 2.68 0 0 1 -1.76-.5 1.72 1.72 0 0 1 -.62-1.42 2.13 2.13 0 0 1 1.5-1.91 2.62 2.62 0 0 1 -1-.82 1.69 1.69 0 0 1 -.29-1 1.5 1.5 0 0 1 .57-1.23 2.36 2.36 0 0 1 1.57-.45zm-1.55 5.44a1.13 1.13 0 0 0 .41.92 1.83 1.83 0 0 0 1.15.32 1.69 1.69 0 0 0 1.13-.34 1.16 1.16 0 0 0 .4-.94 1.13 1.13 0 0 0 -.38-.84 3.86 3.86 0 0 0 -1.33-.71 2.85 2.85 0 0 0 -1.05.69 1.32 1.32 0 0 0 -.33.9zm1.54-4.78a1.42 1.42 0 0 0 -1 .3 1 1 0 0 0 -.35.78 1.13 1.13 0 0 0 .29.77 3 3 0 0 0 1.07.64 2.51 2.51 0 0 0 1-.63 1.11 1.11 0 0 0 .29-.78 1 1 0 0 0 -.35-.79 1.52 1.52 0 0 0 -.95-.29z"/><path d="m28.25 208.94a2.65 2.65 0 0 1 1.78.56 1.94 1.94 0 0 1 .64 1.53 2.21 2.21 0 0 1 -.7 1.74 2.82 2.82 0 0 1 -1.95.63 3.66 3.66 0 0 1 -1.84-.38v-.78a2.9 2.9 0 0 0 .85.34 4.34 4.34 0 0 0 1 .12 2 2 0 0 0 1.34-.4 1.47 1.47 0 0 0 .47-1.17q0-1.5-1.83-1.5a7.76 7.76 0 0 0 -1.24.14l-.42-.26.27-3.34h3.55v.74h-2.86l-.18 2.15a5.4 5.4 0 0 1 1.12-.12z"/></g><g fill="none" stroke="#000" stroke-miterlimit="10"><path d="m32.35 2.36 131.75 306.24"/><path d="m32.35 202.12 131.06 133.85"/><path d="m32.35 207.05 131.37 143.89"/><path d="m32.35 307.25 130.45 56.22"/><path d="m32.05 362.25 131.67 23.21"/></g><g transform="translate(-.64 -.98)"><path d="m5.06 307.39a1.38 1.38 0 0 1 -.5 1.09 2.6 2.6 0 0 1 -1.39.55v1.13h-.63v-1.09a7.23 7.23 0 0 1 -1.06-.07 3.55 3.55 0 0 1 -.84-.24v-.76a4.42 4.42 0 0 0 .93.29 4.49 4.49 0 0 0 1 .12v-2.15a3.38 3.38 0 0 1 -1.41-.74 1.53 1.53 0 0 1 -.4-1.08 1.3 1.3 0 0 1 .5-1.05 2.46 2.46 0 0 1 1.31-.5v-.89h.63v.88a5.09 5.09 0 0 1 1.73.36l-.25.64a5.21 5.21 0 0 0 -1.48-.34v2.12a5.29 5.29 0 0 1 1.15.48 1.6 1.6 0 0 1 .56.53 1.39 1.39 0 0 1 .15.72zm-3.5-3a.81.81 0 0 0 .22.6 2.15 2.15 0 0 0 .76.42v-1.89a1.3 1.3 0 0 0 -.73.31.7.7 0 0 0 -.25.59zm2.67 3a.77.77 0 0 0 -.22-.57 2.26 2.26 0 0 0 -.84-.43v1.9c.71-.04 1.06-.29 1.06-.84z"/><path d="m9.21 309.58h-.79v-5.09c0-.42 0-.82 0-1.2l-.23.22-1.16.95-.43-.56 1.89-1.46h.68z"/><path d="m14.93 309.58h-.79v-5.09q0-.63 0-1.2l-.22.22-1.17.95-.43-.56 1.89-1.46h.69z"/><path d="m17.9 309.06a.77.77 0 0 1 .14-.49.56.56 0 0 1 .43-.17.57.57 0 0 1 .44.17.83.83 0 0 1 0 1 .55.55 0 0 1 -.44.17.59.59 0 0 1 -.41-.15.66.66 0 0 1 -.16-.53z"/><path d="m20.39 306.53a5.11 5.11 0 0 1 .81-3.15 2.92 2.92 0 0 1 2.42-1 3.31 3.31 0 0 1 .87.09v.7a2.79 2.79 0 0 0 -.86-.12 2.18 2.18 0 0 0 -1.75.71 3.65 3.65 0 0 0 -.66 2.25h.05a1.88 1.88 0 0 1 1.7-.84 2 2 0 0 1 1.52.58 2.2 2.2 0 0 1 .55 1.58 2.45 2.45 0 0 1 -.6 1.75 2.17 2.17 0 0 1 -1.65.64 2.1 2.1 0 0 1 -1.75-.83 3.66 3.66 0 0 1 -.65-2.36zm2.39 2.47a1.37 1.37 0 0 0 1.08-.44 1.83 1.83 0 0 0 .38-1.26 1.66 1.66 0 0 0 -.35-1.11 1.36 1.36 0 0 0 -1.07-.41 1.77 1.77 0 0 0 -.8.18 1.52 1.52 0 0 0 -.59.5 1.17 1.17 0 0 0 -.21.66 2.29 2.29 0 0 0 .19.94 1.72 1.72 0 0 0 .55.69 1.47 1.47 0 0 0 .82.25z"/><path d="m28.38 302.34a2.42 2.42 0 0 1 1.55.45 1.53 1.53 0 0 1 .57 1.26 1.61 1.61 0 0 1 -.32 1 2.94 2.94 0 0 1 -1.05.79 3.69 3.69 0 0 1 1.24.87 1.68 1.68 0 0 1 .36 1.06 1.75 1.75 0 0 1 -.62 1.42 2.54 2.54 0 0 1 -1.7.53 2.72 2.72 0 0 1 -1.75-.5 1.74 1.74 0 0 1 -.62-1.42 2.12 2.12 0 0 1 1.49-1.91 2.68 2.68 0 0 1 -1-.82 1.75 1.75 0 0 1 -.3-1 1.52 1.52 0 0 1 .58-1.24 2.35 2.35 0 0 1 1.57-.49zm-1.54 5.44a1.11 1.11 0 0 0 .41.91 2.11 2.11 0 0 0 2.28 0 1.16 1.16 0 0 0 .4-.94 1.13 1.13 0 0 0 -.38-.84 3.78 3.78 0 0 0 -1.33-.72 3 3 0 0 0 -1 .69 1.36 1.36 0 0 0 -.38.9zm1.53-4.78a1.46 1.46 0 0 0 -.95.29 1 1 0 0 0 -.35.78 1.12 1.12 0 0 0 .29.77 3 3 0 0 0 1.06.65 2.72 2.72 0 0 0 1-.63 1.15 1.15 0 0 0 .29-.79 1 1 0 0 0 -.35-.78 1.53 1.53 0 0 0 -.99-.29z"/><path d="m10.78 363.6a1.41 1.41 0 0 1 -.5 1.1 2.59 2.59 0 0 1 -1.39.54v1.13h-.63v-1.09a6.08 6.08 0 0 1 -1.06-.08 3.55 3.55 0 0 1 -.84-.24v-.76a5.08 5.08 0 0 0 .93.3 5.14 5.14 0 0 0 1 .11v-2.15a3.38 3.38 0 0 1 -1.41-.73 1.53 1.53 0 0 1 -.4-1.09 1.3 1.3 0 0 1 .5-1.05 2.43 2.43 0 0 1 1.31-.5v-.89h.63v.88a5.14 5.14 0 0 1 1.73.36l-.25.64a5.21 5.21 0 0 0 -1.48-.34v2.12a5 5 0 0 1 1.14.48 1.55 1.55 0 0 1 .57.53 1.39 1.39 0 0 1 .15.73zm-3.5-3a.81.81 0 0 0 .22.6 2 2 0 0 0 .76.42v-1.89a1.41 1.41 0 0 0 -.74.31.74.74 0 0 0 -.24.59zm2.67 3a.77.77 0 0 0 -.22-.56 2.43 2.43 0 0 0 -.84-.44v1.9c.7-.04 1.11-.34 1.11-.84z"/><path d="m16.35 360.33a1.61 1.61 0 0 1 -.39 1.12 1.83 1.83 0 0 1 -1.08.58 2 2 0 0 1 1.27.55 1.6 1.6 0 0 1 .42 1.15 1.87 1.87 0 0 1 -.71 1.57 3.19 3.19 0 0 1 -2 .55 5.52 5.52 0 0 1 -1-.09 3.2 3.2 0 0 1 -.92-.3v-.77a4.16 4.16 0 0 0 1 .35 4.47 4.47 0 0 0 1 .12c1.23 0 1.85-.48 1.85-1.45s-.68-1.3-2-1.3h-.79v-.7h.72a2.2 2.2 0 0 0 1.32-.36 1.24 1.24 0 0 0 .49-1 1 1 0 0 0 -.36-.82 1.49 1.49 0 0 0 -1-.3 3.17 3.17 0 0 0 -.88.13 4.14 4.14 0 0 0 -.95.47l-.41-.55a3.43 3.43 0 0 1 1-.54 3.7 3.7 0 0 1 1.21-.2 2.44 2.44 0 0 1 1.61.48 1.58 1.58 0 0 1 .6 1.31z"/><path d="m17.9 365.27a.77.77 0 0 1 .14-.49.56.56 0 0 1 .43-.17.57.57 0 0 1 .44.17.67.67 0 0 1 .16.49.66.66 0 0 1 -.16.49.55.55 0 0 1 -.44.17.59.59 0 0 1 -.41-.15.66.66 0 0 1 -.16-.51z"/><path d="m22.67 358.55a2.36 2.36 0 0 1 1.54.46 1.52 1.52 0 0 1 .58 1.25 1.55 1.55 0 0 1 -.33 1 2.83 2.83 0 0 1 -1.05.79 3.56 3.56 0 0 1 1.24.88 1.63 1.63 0 0 1 .36 1.05 1.75 1.75 0 0 1 -.62 1.42 2.52 2.52 0 0 1 -1.69.53 2.73 2.73 0 0 1 -1.76-.5 1.73 1.73 0 0 1 -.62-1.42 2.12 2.12 0 0 1 1.5-1.91 2.72 2.72 0 0 1 -1-.82 1.74 1.74 0 0 1 -.29-1 1.51 1.51 0 0 1 .57-1.24 2.41 2.41 0 0 1 1.57-.49zm-1.55 5.45a1.1 1.1 0 0 0 .41.91 1.77 1.77 0 0 0 1.15.33 1.69 1.69 0 0 0 1.13-.34 1.16 1.16 0 0 0 .4-.94 1.11 1.11 0 0 0 -.38-.84 3.85 3.85 0 0 0 -1.33-.72 2.86 2.86 0 0 0 -1.05.7 1.32 1.32 0 0 0 -.33.9zm1.54-4.78a1.47 1.47 0 0 0 -1 .29 1 1 0 0 0 -.35.78 1.16 1.16 0 0 0 .29.78 3 3 0 0 0 1.07.64 2.51 2.51 0 0 0 1-.63 1.14 1.14 0 0 0 .29-.79 1 1 0 0 0 -.35-.78 1.52 1.52 0 0 0 -.95-.3z"/><path d="m30.75 362.21a5.22 5.22 0 0 1 -.58 2.77 2.16 2.16 0 0 1 -3.54 0 5.15 5.15 0 0 1 -.6-2.75 5.22 5.22 0 0 1 .58-2.77 2.16 2.16 0 0 1 3.54 0 5.12 5.12 0 0 1 .6 2.75zm-3.9 0a5.13 5.13 0 0 0 .37 2.27 1.2 1.2 0 0 0 1.16.71 1.23 1.23 0 0 0 1.18-.72 7.24 7.24 0 0 0 0-4.51 1.31 1.31 0 0 0 -2.34 0 5.11 5.11 0 0 0 -.37 2.25z"/><path d="m208.61 341.1h-.83v-7.1h4v.74h-3.15v2.61h3v.74h-3z"/><path d="m216.11 341.1-.16-.76a2.28 2.28 0 0 1 -.79.68 2.45 2.45 0 0 1 -1 .18 1.83 1.83 0 0 1 -1.25-.41 1.49 1.49 0 0 1 -.45-1.17c0-1.08.87-1.65 2.6-1.7h.9v-.33a1.36 1.36 0 0 0 -.27-.93 1.11 1.11 0 0 0 -.86-.3 3.62 3.62 0 0 0 -1.52.41l-.25-.62a4.14 4.14 0 0 1 .87-.34 3.79 3.79 0 0 1 .94-.12 2 2 0 0 1 1.42.43 1.75 1.75 0 0 1 .46 1.36v3.65zm-1.83-.57a1.63 1.63 0 0 0 1.19-.42 1.51 1.51 0 0 0 .43-1.16v-.48h-.81a3.12 3.12 0 0 0 -1.39.3.93.93 0 0 0 -.43.83.83.83 0 0 0 .27.67 1.11 1.11 0 0 0 .74.26z"/><path d="m220.52 341.2a2.29 2.29 0 0 1 -1.8-.72 3 3 0 0 1 -.63-2 3 3 0 0 1 .64-2.08 2.38 2.38 0 0 1 1.85-.73 4.11 4.11 0 0 1 .77.08 2.32 2.32 0 0 1 .6.2l-.24.69a4.55 4.55 0 0 0 -.59-.18 2.44 2.44 0 0 0 -.56-.07c-1.09 0-1.63.69-1.63 2.08a2.49 2.49 0 0 0 .39 1.51 1.4 1.4 0 0 0 1.18.53 3.49 3.49 0 0 0 1.38-.29v.72a2.89 2.89 0 0 1 -1.36.26z"/><path d="m223.91 335.75v3.47a1.4 1.4 0 0 0 .3 1 1.2 1.2 0 0 0 .93.32 1.52 1.52 0 0 0 1.23-.46 2.35 2.35 0 0 0 .38-1.5v-2.81h.81v5.35h-.66l-.12-.72h-.05a1.52 1.52 0 0 1 -.69.61 2.29 2.29 0 0 1 -1 .21 2.06 2.06 0 0 1 -1.47-.47 2 2 0 0 1 -.48-1.48v-3.5z"/><path d="m230.09 341.1h-.81v-7.6h.81z"/><path d="m233.54 340.53h.42l.31-.07v.62a1.45 1.45 0 0 1 -.39.11 2.6 2.6 0 0 1 -.46 0c-1 0-1.55-.55-1.55-1.64v-3.18h-.77v-.37l.77-.34.34-1.14h.47v1.24h1.55v.63h-1.55v3.15a1.09 1.09 0 0 0 .23.74.8.8 0 0 0 .63.25z"/><path d="m234.49 335.75h.87l1.17 3.05a11.08 11.08 0 0 1 .48 1.51c0-.17.13-.45.27-.85s.57-1.64 1.32-3.71h.87l-2.3 6.09a2.85 2.85 0 0 1 -.8 1.28 1.64 1.64 0 0 1 -1.12.38 3 3 0 0 1 -.73-.08v-.65a2.77 2.77 0 0 0 .6.06 1.22 1.22 0 0 0 1.19-.94l.3-.76z"/><path d="m245.24 341.2a2.46 2.46 0 0 1 -1.87-.72 2.8 2.8 0 0 1 -.69-2 3.1 3.1 0 0 1 .64-2.06 2.12 2.12 0 0 1 1.71-.76 2 2 0 0 1 1.59.66 2.56 2.56 0 0 1 .59 1.75v.51h-3.69a2.13 2.13 0 0 0 .48 1.42 1.62 1.62 0 0 0 1.27.49 4.3 4.3 0 0 0 1.71-.36v.72a4.52 4.52 0 0 1 -.81.27 5 5 0 0 1 -.93.08zm-.22-4.87a1.33 1.33 0 0 0 -1 .42 2 2 0 0 0 -.45 1.16h2.8a1.81 1.81 0 0 0 -.34-1.17 1.22 1.22 0 0 0 -1.03-.41z"/><path d="m249.88 338.36-1.88-2.61h.92l1.41 2.05 1.41-2.05h.91l-1.86 2.61 2 2.74h-.92l-1.5-2.17-1.51 2.17h-.92z"/><path d="m256.32 341.2a2.49 2.49 0 0 1 -1-.19 1.8 1.8 0 0 1 -.72-.6h-.06a7.12 7.12 0 0 1 .06.89v2.2h-.81v-7.75h.66l.11.73a1.89 1.89 0 0 1 .73-.63 2.18 2.18 0 0 1 .95-.2 2 2 0 0 1 1.64.73 3.16 3.16 0 0 1 .58 2 3.21 3.21 0 0 1 -.59 2.05 2 2 0 0 1 -1.55.77zm-.12-4.86a1.43 1.43 0 0 0 -1.18.45 2.35 2.35 0 0 0 -.38 1.45v.18a2.59 2.59 0 0 0 .36 1.58 1.41 1.41 0 0 0 1.2.49 1.27 1.27 0 0 0 1.09-.56 2.69 2.69 0 0 0 .39-1.55 2.54 2.54 0 0 0 -.39-1.53 1.29 1.29 0 0 0 -1.09-.51z"/><path d="m262.22 341.2a2.49 2.49 0 0 1 -1.88-.72 2.84 2.84 0 0 1 -.68-2 3.1 3.1 0 0 1 .64-2.06 2.12 2.12 0 0 1 1.71-.76 2 2 0 0 1 1.59.66 2.56 2.56 0 0 1 .59 1.75v.51h-3.69a2.13 2.13 0 0 0 .5 1.42 1.66 1.66 0 0 0 1.28.49 4.38 4.38 0 0 0 1.71-.36v.72a4.35 4.35 0 0 1 -.82.27 4.77 4.77 0 0 1 -.95.08zm-.22-4.87a1.33 1.33 0 0 0 -1 .42 1.88 1.88 0 0 0 -.45 1.16h2.8a1.76 1.76 0 0 0 -.35-1.17 1.19 1.19 0 0 0 -1-.41z"/><path d="m269.21 340.38a1.91 1.91 0 0 1 -1.68.82 2 2 0 0 1 -1.64-.72 3.88 3.88 0 0 1 0-4.1 2.17 2.17 0 0 1 3.3.06h.06v-.38-.38-2.18h.75v7.6h-.66zm-1.62.14a1.48 1.48 0 0 0 1.2-.45 2.28 2.28 0 0 0 .38-1.46v-.17a2.68 2.68 0 0 0 -.38-1.62 1.43 1.43 0 0 0 -1.21-.49 1.23 1.23 0 0 0 -1.09.56 2.74 2.74 0 0 0 -.38 1.56 2.59 2.59 0 0 0 .38 1.55 1.25 1.25 0 0 0 1.1.52z"/><path d="m271.63 334.3a.55.55 0 0 1 .13-.41.52.52 0 0 1 .35-.13.49.49 0 0 1 .33.13.67.67 0 0 1 0 .82.44.44 0 0 1 -.33.13.48.48 0 0 1 -.35-.13.56.56 0 0 1 -.13-.41zm.88 6.8h-.81v-5.35h.81z"/><path d="m276 340.53a2.86 2.86 0 0 0 .42 0l.32-.07v.62a1.72 1.72 0 0 1 -.39.11 2.68 2.68 0 0 1 -.46 0c-1 0-1.56-.55-1.56-1.64v-3.18h-.76v-.37l.76-.34.34-1.14h.47v1.24h1.56v.63h-1.56v3.15a1.09 1.09 0 0 0 .23.74.83.83 0 0 0 .63.25z"/><path d="m280 341.2a2.47 2.47 0 0 1 -1.88-.72 2.84 2.84 0 0 1 -.68-2 3.15 3.15 0 0 1 .63-2.06 2.16 2.16 0 0 1 1.72-.76 2 2 0 0 1 1.59.66 2.55 2.55 0 0 1 .58 1.75v.51h-3.66a2.08 2.08 0 0 0 .47 1.43 1.64 1.64 0 0 0 1.27.49 4.3 4.3 0 0 0 1.71-.36v.72a4.05 4.05 0 0 1 -.81.27 4.77 4.77 0 0 1 -.94.07zm-.22-4.87a1.32 1.32 0 0 0 -1 .42 1.88 1.88 0 0 0 -.45 1.16h2.79a1.76 1.76 0 0 0 -.34-1.17 1.2 1.2 0 0 0 -.98-.41z"/><path d="m287 340.38a1.88 1.88 0 0 1 -1.68.82 2 2 0 0 1 -1.63-.72 3.16 3.16 0 0 1 -.58-2 3.24 3.24 0 0 1 .58-2.06 2 2 0 0 1 1.63-.73 2 2 0 0 1 1.67.79h.01v-.38-.38-2.22h.81v7.6h-.65zm-1.62.14a1.48 1.48 0 0 0 1.2-.45 2.28 2.28 0 0 0 .37-1.46v-.17a2.61 2.61 0 0 0 -.38-1.62 1.41 1.41 0 0 0 -1.2-.49 1.23 1.23 0 0 0 -1.09.56 3.41 3.41 0 0 0 0 3.11 1.27 1.27 0 0 0 1.11.52z"/><path d="m211.81 354.48a1.76 1.76 0 0 1 -.68 1.47 2.94 2.94 0 0 1 -1.86.53 4.63 4.63 0 0 1 -2-.33v-.8a5.15 5.15 0 0 0 1 .3 5 5 0 0 0 1 .1 2.06 2.06 0 0 0 1.25-.31 1 1 0 0 0 .42-.88 1.13 1.13 0 0 0 -.15-.61 1.41 1.41 0 0 0 -.49-.43 6.59 6.59 0 0 0 -1.07-.46 3.35 3.35 0 0 1 -1.42-.84 1.9 1.9 0 0 1 -.43-1.28 1.59 1.59 0 0 1 .62-1.31 2.62 2.62 0 0 1 1.64-.49 4.83 4.83 0 0 1 2 .39l-.26.73a4.39 4.39 0 0 0 -1.72-.38 1.66 1.66 0 0 0 -1 .29 1 1 0 0 0 -.37.78 1.22 1.22 0 0 0 .14.61 1.3 1.3 0 0 0 .46.44 6.33 6.33 0 0 0 1 .43 4.05 4.05 0 0 1 1.55.86 1.71 1.71 0 0 1 .37 1.19z"/><path d="m213.91 351v3.47a1.39 1.39 0 0 0 .3 1 1.23 1.23 0 0 0 .93.32 1.52 1.52 0 0 0 1.23-.46 2.29 2.29 0 0 0 .39-1.5v-2.83h.81v5.35h-.67l-.12-.71a1.68 1.68 0 0 1 -.69.6 2.34 2.34 0 0 1 -1 .21 2 2 0 0 1 -1.46-.46 2 2 0 0 1 -.49-1.49v-3.5z"/><path d="m223.67 351v.51l-1 .12a1.82 1.82 0 0 1 .35 1.07 1.59 1.59 0 0 1 -.54 1.26 2.18 2.18 0 0 1 -1.47.46 3.19 3.19 0 0 1 -.45 0 .79.79 0 0 0 -.52.68.35.35 0 0 0 .18.33 1.34 1.34 0 0 0 .62.1h1a2.13 2.13 0 0 1 1.33.37 1.27 1.27 0 0 1 .47 1.06 1.53 1.53 0 0 1 -.71 1.36 3.84 3.84 0 0 1 -2.08.47 2.85 2.85 0 0 1 -1.62-.39 1.28 1.28 0 0 1 -.57-1.11 1.21 1.21 0 0 1 .31-.84 1.62 1.62 0 0 1 .88-.49.77.77 0 0 1 -.34-.28.74.74 0 0 1 -.14-.46.88.88 0 0 1 .15-.51 1.69 1.69 0 0 1 .5-.43 1.36 1.36 0 0 1 -.68-.58 1.92 1.92 0 0 1 .27-2.29 2.14 2.14 0 0 1 1.49-.48 3 3 0 0 1 .76.1zm-4.27 6.25a.72.72 0 0 0 .37.66 2 2 0 0 0 1 .23 3 3 0 0 0 1.51-.31 1 1 0 0 0 .49-.83.65.65 0 0 0 -.27-.6 2.12 2.12 0 0 0 -1-.17h-1a1.3 1.3 0 0 0 -.86.26.94.94 0 0 0 -.24.79zm.44-4.53a1.12 1.12 0 0 0 .32.85 1.26 1.26 0 0 0 .88.28 1 1 0 0 0 1.19-1.15 1.07 1.07 0 0 0 -1.2-1.21 1.21 1.21 0 0 0 -.88.31 1.23 1.23 0 0 0 -.31.95z"/><path d="m229.15 351v.51l-1 .12a1.82 1.82 0 0 1 .35 1.07 1.59 1.59 0 0 1 -.5 1.3 2.18 2.18 0 0 1 -1.47.46 3.19 3.19 0 0 1 -.45 0 .79.79 0 0 0 -.52.68.35.35 0 0 0 .18.33 1.34 1.34 0 0 0 .62.1h.95a2.13 2.13 0 0 1 1.33.37 1.27 1.27 0 0 1 .47 1.06 1.53 1.53 0 0 1 -.71 1.36 3.84 3.84 0 0 1 -2.08.47 2.83 2.83 0 0 1 -1.62-.39 1.28 1.28 0 0 1 -.57-1.11 1.21 1.21 0 0 1 .31-.84 1.62 1.62 0 0 1 .88-.49.86.86 0 0 1 -.35-.28.8.8 0 0 1 -.13-.46.88.88 0 0 1 .15-.51 1.69 1.69 0 0 1 .5-.43 1.36 1.36 0 0 1 -.68-.58 1.63 1.63 0 0 1 -.26-.93 1.74 1.74 0 0 1 .52-1.36 2.16 2.16 0 0 1 1.5-.48 3 3 0 0 1 .76.1zm-4.27 6.25a.72.72 0 0 0 .37.66 2 2 0 0 0 1 .23 3 3 0 0 0 1.52-.31 1 1 0 0 0 .49-.83.65.65 0 0 0 -.27-.6 2.12 2.12 0 0 0 -1-.17h-1a1.3 1.3 0 0 0 -.86.26.94.94 0 0 0 -.25.79zm.44-4.53a1.08 1.08 0 0 0 .32.85 1.26 1.26 0 0 0 .88.28 1 1 0 0 0 1.19-1.15 1.07 1.07 0 0 0 -1.21-1.21 1.18 1.18 0 0 0 -.87.31 1.23 1.23 0 0 0 -.31.95z"/><path d="m232.51 356.48a2.47 2.47 0 0 1 -1.88-.72 2.83 2.83 0 0 1 -.68-2 3.1 3.1 0 0 1 .63-2.05 2.14 2.14 0 0 1 1.72-.77 2 2 0 0 1 1.59.67 2.52 2.52 0 0 1 .58 1.74v.51h-3.68a2.08 2.08 0 0 0 .47 1.43 1.64 1.64 0 0 0 1.28.49 4.29 4.29 0 0 0 1.7-.36v.72a3.5 3.5 0 0 1 -.81.27 4.77 4.77 0 0 1 -.92.07zm-.22-4.87a1.32 1.32 0 0 0 -1 .42 1.88 1.88 0 0 0 -.45 1.16h2.79a1.76 1.76 0 0 0 -.34-1.17 1.19 1.19 0 0 0 -1-.41z"/><path d="m239.31 354.92a1.36 1.36 0 0 1 -.56 1.16 2.61 2.61 0 0 1 -1.56.4 3.34 3.34 0 0 1 -1.66-.34v-.75a4.31 4.31 0 0 0 .83.31 3.61 3.61 0 0 0 .85.11 2 2 0 0 0 1-.2.68.68 0 0 0 .35-.62.63.63 0 0 0 -.28-.53 4.09 4.09 0 0 0 -1.05-.53 5.9 5.9 0 0 1 -1.06-.48 1.5 1.5 0 0 1 -.47-.47 1.18 1.18 0 0 1 -.16-.63 1.2 1.2 0 0 1 .54-1 2.48 2.48 0 0 1 1.46-.38 4.21 4.21 0 0 1 1.69.36l-.29.65a3.94 3.94 0 0 0 -1.46-.33 1.66 1.66 0 0 0 -.87.18.55.55 0 0 0 -.29.5.62.62 0 0 0 .1.37 1.41 1.41 0 0 0 .36.29 7.28 7.28 0 0 0 .94.39 3.52 3.52 0 0 1 1.28.7 1.2 1.2 0 0 1 .31.84z"/><path d="m242.35 355.81a2.77 2.77 0 0 0 .42 0 1.73 1.73 0 0 0 .32-.07v.62a1.32 1.32 0 0 1 -.39.11 2.68 2.68 0 0 1 -.46 0c-1 0-1.56-.54-1.56-1.63v-3.19h-.76v-.39l.76-.34.35-1.14h.47v1.22h1.55v.63h-1.55v3.15a1.09 1.09 0 0 0 .22.74.79.79 0 0 0 .63.29z"/><path d="m243.71 354.07v-.74h2.39v.74z"/><path d="m250.67 356.38-.17-.76a2.18 2.18 0 0 1 -.79.68 2.45 2.45 0 0 1 -1 .18 1.83 1.83 0 0 1 -1.25-.41 1.49 1.49 0 0 1 -.45-1.17c0-1.08.87-1.64 2.6-1.7h.9v-.34a1.36 1.36 0 0 0 -.27-.93 1.11 1.11 0 0 0 -.86-.3 3.62 3.62 0 0 0 -1.52.41l-.25-.62a4.12 4.12 0 0 1 .87-.33 3.4 3.4 0 0 1 .95-.13 2 2 0 0 1 1.41.43 1.76 1.76 0 0 1 .47 1.36v3.65zm-1.84-.57a1.67 1.67 0 0 0 1.19-.41 1.55 1.55 0 0 0 .44-1.17v-.48h-.82a2.9 2.9 0 0 0 -1.39.3.9.9 0 0 0 -.43.82.82.82 0 0 0 .27.67 1.06 1.06 0 0 0 .74.27z"/><path d="m252.49 354.07v-.74h2.39v.74z"/><path d="m258.64 350.94a2 2 0 0 1 1.64.72 3.16 3.16 0 0 1 .59 2 3.21 3.21 0 0 1 -.59 2.05 2 2 0 0 1 -1.64.73 2.27 2.27 0 0 1 -.95-.19 1.83 1.83 0 0 1 -.73-.6l-.18.69h-.58v-7.59h.8v1.84 1.11a1.94 1.94 0 0 1 1.64-.76zm-.11.68a1.4 1.4 0 0 0 -1.2.48 3.64 3.64 0 0 0 0 3.22 1.44 1.44 0 0 0 1.21.48 1.25 1.25 0 0 0 1.11-.54 2.84 2.84 0 0 0 .37-1.57 2.7 2.7 0 0 0 -.37-1.55 1.27 1.27 0 0 0 -1.12-.52z"/><path d="m266.9 353.7a3 3 0 0 1 -.66 2.05 2.6 2.6 0 0 1 -3.09.39 2.12 2.12 0 0 1 -.86-1 3.26 3.26 0 0 1 -.31-1.48 2.94 2.94 0 0 1 .66-2 2.32 2.32 0 0 1 1.81-.73 2.27 2.27 0 0 1 1.79.75 2.94 2.94 0 0 1 .66 2.02zm-4.08 0a2.58 2.58 0 0 0 .41 1.57 1.65 1.65 0 0 0 2.42 0 2.58 2.58 0 0 0 .41-1.57 2.53 2.53 0 0 0 -.41-1.55 1.46 1.46 0 0 0 -1.22-.53 1.43 1.43 0 0 0 -1.2.53 2.47 2.47 0 0 0 -.41 1.55z"/><path d="m272.94 353.7a3 3 0 0 1 -.66 2.05 2.6 2.6 0 0 1 -3.09.39 2.12 2.12 0 0 1 -.86-1 3.26 3.26 0 0 1 -.31-1.48 2.94 2.94 0 0 1 .66-2 2.32 2.32 0 0 1 1.81-.73 2.27 2.27 0 0 1 1.79.75 2.94 2.94 0 0 1 .66 2.02zm-4.08 0a2.58 2.58 0 0 0 .41 1.57 1.65 1.65 0 0 0 2.42 0 2.58 2.58 0 0 0 .41-1.57 2.53 2.53 0 0 0 -.41-1.55 1.46 1.46 0 0 0 -1.22-.53 1.43 1.43 0 0 0 -1.2.53 2.47 2.47 0 0 0 -.41 1.55z"/><path d="m275.16 353.64c.14-.19.36-.45.64-.78l1.73-1.83h1l-2.17 2.28 2.32 3.07h-1l-1.89-2.53-.61.53v2h-.8v-7.59h.8v4 .83z"/><path d="m207.78 368.82v-7.14h.83v7.14z"/><path d="m214.11 368.82v-3.47a1.37 1.37 0 0 0 -.3-1 1.18 1.18 0 0 0 -.93-.32 1.54 1.54 0 0 0 -1.23.45 2.29 2.29 0 0 0 -.39 1.5v2.81h-.81v-5.36h.66l.13.74a1.69 1.69 0 0 1 .7-.62 2.33 2.33 0 0 1 1-.21 2 2 0 0 1 1.45.46 2 2 0 0 1 .49 1.49v3.5z"/><path d="m218.32 368.24a2.73 2.73 0 0 0 .41 0l.32-.06v.62a1.8 1.8 0 0 1 -.39.1 2.6 2.6 0 0 1 -.46 0c-1 0-1.55-.54-1.55-1.63v-3.19h-.77v-.39l.77-.33.34-1.15h.47v1.24h1.54v.63h-1.55v3.15a1.07 1.07 0 0 0 .23.75.79.79 0 0 0 .64.26z"/><path d="m222.38 368.91a2.45 2.45 0 0 1 -1.87-.72 2.79 2.79 0 0 1 -.69-2 3.07 3.07 0 0 1 .64-2.05 2.09 2.09 0 0 1 1.71-.76 2 2 0 0 1 1.59.66 2.53 2.53 0 0 1 .59 1.74v.52h-3.69a2.12 2.12 0 0 0 .48 1.43 1.66 1.66 0 0 0 1.27.49 4.22 4.22 0 0 0 1.71-.37v.73a4.28 4.28 0 0 1 -.82.26 4.09 4.09 0 0 1 -.92.07zm-.22-4.86a1.33 1.33 0 0 0 -1 .42 2 2 0 0 0 -.45 1.16h2.8a1.86 1.86 0 0 0 -.34-1.18 1.22 1.22 0 0 0 -1.01-.4z"/><path d="m228.17 363.37a3.1 3.1 0 0 1 .64.06l-.11.75a2.75 2.75 0 0 0 -.59-.08 1.44 1.44 0 0 0 -1.11.53 1.91 1.91 0 0 0 -.46 1.31v2.88h-.81v-5.36h.67l.09 1a2.38 2.38 0 0 1 .72-.81 1.58 1.58 0 0 1 .96-.28z"/><path d="m230.62 368.82h-.81v-7.6h.81z"/><path d="m232.27 362a.52.52 0 0 1 .14-.4.45.45 0 0 1 .34-.13.48.48 0 0 1 .34.13.54.54 0 0 1 .14.4.55.55 0 0 1 -.14.41.49.49 0 0 1 -.34.14.46.46 0 0 1 -.34-.14.55.55 0 0 1 -.14-.41zm.88 6.81h-.81v-5.36h.81z"/><path d="m237.36 363.38a2 2 0 0 1 1.64.72 3.85 3.85 0 0 1 0 4.08 2 2 0 0 1 -1.63.73 2.32 2.32 0 0 1 -1-.19 1.94 1.94 0 0 1 -.72-.59h-.06l-.17.69h-.58v-7.6h.81v1.84 1.12a1.92 1.92 0 0 1 1.71-.8zm-.12.68a1.39 1.39 0 0 0 -1.19.47 2.65 2.65 0 0 0 -.37 1.61 2.59 2.59 0 0 0 .38 1.61 1.43 1.43 0 0 0 1.2.48 1.27 1.27 0 0 0 1.12-.54 2.81 2.81 0 0 0 .36-1.56 2.72 2.72 0 0 0 -.36-1.56 1.32 1.32 0 0 0 -1.14-.51z"/><path d="m243.44 363.37a3.1 3.1 0 0 1 .64.06l-.11.75a2.84 2.84 0 0 0 -.59-.08 1.44 1.44 0 0 0 -1.11.53 1.91 1.91 0 0 0 -.46 1.31v2.88h-.81v-5.36h.67l.09 1a2.38 2.38 0 0 1 .72-.81 1.58 1.58 0 0 1 .96-.28z"/><path d="m248.37 368.82-.16-.77a2.24 2.24 0 0 1 -.8.69 2.55 2.55 0 0 1 -1 .17 1.76 1.76 0 0 1 -1.25-.41 1.48 1.48 0 0 1 -.45-1.16c0-1.08.86-1.65 2.59-1.7h.91v-.33a1.36 1.36 0 0 0 -.27-.93 1.12 1.12 0 0 0 -.87-.3 3.44 3.44 0 0 0 -1.51.41l-.25-.62a3.36 3.36 0 0 1 .87-.34 3.79 3.79 0 0 1 .94-.12 2.06 2.06 0 0 1 1.42.42 1.76 1.76 0 0 1 .46 1.36v3.66zm-1.83-.58a1.64 1.64 0 0 0 1.19-.41 1.52 1.52 0 0 0 .43-1.16v-.49h-.81a2.87 2.87 0 0 0 -1.39.3.9.9 0 0 0 -.43.83.87.87 0 0 0 .26.67 1.14 1.14 0 0 0 .75.26z"/><path d="m253.08 363.37a3.1 3.1 0 0 1 .64.06l-.11.75a2.75 2.75 0 0 0 -.59-.08 1.44 1.44 0 0 0 -1.11.53 1.91 1.91 0 0 0 -.46 1.31v2.88h-.81v-5.36h.67l.09 1a2.38 2.38 0 0 1 .72-.81 1.61 1.61 0 0 1 .96-.28z"/><path d="m253.87 363.46h.87l1.17 3.06a11.07 11.07 0 0 1 .48 1.5c0-.16.13-.45.27-.85s.57-1.64 1.32-3.71h.87l-2.3 6.1a2.91 2.91 0 0 1 -.8 1.28 1.69 1.69 0 0 1 -1.12.38 3.63 3.63 0 0 1 -.73-.08v-.65a3.64 3.64 0 0 0 .6.05 1.23 1.23 0 0 0 1.19-.93l.3-.76z"/><path d="m263.17 368.82h-.81v-7.6h.81z"/><path d="m269.51 366.14a2.94 2.94 0 0 1 -.66 2 2.32 2.32 0 0 1 -1.82.73 2.46 2.46 0 0 1 -1.28-.33 2.32 2.32 0 0 1 -.86-1 3.38 3.38 0 0 1 -.3-1.47 2.91 2.91 0 0 1 .66-2 2.57 2.57 0 0 1 3.6 0 3 3 0 0 1 .66 2.07zm-4.08 0a2.57 2.57 0 0 0 .41 1.56 1.42 1.42 0 0 0 1.21.53 1.4 1.4 0 0 0 1.2-.53 2.5 2.5 0 0 0 .42-1.56 2.43 2.43 0 0 0 -.42-1.55 1.65 1.65 0 0 0 -2.41 0 2.51 2.51 0 0 0 -.41 1.55z"/><path d="m274.22 368.82-.16-.77a2.24 2.24 0 0 1 -.8.69 2.59 2.59 0 0 1 -1 .17 1.76 1.76 0 0 1 -1.25-.41 1.48 1.48 0 0 1 -.45-1.16c0-1.08.86-1.65 2.59-1.7h.91v-.33a1.36 1.36 0 0 0 -.27-.93 1.12 1.12 0 0 0 -.87-.3 3.44 3.44 0 0 0 -1.51.41l-.25-.62a3.36 3.36 0 0 1 .87-.34 3.73 3.73 0 0 1 .94-.12 2.06 2.06 0 0 1 1.42.42 1.76 1.76 0 0 1 .46 1.36v3.66zm-1.83-.58a1.64 1.64 0 0 0 1.19-.41 1.52 1.52 0 0 0 .43-1.16v-.49h-.81a2.91 2.91 0 0 0 -1.4.3.91.91 0 0 0 -.42.83.87.87 0 0 0 .26.67 1.14 1.14 0 0 0 .75.26z"/><path d="m280.15 368.82v-3.47a1.37 1.37 0 0 0 -.3-1 1.18 1.18 0 0 0 -.93-.32 1.54 1.54 0 0 0 -1.23.45 2.29 2.29 0 0 0 -.39 1.5v2.81h-.81v-5.36h.66l.13.74a1.69 1.69 0 0 1 .7-.62 2.33 2.33 0 0 1 1-.21 2 2 0 0 1 1.45.46 2 2 0 0 1 .49 1.49v3.5z"/><path d="m213.2 390.57h-.83v-3.36h-3.76v3.36h-.83v-7.14h.83v3h3.76v-3h.83z"/><path d="m219.66 387.89a2.94 2.94 0 0 1 -.66 2 2.33 2.33 0 0 1 -1.82.74 2.4 2.4 0 0 1 -1.28-.34 2.27 2.27 0 0 1 -.86-1 3.38 3.38 0 0 1 -.3-1.47 2.94 2.94 0 0 1 .66-2 2.56 2.56 0 0 1 3.6 0 2.94 2.94 0 0 1 .66 2.07zm-4.08 0a2.57 2.57 0 0 0 .41 1.56 1.63 1.63 0 0 0 2.42 0 3.15 3.15 0 0 0 0-3.11 1.46 1.46 0 0 0 -1.22-.53 1.42 1.42 0 0 0 -1.2.52 2.53 2.53 0 0 0 -.41 1.56z"/><path d="m221.89 390.57h-.81v-7.57h.81z"/><path d="m227.25 389.85a1.91 1.91 0 0 1 -1.68.82 2 2 0 0 1 -1.64-.72 3.88 3.88 0 0 1 0-4.1 2.17 2.17 0 0 1 3.3.06h.06v-.38-.38-2.15h.71v7.6h-.66zm-1.62.14a1.48 1.48 0 0 0 1.2-.45 2.28 2.28 0 0 0 .38-1.46v-.17a2.68 2.68 0 0 0 -.38-1.62 1.43 1.43 0 0 0 -1.21-.49 1.24 1.24 0 0 0 -1.09.55 2.78 2.78 0 0 0 -.38 1.57 2.66 2.66 0 0 0 .38 1.55 1.29 1.29 0 0 0 1.1.53z"/><path d="m233.19 389.11a1.34 1.34 0 0 1 -.56 1.15 2.61 2.61 0 0 1 -1.56.41 3.34 3.34 0 0 1 -1.66-.34v-.75a4.31 4.31 0 0 0 .83.31 3.67 3.67 0 0 0 .85.11 2 2 0 0 0 1-.2.7.7 0 0 0 .34-.62.68.68 0 0 0 -.27-.54 4.65 4.65 0 0 0 -1.06-.52 5.77 5.77 0 0 1 -1.06-.49 1.4 1.4 0 0 1 -.47-.47 1.22 1.22 0 0 1 -.15-.63 1.19 1.19 0 0 1 .53-1 2.48 2.48 0 0 1 1.46-.38 4.37 4.37 0 0 1 1.69.35l-.29.66a3.89 3.89 0 0 0 -1.46-.33 1.71 1.71 0 0 0 -.87.18.6.6 0 0 0 -.18.86 1.06 1.06 0 0 0 .35.29 9.52 9.52 0 0 0 .94.4 3.38 3.38 0 0 1 1.28.7 1.2 1.2 0 0 1 .32.85z"/><path d="m239 390.67a1.93 1.93 0 0 1 -1.61-.73 3.16 3.16 0 0 1 -.58-2 3.21 3.21 0 0 1 .58-2.05 2 2 0 0 1 1.63-.74 1.94 1.94 0 0 1 1.69.83l.12-.73h.63v7.75h-.81v-2.29a5 5 0 0 1 .06-.83h-.07a1.89 1.89 0 0 1 -1.64.79zm.13-.68a1.47 1.47 0 0 0 1.18-.44 2.28 2.28 0 0 0 .39-1.46v-.18a2.65 2.65 0 0 0 -.38-1.62 1.41 1.41 0 0 0 -1.2-.49 1.23 1.23 0 0 0 -1.09.55 2.7 2.7 0 0 0 -.38 1.57 2.65 2.65 0 0 0 .37 1.54 1.28 1.28 0 0 0 1.11.54z"/><path d="m244 385.22v3.47a1.4 1.4 0 0 0 .29 1 1.24 1.24 0 0 0 .94.32 1.49 1.49 0 0 0 1.22-.46 2.32 2.32 0 0 0 .39-1.5v-2.81h.81v5.35h-.65l-.11-.72h-.05a1.52 1.52 0 0 1 -.69.61 2.31 2.31 0 0 1 -1 .21 2 2 0 0 1 -1.46-.47 2 2 0 0 1 -.49-1.48v-3.5z"/><path d="m251.63 390.67a2.43 2.43 0 0 1 -1.87-.73 2.78 2.78 0 0 1 -.69-2 3.15 3.15 0 0 1 .64-2.06 2.11 2.11 0 0 1 1.71-.76 2 2 0 0 1 1.59.66 2.56 2.56 0 0 1 .59 1.75v.47h-3.69a2.13 2.13 0 0 0 .48 1.43 1.62 1.62 0 0 0 1.27.49 4.3 4.3 0 0 0 1.71-.36v.72a5.48 5.48 0 0 1 -.81.27 5 5 0 0 1 -.93.12zm-.22-4.87a1.33 1.33 0 0 0 -1 .42 2 2 0 0 0 -.45 1.16h2.8a1.76 1.76 0 0 0 -.34-1.17 1.22 1.22 0 0 0 -1.01-.41z"/><path d="m255.74 385.22v3.47a1.4 1.4 0 0 0 .3 1 1.23 1.23 0 0 0 .93.32 1.52 1.52 0 0 0 1.23-.46 2.32 2.32 0 0 0 .39-1.5v-2.81h.81v5.35h-.67l-.12-.72a1.63 1.63 0 0 1 -.69.61 2.34 2.34 0 0 1 -1 .21 2 2 0 0 1 -1.46-.47 1.94 1.94 0 0 1 -.49-1.48v-3.5z"/><path d="m263.38 390.67a2.42 2.42 0 0 1 -1.87-.73 2.78 2.78 0 0 1 -.69-2 3.1 3.1 0 0 1 .64-2.06 2.09 2.09 0 0 1 1.71-.76 2 2 0 0 1 1.59.66 2.56 2.56 0 0 1 .59 1.75v.47h-3.69a2.13 2.13 0 0 0 .48 1.43 1.62 1.62 0 0 0 1.27.49 4.34 4.34 0 0 0 1.71-.36v.72a5.22 5.22 0 0 1 -.82.27 4.77 4.77 0 0 1 -.92.12zm-.22-4.87a1.33 1.33 0 0 0 -1 .42 2 2 0 0 0 -.45 1.16h2.8a1.81 1.81 0 0 0 -.34-1.17 1.22 1.22 0 0 0 -1.01-.41z"/></g></svg>